<svg width="336" height="330" viewBox="0 0 336 330" fill="none" xmlns="http://www.w3.org/2000/svg">
<path d="M284.5 192.344C312.943 192.344 336 169.881 336 142.172C336 114.463 312.943 92 284.5 92C256.057 92 233 114.463 233 142.172C233 169.881 256.057 192.344 284.5 192.344Z" fill="#B1B4C5"/>
<path d="M284.5 192.344C312.943 192.344 336 169.881 336 142.172C336 114.463 312.943 92 284.5 92C256.057 92 233 114.463 233 142.172C233 169.881 256.057 192.344 284.5 192.344Z" fill="url(#paint0_linear_798_279)"/>
<path d="M284.5 182.517C306.334 182.517 324.035 164.917 324.035 143.207C324.035 121.497 306.334 103.897 284.5 103.897C262.665 103.897 244.965 121.497 244.965 143.207C244.965 164.917 262.665 182.517 284.5 182.517Z" fill="#E1E4ED"/>
<path d="M299.861 133.03C299.583 132.921 299.285 132.873 298.987 132.89C298.582 132.918 298.255 133.082 298.062 133.35C296.922 134.945 295.988 137.957 295.235 140.378C294.89 141.497 294.425 142.994 294.09 143.705C293.74 141.714 294.135 134.418 294.289 131.609L294.291 131.563C294.398 129.611 294.412 129.269 294.389 129.119C294.219 128.049 293.79 127.345 293.111 127.031C292.425 126.711 291.534 126.853 290.574 127.43C290.093 127.72 289.96 128.718 289.546 133.24L289.545 133.26C289.317 135.745 288.794 141.466 288.15 142.419C287.423 141.086 286.422 133.512 285.99 130.234C285.689 127.938 285.513 126.62 285.394 126.222C285.145 125.388 284.094 124.678 283.054 124.639C282.187 124.596 281.476 125.036 281.137 125.801C280.502 126.506 280.727 128.846 281.427 134.387C281.762 137.024 282.451 142.471 282.017 143.082C281.152 142.988 279.667 139.576 277.603 132.938C277.023 131.078 276.844 130.52 276.666 130.275C276.316 129.422 275.124 128.765 274.056 128.839C273.964 128.845 273.876 128.857 273.788 128.874C273.228 128.984 271.952 129.499 272.224 131.872C272.978 135.162 273.797 137.577 274.591 139.922L274.607 139.968C275.083 141.372 275.532 142.699 275.95 144.172C276.934 147.648 276.551 149.805 276.546 149.83C276.514 150.052 276.446 150.187 276.342 150.235C276.298 150.254 276.251 150.264 276.203 150.266C275.892 150.288 275.423 150.081 275.183 149.947C274.632 148.896 271.89 143.885 269.405 143.19L269.315 143.164L269.225 143.172C268.314 143.258 267.644 143.602 267.234 144.195C266.585 145.132 266.854 146.325 266.919 146.564L266.955 146.65C266.975 146.686 268.968 150.314 269.277 152.002C269.543 153.449 270.919 155.017 272.025 156.277L272.071 156.328C272.431 156.741 272.743 157.097 272.988 157.427C276.198 160.77 281.275 163.583 281.316 163.606C281.949 164.072 282.301 164.523 282.339 164.912C282.356 165.058 282.315 165.205 282.225 165.322L282.115 165.438L282.817 166.119L296.209 165.179L296.78 162.566C298.546 155.186 298.177 148.894 298.171 148.852C298.178 148.62 298.673 146.382 299.071 144.572L299.082 144.526C299.876 140.923 300.862 136.439 301.052 134.733C301.134 134.003 300.666 133.334 299.862 133.03H299.861Z" fill="#8A90AC"/>
<path d="M51.5 197C79.9427 197 103 173.495 103 144.5C103 115.505 79.9427 92 51.5 92C23.0573 92 0 115.505 0 144.5C0 173.495 23.0573 197 51.5 197Z" fill="#B1B4C5"/>
<path d="M51.5 192.344C79.9427 192.344 103 169.881 103 142.172C103 114.463 79.9427 92 51.5 92C23.0573 92 0 114.463 0 142.172C0 169.881 23.0573 192.344 51.5 192.344Z" fill="url(#paint1_linear_798_279)"/>
<path d="M51.4998 182.517C73.3344 182.517 91.0348 164.917 91.0348 143.207C91.0348 121.497 73.3344 103.897 51.4998 103.897C29.6653 103.897 11.9648 121.497 11.9648 143.207C11.9648 164.917 29.6653 182.517 51.4998 182.517Z" fill="#E1E4ED"/>
<path d="M68.9331 146.218L68.3201 145.608C66.8551 144.152 64.4601 143.834 62.6731 144.856L58.8531 147.026L59.6501 129.644C59.6475 128.941 59.366 128.267 58.8675 127.772C58.369 127.276 57.6941 126.998 56.9911 127C56.6741 127 56.3701 127.056 56.0871 127.158L56.1821 126.225C56.1821 124.751 54.9711 123.552 53.4841 123.552C52.1091 123.552 50.9561 124.577 50.8101 125.892L48.3601 140.613C48.3281 140.813 47.9791 140.793 47.9421 140.667L45.0471 128.865C44.8891 128.327 44.5615 127.855 44.1133 127.519C43.6651 127.183 43.1203 127.001 42.5601 127C41.7661 127 41.0271 127.356 40.5331 127.975C40.2901 128.278 40.1197 128.632 40.0348 129.011C39.9498 129.39 39.9527 129.783 40.0431 130.161L40.6061 132.537C40.2849 132.512 39.962 132.553 39.6571 132.657C39.1048 132.838 38.6351 133.21 38.3323 133.706C38.0296 134.203 37.9136 134.791 38.0051 135.365L39.7081 145.104C39.7081 148.946 40.3861 151.789 40.9541 153.496C41.2781 154.47 41.4421 155.495 41.4421 156.541C41.4421 157.452 41.3151 158.359 41.0621 159.234L39.7421 163.833C39.7057 163.961 39.6997 164.097 39.7245 164.228C39.7493 164.359 39.8042 164.483 39.885 164.589C39.9657 164.696 40.0701 164.782 40.1898 164.841C40.3096 164.901 40.4415 164.931 40.5751 164.931H56.1821C56.3189 164.931 56.4537 164.898 56.5755 164.836C56.6974 164.774 56.8027 164.684 56.883 164.573C56.9633 164.462 57.0162 164.334 57.0375 164.199C57.0587 164.064 57.0476 163.926 57.0051 163.796C56.9961 163.774 56.2711 161.548 56.9571 158.52C57.8271 157.817 60.8741 155.354 61.9681 154.36C63.7771 152.718 68.7321 147.644 68.9421 147.428C69.1008 147.266 69.1889 147.048 69.1872 146.821C69.1855 146.594 69.0942 146.377 68.9331 146.218V146.218Z" fill="#8A90AC"/>
<path d="M168.5 105C196.943 105 220 81.4949 220 52.5C220 23.5051 196.943 0 168.5 0C140.057 0 117 23.5051 117 52.5C117 81.4949 140.057 105 168.5 105Z" fill="#B1B4C5"/>
<path d="M168.5 100.344C196.943 100.344 220 77.8812 220 50.172C220 22.4628 196.943 0 168.5 0C140.057 0 117 22.4628 117 50.172C117 77.8812 140.057 100.344 168.5 100.344Z" fill="url(#paint2_linear_798_279)"/>
<path d="M168.5 90.517C190.334 90.517 208.035 72.9173 208.035 51.207C208.035 29.4967 190.334 11.897 168.5 11.897C146.665 11.897 128.965 29.4967 128.965 51.207C128.965 72.9173 146.665 90.517 168.5 90.517Z" fill="#E1E4ED"/>
<path d="M158.179 50.8708L162.45 44.9008C160.675 44.6058 157.415 44.5408 154.745 47.1958C150.537 51.3798 148.832 60.4208 148.477 62.6088L159.173 73.2448C161.099 73.0808 169.625 71.9488 177.84 63.7808C177.927 63.6038 179.928 62.1338 178.292 60.5068C177.512 59.7308 176.219 59.7448 175.421 60.5388C175.328 60.6347 175.216 60.7111 175.094 60.7638C174.971 60.8164 174.839 60.8442 174.705 60.8455C174.572 60.8468 174.439 60.8216 174.316 60.7713C174.192 60.7211 174.079 60.6468 173.985 60.5528C173.89 60.459 173.815 60.3473 173.765 60.2242C173.714 60.101 173.689 59.969 173.69 59.8358C173.691 59.7027 173.719 59.5712 173.772 59.4491C173.825 59.3269 173.902 59.2167 173.999 59.1248L176.902 56.2388C178.378 54.7718 176.987 52.2978 174.928 52.8918L172.551 54.9148C172.347 55.0907 172.081 55.179 171.813 55.1605C171.544 55.142 171.293 55.0181 171.116 54.8158C170.747 54.3918 170.826 53.7488 171.246 53.3868C179.547 46.1448 178.336 47.0168 183.676 42.0398C185.672 40.3878 183.161 37.4648 181.195 39.1388L168.275 50.6908C168.089 50.8478 167.854 50.9327 167.611 50.9302C167.368 50.9276 167.134 50.8376 166.953 50.6768C166.526 50.3098 166.516 49.7818 166.795 49.3648L175.807 35.4338C177.125 33.6598 174.532 31.6898 173.144 33.4778L159.819 52.0078C159.742 52.1169 159.645 52.2098 159.533 52.2812C159.421 52.3527 159.296 52.4012 159.165 52.4241C159.034 52.4469 158.899 52.4437 158.77 52.4144C158.64 52.3852 158.517 52.3306 158.409 52.2538C158.301 52.1794 158.209 52.0842 158.139 51.9738C158.069 51.8634 158.022 51.74 158.001 51.611C157.979 51.482 157.984 51.35 158.014 51.2228C158.045 51.0957 158.101 50.976 158.179 50.8708V50.8708Z" fill="#8A90AC"/>
<path d="M238.5 330C266.943 330 290 306.495 290 277.5C290 248.505 266.943 225 238.5 225C210.057 225 187 248.505 187 277.5C187 306.495 210.057 330 238.5 330Z" fill="#B1B4C5"/>
<path d="M238.5 325.344C266.943 325.344 290 302.881 290 275.172C290 247.463 266.943 225 238.5 225C210.057 225 187 247.463 187 275.172C187 302.881 210.057 325.344 238.5 325.344Z" fill="url(#paint3_linear_798_279)"/>
<path d="M238.5 315.517C260.334 315.517 278.035 297.917 278.035 276.207C278.035 254.497 260.334 236.897 238.5 236.897C216.665 236.897 198.965 254.497 198.965 276.207C198.965 297.917 216.665 315.517 238.5 315.517Z" fill="#E1E4ED"/>
<path d="M253.815 270.562C253.36 264.818 246.901 265.405 246.901 265.405C244.175 260.605 239.917 264.082 239.917 264.082C236.645 259.378 232.543 263.737 232.543 263.737C225.471 262.975 225.745 268.75 225.745 268.75C225.578 270.586 226.741 276.265 226.741 276.265C225.692 272.992 223.416 275.709 223.416 275.709C220.619 280.021 222.725 282.382 222.725 282.382C226.51 286.813 234.579 292.132 234.579 292.132C237.499 293.803 236.264 295.293 236.264 295.293L253.934 292.377L254.341 289.031C257.027 280.917 253.816 270.561 253.816 270.561L253.815 270.562Z" fill="#8A90AC"/>
<path d="M97.5 330C125.943 330 149 306.495 149 277.5C149 248.505 125.943 225 97.5 225C69.0573 225 46 248.505 46 277.5C46 306.495 69.0573 330 97.5 330Z" fill="#B1B4C5"/>
<path d="M97.5 325.344C125.943 325.344 149 302.881 149 275.172C149 247.463 125.943 225 97.5 225C69.0573 225 46 247.463 46 275.172C46 302.881 69.0573 325.344 97.5 325.344Z" fill="url(#paint4_linear_798_279)"/>
<path d="M97.4998 315.517C119.334 315.517 137.035 297.917 137.035 276.207C137.035 254.497 119.334 236.897 97.4998 236.897C75.6653 236.897 57.9648 254.497 57.9648 276.207C57.9648 297.917 75.6653 315.517 97.4998 315.517Z" fill="#E1E4ED"/>
<path d="M110.274 258.413C112.568 256.994 114.766 256.687 116.464 257.548C120.27 259.478 119.719 266.661 118.162 269.774C117.282 271.531 115.724 272.814 113.525 273.595C112.673 276.29 111.477 278.606 109.95 280.522C110.962 281.367 112.239 281.828 113.557 281.826H113.621L115.767 279.71C116.029 279.454 116.38 279.311 116.745 279.311C117.111 279.311 117.462 279.454 117.723 279.71C117.852 279.836 117.954 279.986 118.023 280.152C118.093 280.317 118.129 280.495 118.129 280.675C118.129 280.854 118.093 281.032 118.023 281.198C117.954 281.363 117.852 281.513 117.723 281.639L117.533 281.826H117.964C118.728 281.826 119.347 282.436 119.347 283.19C119.347 283.943 118.727 284.553 117.964 284.553H117.532L117.722 284.741C117.851 284.867 117.953 285.017 118.022 285.182C118.092 285.348 118.127 285.526 118.127 285.705C118.127 285.885 118.092 286.062 118.022 286.228C117.953 286.394 117.851 286.544 117.722 286.669C117.452 286.936 117.098 287.069 116.744 287.069C116.39 287.069 116.036 286.936 115.766 286.669L113.62 284.553H113.556C111.544 284.556 109.597 283.837 108.069 282.526C107.775 282.794 107.47 283.051 107.156 283.296C104.506 285.366 101.264 286.571 97.4765 286.9C97.9545 288.335 98.0475 289.89 97.7205 291.407L97.7075 291.47L99.3585 294.068C99.5582 294.382 99.6263 294.762 99.5481 295.126C99.4699 295.49 99.2516 295.808 98.9405 296.012C98.7866 296.112 98.6146 296.179 98.4343 296.212C98.2541 296.244 98.0692 296.241 97.8903 296.202C97.7115 296.162 97.5421 296.088 97.3922 295.983C97.2422 295.878 97.1145 295.744 97.0165 295.589L96.8705 295.359L96.7775 295.789C96.7393 295.969 96.6662 296.139 96.5624 296.29C96.4585 296.441 96.3259 296.57 96.1721 296.67C96.0184 296.77 95.8464 296.838 95.6661 296.871C95.4859 296.905 95.3008 296.902 95.1215 296.864C94.7588 296.782 94.4432 296.561 94.2437 296.247C94.0441 295.933 93.9768 295.553 94.0565 295.19L94.1495 294.76L93.9215 294.908C93.2745 295.328 92.4135 295.139 91.9975 294.485C91.7978 294.171 91.7299 293.791 91.8083 293.427C91.8867 293.063 92.1052 292.745 92.4165 292.541L94.9865 290.871L95.0005 290.808C95.28 289.512 95.1008 288.16 94.4935 286.981C93.3536 286.948 92.2162 286.854 91.0865 286.698C87.7585 286.248 85.8715 287.714 85.3725 288.174C81.4525 291.787 80.6935 298.172 80.6865 298.236C80.6482 298.579 80.4852 298.895 80.2287 299.125C79.9722 299.355 79.64 299.482 79.2955 299.483C79.0669 299.483 78.8419 299.427 78.64 299.32C78.4382 299.212 78.2656 299.057 78.1375 298.868C78.0745 298.775 76.5995 296.573 75.9525 293.465C75.0735 289.245 76.1215 285.372 78.9825 282.268C80.6802 280.434 82.8175 279.062 85.1925 278.283L84.9005 278.359C84.1496 278.01 83.3315 277.829 82.5035 277.829H82.4395L80.2855 279.945C80.0145 280.212 79.6585 280.345 79.3035 280.345C78.9485 280.345 78.5935 280.212 78.3215 279.945C78.1929 279.82 78.0907 279.67 78.021 279.504C77.9512 279.339 77.9153 279.161 77.9153 278.981C77.9153 278.802 77.9512 278.624 78.021 278.458C78.0907 278.293 78.1929 278.143 78.3215 278.017L78.5125 277.829H78.0795C77.3125 277.829 76.6905 277.219 76.6905 276.466C76.6905 275.712 77.3125 275.102 78.0795 275.102H78.5125L78.3225 274.914C78.1939 274.789 78.0917 274.639 78.022 274.473C77.9522 274.308 77.9163 274.13 77.9163 273.95C77.9163 273.771 77.9522 273.593 78.022 273.427C78.0917 273.262 78.1939 273.112 78.3225 272.986C78.585 272.73 78.9373 272.587 79.304 272.587C79.6707 272.587 80.0229 272.73 80.2855 272.986L82.4395 275.102H82.5035C84.8485 275.102 87.0715 276.062 88.6555 277.745L88.5015 277.587C89.7671 277.461 91.0431 277.484 92.3035 277.654C95.8165 278.129 98.6895 277.641 100.907 276.198C99.658 274.652 98.9786 272.723 98.9835 270.735V270.67L96.8595 268.48C96.6023 268.212 96.4588 267.854 96.4588 267.483C96.4588 267.111 96.6023 266.754 96.8595 266.485C96.9846 266.355 97.1348 266.251 97.3012 266.179C97.4675 266.108 97.6466 266.072 97.8275 266.072C98.0084 266.072 98.1874 266.108 98.3538 266.179C98.5201 266.251 98.6704 266.355 98.7955 266.485L98.9825 266.679V266.239C98.9825 265.459 99.5955 264.828 100.352 264.828C101.107 264.828 101.72 265.459 101.72 266.238V266.679L101.908 266.485C102.034 266.355 102.184 266.251 102.35 266.18C102.516 266.109 102.695 266.072 102.876 266.072C103.057 266.072 103.236 266.109 103.402 266.18C103.568 266.251 103.718 266.355 103.843 266.485C104.658 267.325 104.07 268.247 103.843 268.481L101.72 270.67V270.735C101.72 272.067 102.17 273.341 102.979 274.353C103.981 273.155 104.769 271.65 105.339 269.839C104.922 268.686 104.274 265.957 105.928 262.861C106.794 261.239 108.459 259.535 110.273 258.413H110.274Z" fill="#8A90AC"/>
<path d="M104.261 68.0704L81.2594 87.3707C80.6955 87.8439 80.6219 88.6847 81.0951 89.2487L81.0958 89.2494C81.569 89.8134 82.4098 89.887 82.9737 89.4137L105.975 70.1134C106.539 69.6402 106.613 68.7994 106.139 68.2354L106.139 68.2347C105.665 67.6707 104.825 67.5971 104.261 68.0704Z" fill="#B1B4C5"/>
<path fill-rule="evenodd" clip-rule="evenodd" d="M97.8343 66.513L105.878 67.36C106.551 67.431 107.044 68.0257 106.992 68.7018C106.979 68.8597 106.935 69.0135 106.862 69.1542C106.789 69.2948 106.689 69.4194 106.567 69.5205C106.445 69.6217 106.304 69.6975 106.152 69.7434C106 69.7893 105.841 69.8043 105.684 69.7876L97.6404 68.9406C97.3163 68.9064 97.0185 68.747 96.8103 68.4963C96.6022 68.2457 96.5002 67.9236 96.5262 67.5988C96.5388 67.4409 96.583 67.2871 96.656 67.1464C96.729 67.0058 96.8294 66.8813 96.9513 66.7801C97.0732 66.6789 97.2141 66.6031 97.3658 66.5572C97.5174 66.5113 97.6767 66.4963 97.8343 66.513V66.513Z" fill="#B1B4C5"/>
<path fill-rule="evenodd" clip-rule="evenodd" d="M103.967 76.4816L104.529 68.4127C104.54 68.2546 104.582 68.1004 104.654 67.959C104.726 67.8177 104.825 67.6921 104.946 67.5897C105.067 67.4873 105.207 67.4101 105.358 67.3627C105.509 67.3154 105.668 67.2987 105.826 67.3138C106.5 67.3785 107.002 67.9682 106.954 68.644L106.392 76.7129C106.381 76.871 106.338 77.0252 106.267 77.1665C106.195 77.3079 106.096 77.4335 105.975 77.5359C105.854 77.6383 105.714 77.7155 105.563 77.7628C105.412 77.8102 105.253 77.8269 105.095 77.8118C104.771 77.781 104.471 77.6247 104.26 77.3761C104.05 77.1276 103.944 76.8066 103.967 76.4816Z" fill="#B1B4C5"/>
<path d="M252.261 87.9296L229.259 68.6293C228.695 68.1561 228.622 67.3153 229.095 66.7513L229.096 66.7506C229.569 66.1866 230.41 66.113 230.974 66.5863L253.975 85.8866C254.539 86.3598 254.613 87.2006 254.139 87.7646L254.139 87.7653C253.665 88.3293 252.825 88.4029 252.261 87.9296Z" fill="#B1B4C5"/>
<path fill-rule="evenodd" clip-rule="evenodd" d="M245.834 89.487L253.878 88.64C254.551 88.569 255.044 87.9743 254.992 87.2982C254.979 87.1403 254.935 86.9865 254.862 86.8458C254.789 86.7052 254.689 86.5806 254.567 86.4795C254.445 86.3783 254.304 86.3025 254.152 86.2566C254 86.2107 253.841 86.1957 253.684 86.2124L245.64 87.0594C245.316 87.0936 245.018 87.253 244.81 87.5037C244.602 87.7543 244.5 88.0764 244.526 88.4012C244.539 88.5591 244.583 88.7129 244.656 88.8536C244.729 88.9942 244.829 89.1187 244.951 89.2199C245.073 89.3211 245.214 89.3969 245.366 89.4428C245.517 89.4887 245.677 89.5037 245.834 89.487V89.487Z" fill="#B1B4C5"/>
<path fill-rule="evenodd" clip-rule="evenodd" d="M251.967 79.5184L252.529 87.5873C252.54 87.7454 252.582 87.8996 252.654 88.041C252.726 88.1823 252.825 88.3079 252.946 88.4103C253.067 88.5127 253.207 88.5899 253.358 88.6373C253.509 88.6846 253.668 88.7013 253.826 88.6862C254.5 88.6215 255.002 88.0318 254.954 87.356L254.392 79.2871C254.381 79.129 254.338 78.9748 254.267 78.8335C254.195 78.6921 254.096 78.5665 253.975 78.4641C253.854 78.3617 253.714 78.2845 253.563 78.2372C253.412 78.1898 253.253 78.1731 253.095 78.1882C252.771 78.219 252.471 78.3753 252.26 78.6239C252.05 78.8724 251.944 79.1934 251.967 79.5184Z" fill="#B1B4C5"/>
<path d="M281.225 229.871L299.295 205.891C299.738 205.303 299.621 204.467 299.033 204.024L299.032 204.024C298.444 203.581 297.609 203.698 297.165 204.286L279.095 228.266C278.652 228.854 278.77 229.69 279.358 230.133L279.359 230.133C279.946 230.576 280.782 230.459 281.225 229.871Z" fill="#B1B4C5"/>
<path fill-rule="evenodd" clip-rule="evenodd" d="M287.836 229.943L279.808 230.927C279.137 231.009 278.522 230.541 278.421 229.87C278.398 229.713 278.406 229.553 278.446 229.4C278.485 229.247 278.555 229.103 278.651 228.977C278.747 228.851 278.867 228.745 279.005 228.666C279.142 228.587 279.294 228.537 279.451 228.518L287.479 227.534C287.802 227.494 288.128 227.582 288.388 227.78C288.647 227.977 288.819 228.268 288.866 228.591C288.89 228.747 288.881 228.907 288.842 229.06C288.802 229.214 288.732 229.358 288.636 229.484C288.54 229.61 288.42 229.715 288.283 229.794C288.145 229.873 287.993 229.924 287.836 229.943V229.943Z" fill="#B1B4C5"/>
<path fill-rule="evenodd" clip-rule="evenodd" d="M279.617 221.609L280.885 229.598C280.91 229.754 280.903 229.914 280.865 230.068C280.827 230.222 280.759 230.367 280.664 230.493C280.569 230.62 280.45 230.727 280.313 230.807C280.177 230.888 280.025 230.94 279.868 230.96C279.197 231.049 278.575 230.587 278.47 229.918L277.202 221.929C277.178 221.773 277.184 221.613 277.222 221.459C277.26 221.305 277.329 221.161 277.423 221.034C277.518 220.907 277.637 220.8 277.774 220.72C277.911 220.64 278.062 220.588 278.219 220.567C278.542 220.524 278.869 220.609 279.13 220.804C279.391 220.998 279.566 221.288 279.617 221.609Z" fill="#B1B4C5"/>
<path d="M154.641 303.667H184.667C185.403 303.667 186 304.264 186 305V305.001C186 305.737 185.403 306.334 184.667 306.334H154.641C153.905 306.334 153.308 305.737 153.308 305.001V305C153.308 304.264 153.905 303.667 154.641 303.667Z" fill="#B1B4C5"/>
<path fill-rule="evenodd" clip-rule="evenodd" d="M158.564 298.343L152.947 304.162C152.477 304.649 152.481 305.422 152.956 305.906C153.067 306.019 153.2 306.108 153.346 306.169C153.492 306.23 153.649 306.261 153.808 306.26C153.966 306.259 154.123 306.227 154.268 306.164C154.414 306.102 154.546 306.011 154.656 305.897L160.273 300.078C160.499 299.844 160.625 299.53 160.623 299.204C160.621 298.878 160.492 298.566 160.264 298.334C160.153 298.221 160.02 298.132 159.874 298.071C159.727 298.01 159.57 297.979 159.412 297.98C159.253 297.981 159.097 298.013 158.951 298.076C158.805 298.138 158.674 298.229 158.564 298.343V298.343Z" fill="#B1B4C5"/>
<path fill-rule="evenodd" clip-rule="evenodd" d="M160.273 309.922L154.656 304.102C154.546 303.988 154.414 303.897 154.268 303.835C154.123 303.772 153.966 303.74 153.807 303.739C153.649 303.739 153.492 303.77 153.346 303.83C153.199 303.891 153.067 303.981 152.956 304.094C152.481 304.577 152.476 305.351 152.947 305.838L158.564 311.658C158.674 311.772 158.806 311.863 158.951 311.925C159.097 311.987 159.254 312.019 159.412 312.02C159.57 312.021 159.727 311.99 159.874 311.929C160.02 311.868 160.153 311.779 160.264 311.666C160.492 311.434 160.621 311.121 160.623 310.796C160.625 310.47 160.499 310.156 160.273 309.922Z" fill="#B1B4C5"/>
<path d="M40.2253 206.129L58.2954 230.109C58.7385 230.697 58.621 231.533 58.0331 231.976L58.0323 231.976C57.4443 232.419 56.6085 232.302 56.1655 231.714L38.0954 207.734C37.6523 207.146 37.7698 206.31 38.3577 205.867L38.3585 205.867C38.9465 205.424 39.7823 205.541 40.2253 206.129Z" fill="#B1B4C5"/>
<path fill-rule="evenodd" clip-rule="evenodd" d="M46.836 206.057L38.8084 205.073C38.1366 204.991 37.5216 205.459 37.421 206.13C37.3977 206.287 37.4061 206.447 37.4456 206.6C37.4851 206.753 37.5549 206.897 37.6509 207.023C37.747 207.149 37.8672 207.255 38.0047 207.334C38.1421 207.413 38.294 207.463 38.4512 207.482L46.4789 208.466C46.8023 208.506 47.1284 208.418 47.3876 208.22C47.6468 208.023 47.8186 207.732 47.8663 207.409C47.8895 207.253 47.8811 207.093 47.8416 206.94C47.8021 206.786 47.7323 206.642 47.6363 206.516C47.5403 206.39 47.42 206.285 47.2826 206.206C47.1451 206.127 46.9933 206.076 46.836 206.057V206.057Z" fill="#B1B4C5"/>
<path fill-rule="evenodd" clip-rule="evenodd" d="M38.6173 214.391L39.8849 206.402C39.9097 206.246 39.9029 206.086 39.865 205.932C39.827 205.778 39.7586 205.633 39.6639 205.507C39.5691 205.38 39.4499 205.273 39.3133 205.193C39.1766 205.112 39.0253 205.06 38.8682 205.04C38.1966 204.951 37.5755 205.413 37.47 206.082L36.2023 214.071C36.1775 214.227 36.1843 214.387 36.2223 214.541C36.2602 214.695 36.3286 214.839 36.4234 214.966C36.5181 215.093 36.6373 215.2 36.774 215.28C36.9106 215.36 37.0619 215.412 37.219 215.433C37.542 215.476 37.869 215.391 38.1302 215.196C38.3914 215.002 38.5662 214.712 38.6173 214.391Z" fill="#B1B4C5"/>
<path d="M127.64 137.667H209.974C210.71 137.667 211.307 138.264 211.307 139V139.001C211.307 139.737 210.71 140.334 209.974 140.334H127.64C126.903 140.334 126.307 139.737 126.307 139.001V139C126.307 138.264 126.903 137.667 127.64 137.667Z" fill="#B1B4C5"/>
<path fill-rule="evenodd" clip-rule="evenodd" d="M131.562 132.343L125.945 138.162C125.475 138.649 125.479 139.422 125.954 139.906C126.065 140.019 126.198 140.108 126.344 140.169C126.49 140.23 126.647 140.261 126.806 140.26C126.964 140.259 127.121 140.227 127.266 140.164C127.412 140.102 127.544 140.011 127.654 139.897L133.271 134.078C133.497 133.844 133.623 133.53 133.621 133.204C133.619 132.878 133.49 132.566 133.262 132.334C133.151 132.221 133.018 132.132 132.872 132.071C132.725 132.01 132.568 131.979 132.41 131.98C132.251 131.981 132.095 132.013 131.949 132.076C131.803 132.138 131.672 132.229 131.562 132.343V132.343Z" fill="#B1B4C5"/>
<path fill-rule="evenodd" clip-rule="evenodd" d="M133.271 143.922L127.654 138.102C127.544 137.988 127.412 137.897 127.266 137.835C127.121 137.772 126.964 137.74 126.805 137.739C126.647 137.739 126.49 137.77 126.344 137.83C126.198 137.891 126.065 137.981 125.954 138.094C125.479 138.577 125.474 139.351 125.945 139.838L131.562 145.658C131.672 145.772 131.804 145.863 131.949 145.925C132.095 145.987 132.252 146.019 132.41 146.02C132.569 146.021 132.726 145.99 132.872 145.929C133.018 145.868 133.151 145.779 133.262 145.666C133.49 145.434 133.619 145.121 133.621 144.796C133.623 144.47 133.497 144.156 133.271 143.922V143.922Z" fill="#B1B4C5"/>
<path d="M162.054 149.836C162.054 150.216 161.93 150.506 161.682 150.706C161.438 150.902 161.122 151 160.734 151H159.39C159.37 151 159.352 150.994 159.336 150.982C159.324 150.966 159.318 150.948 159.318 150.928V146.872C159.318 146.852 159.324 146.836 159.336 146.824C159.352 146.808 159.37 146.8 159.39 146.8H160.644C161.072 146.8 161.404 146.896 161.64 147.088C161.876 147.276 161.994 147.564 161.994 147.952C161.994 148.348 161.84 148.634 161.532 148.81C161.512 148.822 161.51 148.834 161.526 148.846C161.878 149.046 162.054 149.376 162.054 149.836ZM160.194 147.526C160.174 147.526 160.164 147.536 160.164 147.556V148.498C160.164 148.518 160.174 148.528 160.194 148.528H160.65C160.81 148.528 160.936 148.484 161.028 148.396C161.12 148.308 161.166 148.186 161.166 148.03C161.166 147.87 161.12 147.746 161.028 147.658C160.94 147.57 160.814 147.526 160.65 147.526H160.194ZM160.698 150.268C160.858 150.268 160.982 150.222 161.07 150.13C161.162 150.034 161.208 149.9 161.208 149.728C161.208 149.556 161.162 149.422 161.07 149.326C160.982 149.226 160.858 149.176 160.698 149.176H160.194C160.174 149.176 160.164 149.186 160.164 149.206V150.238C160.164 150.258 160.174 150.268 160.194 150.268H160.698ZM165.138 147.454C165.138 147.474 165.13 147.492 165.114 147.508C165.102 147.52 165.086 147.526 165.066 147.526H163.458C163.438 147.526 163.428 147.536 163.428 147.556V148.492C163.428 148.512 163.438 148.522 163.458 148.522H164.46C164.48 148.522 164.496 148.53 164.508 148.546C164.524 148.558 164.532 148.574 164.532 148.594V149.176C164.532 149.196 164.524 149.214 164.508 149.23C164.496 149.242 164.48 149.248 164.46 149.248H163.458C163.438 149.248 163.428 149.258 163.428 149.278V150.244C163.428 150.264 163.438 150.274 163.458 150.274H165.066C165.086 150.274 165.102 150.282 165.114 150.298C165.13 150.31 165.138 150.326 165.138 150.346V150.928C165.138 150.948 165.13 150.966 165.114 150.982C165.102 150.994 165.086 151 165.066 151H162.654C162.634 151 162.616 150.994 162.6 150.982C162.588 150.966 162.582 150.948 162.582 150.928V146.872C162.582 146.852 162.588 146.836 162.6 146.824C162.616 146.808 162.634 146.8 162.654 146.8H165.066C165.086 146.8 165.102 146.808 165.114 146.824C165.13 146.836 165.138 146.852 165.138 146.872V147.454ZM167.913 151C167.869 151 167.841 150.98 167.829 150.94L167.691 150.352C167.687 150.336 167.677 150.328 167.661 150.328H166.539C166.523 150.328 166.513 150.336 166.509 150.352L166.371 150.94C166.359 150.98 166.333 151 166.293 151H165.567C165.515 151 165.495 150.974 165.507 150.922L166.587 146.86C166.599 146.82 166.627 146.8 166.671 146.8H167.541C167.585 146.8 167.613 146.82 167.625 146.86L168.705 150.922L168.711 150.946C168.711 150.982 168.689 151 168.645 151H167.913ZM166.671 149.638C166.667 149.65 166.669 149.66 166.677 149.668C166.685 149.672 166.693 149.674 166.701 149.674H167.493C167.501 149.674 167.509 149.672 167.517 149.668C167.525 149.66 167.527 149.65 167.523 149.638L167.109 147.898C167.105 147.882 167.099 147.874 167.091 147.874C167.083 147.874 167.077 147.882 167.073 147.898L166.671 149.638ZM171.326 146.8C171.346 146.8 171.362 146.808 171.374 146.824C171.39 146.836 171.398 146.852 171.398 146.872V147.46C171.398 147.48 171.39 147.498 171.374 147.514C171.362 147.526 171.346 147.532 171.326 147.532H170.414C170.394 147.532 170.384 147.542 170.384 147.562V150.928C170.384 150.948 170.376 150.966 170.36 150.982C170.348 150.994 170.332 151 170.312 151H169.61C169.59 151 169.572 150.994 169.556 150.982C169.544 150.966 169.538 150.948 169.538 150.928V147.562C169.538 147.542 169.528 147.532 169.508 147.532H168.626C168.606 147.532 168.588 147.526 168.572 147.514C168.56 147.498 168.554 147.48 168.554 147.46V146.872C168.554 146.852 168.56 146.836 168.572 146.824C168.588 146.808 168.606 146.8 168.626 146.8H171.326ZM173.117 151.048C172.841 151.048 172.599 151 172.391 150.904C172.183 150.804 172.021 150.666 171.905 150.49C171.793 150.31 171.737 150.104 171.737 149.872V149.716C171.737 149.696 171.743 149.68 171.755 149.668C171.771 149.652 171.789 149.644 171.809 149.644H172.499C172.519 149.644 172.535 149.652 172.547 149.668C172.563 149.68 172.571 149.696 172.571 149.716V149.83C172.571 149.97 172.623 150.088 172.727 150.184C172.831 150.276 172.971 150.322 173.147 150.322C173.303 150.322 173.421 150.282 173.501 150.202C173.585 150.122 173.627 150.02 173.627 149.896C173.627 149.804 173.601 149.726 173.549 149.662C173.497 149.594 173.423 149.532 173.327 149.476C173.235 149.416 173.091 149.336 172.895 149.236C172.655 149.116 172.459 149.004 172.307 148.9C172.155 148.796 172.025 148.662 171.917 148.498C171.809 148.334 171.755 148.136 171.755 147.904C171.755 147.672 171.809 147.47 171.917 147.298C172.029 147.122 172.185 146.988 172.385 146.896C172.585 146.8 172.813 146.752 173.069 146.752C173.337 146.752 173.575 146.804 173.783 146.908C173.991 147.008 174.153 147.15 174.269 147.334C174.385 147.518 174.443 147.73 174.443 147.97V148.09C174.443 148.11 174.435 148.128 174.419 148.144C174.407 148.156 174.391 148.162 174.371 148.162H173.681C173.661 148.162 173.643 148.156 173.627 148.144C173.615 148.128 173.609 148.11 173.609 148.09V147.982C173.609 147.838 173.559 147.718 173.459 147.622C173.359 147.526 173.223 147.478 173.051 147.478C172.907 147.478 172.793 147.516 172.709 147.592C172.629 147.664 172.589 147.766 172.589 147.898C172.589 147.99 172.613 148.07 172.661 148.138C172.709 148.206 172.783 148.272 172.883 148.336C172.983 148.396 173.135 148.476 173.339 148.576L173.465 148.648C173.697 148.776 173.877 148.888 174.005 148.984C174.137 149.076 174.247 149.194 174.335 149.338C174.423 149.482 174.467 149.656 174.467 149.86C174.467 150.224 174.343 150.514 174.095 150.73C173.851 150.942 173.525 151.048 173.117 151.048Z" fill="#B1B4C5"/>
<path d="M179.845 226.219L116.773 173.296C116.209 172.823 115.368 172.896 114.895 173.46L114.894 173.461C114.421 174.025 114.495 174.866 115.059 175.339L178.13 228.262C178.694 228.735 179.535 228.662 180.008 228.098L180.009 228.097C180.482 227.533 180.409 226.692 179.845 226.219Z" fill="#B1B4C5"/>
<path fill-rule="evenodd" clip-rule="evenodd" d="M180.262 219.62L180.825 227.688C180.872 228.363 180.372 228.953 179.697 229.018C179.539 229.033 179.38 229.016 179.229 228.969C179.078 228.921 178.937 228.844 178.817 228.742C178.696 228.639 178.597 228.514 178.525 228.372C178.454 228.231 178.411 228.077 178.4 227.919L177.838 219.85C177.815 219.525 177.92 219.204 178.131 218.956C178.342 218.707 178.641 218.551 178.966 218.52C179.123 218.505 179.283 218.522 179.434 218.569C179.585 218.617 179.725 218.694 179.846 218.797C179.967 218.899 180.066 219.025 180.137 219.166C180.209 219.308 180.251 219.462 180.262 219.62V219.62Z" fill="#B1B4C5"/>
<path fill-rule="evenodd" clip-rule="evenodd" d="M171.511 227.391L179.555 226.544C179.713 226.527 179.872 226.542 180.024 226.588C180.175 226.634 180.316 226.71 180.438 226.811C180.56 226.912 180.66 227.037 180.733 227.178C180.806 227.318 180.85 227.472 180.862 227.63C180.916 228.305 180.422 228.902 179.748 228.972L171.704 229.82C171.547 229.836 171.388 229.821 171.236 229.775C171.084 229.729 170.943 229.653 170.822 229.552C170.7 229.451 170.599 229.326 170.526 229.186C170.454 229.045 170.41 228.891 170.397 228.733C170.371 228.408 170.473 228.086 170.681 227.836C170.889 227.585 171.187 227.426 171.511 227.391V227.391Z" fill="#B1B4C5"/>
<path d="M149.407 190.456C149.163 190.747 148.881 190.89 148.563 190.884C148.25 190.877 147.945 190.749 147.647 190.499L146.618 189.636C146.602 189.623 146.593 189.607 146.588 189.587C146.589 189.567 146.596 189.549 146.609 189.534L149.216 186.427C149.229 186.412 149.244 186.403 149.261 186.402C149.283 186.4 149.302 186.405 149.318 186.418L150.278 187.224C150.606 187.499 150.799 187.786 150.856 188.085C150.916 188.381 150.821 188.677 150.572 188.974C150.317 189.278 150.015 189.398 149.666 189.335C149.643 189.331 149.634 189.339 149.639 189.358C149.78 189.738 149.702 190.104 149.407 190.456ZM149.467 187.491C149.451 187.478 149.437 187.479 149.424 187.495L148.819 188.216C148.806 188.232 148.807 188.246 148.823 188.259L149.172 188.552C149.295 188.655 149.419 188.702 149.546 188.694C149.673 188.685 149.787 188.621 149.887 188.502C149.99 188.379 150.035 188.255 150.021 188.128C150.01 188.004 149.942 187.89 149.816 187.784L149.467 187.491ZM148.09 189.916C148.213 190.018 148.337 190.063 148.464 190.049C148.596 190.035 148.718 189.961 148.828 189.83C148.939 189.698 148.99 189.566 148.981 189.433C148.978 189.3 148.915 189.182 148.792 189.079L148.406 188.755C148.391 188.742 148.377 188.743 148.364 188.759L147.701 189.549C147.688 189.565 147.689 189.579 147.704 189.592L148.09 189.916ZM153.3 190.614C153.287 190.629 153.27 190.638 153.247 190.64C153.23 190.641 153.214 190.635 153.199 190.623L151.967 189.589C151.952 189.576 151.937 189.577 151.925 189.593L151.323 190.31C151.31 190.325 151.311 190.339 151.327 190.352L152.094 190.996C152.11 191.009 152.117 191.025 152.116 191.045C152.12 191.065 152.116 191.082 152.103 191.097L151.729 191.543C151.716 191.559 151.698 191.567 151.676 191.569C151.659 191.571 151.643 191.565 151.628 191.552L150.86 190.908C150.845 190.895 150.831 190.896 150.818 190.912L150.197 191.652C150.184 191.667 150.185 191.681 150.2 191.694L151.432 192.728C151.448 192.74 151.455 192.757 151.454 192.777C151.458 192.796 151.454 192.814 151.441 192.829L151.067 193.275C151.054 193.29 151.037 193.299 151.014 193.301C150.997 193.302 150.981 193.297 150.966 193.284L149.118 191.733C149.103 191.721 149.093 191.704 149.088 191.685C149.089 191.665 149.096 191.647 149.109 191.632L151.716 188.525C151.729 188.51 151.744 188.501 151.761 188.5C151.783 188.498 151.802 188.503 151.818 188.516L153.665 190.066C153.681 190.079 153.688 190.096 153.687 190.116C153.691 190.135 153.687 190.153 153.674 190.168L153.3 190.614ZM153.147 195.114C153.113 195.086 153.105 195.052 153.121 195.014L153.393 194.475C153.4 194.46 153.398 194.448 153.386 194.437L152.526 193.716C152.514 193.706 152.501 193.705 152.488 193.715L152.004 194.077C151.969 194.1 151.936 194.098 151.906 194.073L151.35 193.606C151.31 193.573 151.311 193.54 151.354 193.508L154.792 191.09C154.827 191.067 154.861 191.07 154.895 191.098L155.562 191.658C155.595 191.686 155.604 191.719 155.587 191.757L153.804 195.563L153.793 195.586C153.77 195.613 153.741 195.613 153.708 195.585L153.147 195.114ZM153.071 193.272C153.06 193.279 153.055 193.288 153.056 193.299C153.06 193.307 153.065 193.314 153.071 193.319L153.677 193.828C153.684 193.833 153.691 193.837 153.7 193.839C153.711 193.838 153.719 193.832 153.724 193.82L154.525 192.221C154.532 192.206 154.533 192.196 154.526 192.191C154.52 192.186 154.511 192.188 154.497 192.198L153.071 193.272ZM158.461 194.091C158.477 194.104 158.484 194.12 158.483 194.14C158.487 194.159 158.483 194.177 158.47 194.192L158.092 194.643C158.079 194.658 158.062 194.667 158.039 194.669C158.022 194.67 158.006 194.664 157.991 194.651L157.292 194.065C157.277 194.052 157.263 194.054 157.25 194.069L155.086 196.647C155.073 196.663 155.056 196.671 155.033 196.673C155.016 196.675 155 196.669 154.985 196.656L154.447 196.205C154.432 196.192 154.422 196.176 154.417 196.157C154.418 196.137 154.425 196.119 154.438 196.104L156.602 193.525C156.615 193.51 156.613 193.496 156.598 193.483L155.923 192.916C155.907 192.903 155.897 192.887 155.893 192.867C155.894 192.847 155.901 192.83 155.914 192.815L156.292 192.364C156.304 192.349 156.319 192.34 156.336 192.339C156.359 192.337 156.378 192.342 156.393 192.355L158.461 194.091ZM157.102 198.496C156.891 198.318 156.737 198.126 156.639 197.919C156.544 197.709 156.508 197.499 156.533 197.289C156.563 197.079 156.652 196.886 156.801 196.708L156.902 196.588C156.914 196.573 156.929 196.565 156.946 196.563C156.969 196.561 156.988 196.567 157.003 196.58L157.532 197.023C157.547 197.036 157.554 197.052 157.553 197.072C157.557 197.092 157.553 197.109 157.54 197.125L157.467 197.212C157.377 197.319 157.341 197.443 157.359 197.583C157.38 197.721 157.457 197.846 157.592 197.959C157.712 198.059 157.828 198.105 157.94 198.095C158.056 198.087 158.154 198.036 158.234 197.941C158.293 197.871 158.323 197.794 158.324 197.712C158.328 197.626 158.311 197.531 158.274 197.427C158.242 197.322 158.183 197.168 158.097 196.965C157.99 196.719 157.912 196.507 157.863 196.33C157.813 196.152 157.8 195.966 157.822 195.771C157.845 195.576 157.931 195.39 158.08 195.212C158.229 195.034 158.4 194.914 158.594 194.852C158.793 194.789 158.998 194.787 159.211 194.845C159.426 194.9 159.631 195.01 159.827 195.174C160.032 195.346 160.181 195.539 160.274 195.753C160.369 195.963 160.402 196.176 160.372 196.391C160.343 196.607 160.251 196.806 160.097 196.99L160.02 197.082C160.007 197.098 159.989 197.106 159.967 197.108C159.95 197.11 159.934 197.104 159.918 197.091L159.39 196.648C159.374 196.635 159.364 196.619 159.36 196.599C159.361 196.579 159.368 196.561 159.381 196.546L159.45 196.463C159.543 196.353 159.582 196.229 159.567 196.091C159.552 195.953 159.478 195.829 159.347 195.719C159.236 195.626 159.125 195.582 159.011 195.586C158.904 195.59 158.808 195.642 158.723 195.743C158.664 195.814 158.631 195.891 158.624 195.974C158.617 196.057 158.631 196.155 158.666 196.268C158.705 196.378 158.77 196.537 158.862 196.745L158.912 196.881C159.007 197.128 159.073 197.33 159.109 197.486C159.151 197.641 159.16 197.802 159.135 197.969C159.11 198.136 159.031 198.297 158.9 198.454C158.666 198.732 158.385 198.875 158.056 198.881C157.733 198.886 157.415 198.758 157.102 198.496Z" fill="#B1B4C5"/>
<path d="M217.987 174.335L154.916 227.258C154.352 227.731 154.278 228.572 154.751 229.136L154.752 229.137C155.225 229.701 156.066 229.774 156.63 229.301L219.701 176.378C220.265 175.904 220.339 175.064 219.866 174.5L219.865 174.499C219.392 173.935 218.551 173.861 217.987 174.335Z" fill="#B1B4C5"/>
<path fill-rule="evenodd" clip-rule="evenodd" d="M211.559 172.777L219.602 173.624C220.275 173.695 220.769 174.29 220.716 174.966C220.704 175.124 220.66 175.278 220.587 175.418C220.514 175.559 220.413 175.684 220.291 175.785C220.169 175.886 220.028 175.962 219.877 176.008C219.725 176.053 219.566 176.068 219.408 176.052L211.365 175.205C211.041 175.171 210.743 175.011 210.535 174.761C210.327 174.51 210.225 174.188 210.251 173.863C210.263 173.705 210.308 173.551 210.381 173.411C210.454 173.27 210.554 173.145 210.676 173.044C210.798 172.943 210.939 172.867 211.09 172.821C211.242 172.776 211.401 172.76 211.559 172.777V172.777Z" fill="#B1B4C5"/>
<path fill-rule="evenodd" clip-rule="evenodd" d="M217.694 182.746L218.255 174.677C218.266 174.519 218.309 174.365 218.381 174.223C218.452 174.082 218.551 173.956 218.672 173.854C218.793 173.751 218.933 173.674 219.084 173.627C219.236 173.58 219.395 173.563 219.553 173.578C220.227 173.643 220.728 174.232 220.68 174.908L220.119 182.977C220.108 183.135 220.065 183.289 219.993 183.431C219.922 183.572 219.823 183.698 219.702 183.8C219.581 183.902 219.441 183.98 219.29 184.027C219.138 184.074 218.979 184.091 218.821 184.076C218.497 184.045 218.198 183.889 217.987 183.64C217.776 183.392 217.671 183.071 217.694 182.746V182.746Z" fill="#B1B4C5"/>
<path d="M177.481 198.1C177.725 198.392 177.817 198.693 177.755 199.006C177.695 199.313 177.515 199.591 177.218 199.841L176.189 200.704C176.173 200.717 176.156 200.724 176.136 200.725C176.116 200.721 176.1 200.711 176.087 200.696L173.48 197.589C173.467 197.573 173.462 197.557 173.463 197.54C173.465 197.518 173.474 197.5 173.489 197.487L174.45 196.681C174.777 196.406 175.093 196.266 175.398 196.261C175.699 196.254 175.975 196.399 176.224 196.696C176.479 196.999 176.545 197.317 176.422 197.65C176.414 197.672 176.42 197.683 176.44 197.681C176.839 197.608 177.186 197.748 177.481 198.1ZM174.572 197.526C174.556 197.539 174.555 197.553 174.568 197.569L175.173 198.29C175.186 198.306 175.2 198.307 175.216 198.294L175.565 198.001C175.687 197.898 175.756 197.783 175.77 197.657C175.784 197.53 175.74 197.407 175.64 197.288C175.537 197.165 175.422 197.1 175.295 197.091C175.171 197.081 175.046 197.128 174.921 197.233L174.572 197.526ZM176.72 199.303C176.843 199.2 176.908 199.085 176.916 198.958C176.925 198.825 176.874 198.693 176.764 198.561C176.653 198.43 176.532 198.357 176.4 198.342C176.268 198.322 176.141 198.364 176.018 198.466L175.632 198.79C175.617 198.803 175.616 198.817 175.628 198.833L176.292 199.623C176.305 199.639 176.319 199.64 176.334 199.627L176.72 199.303ZM178.312 194.294C178.325 194.309 178.331 194.328 178.329 194.35C178.327 194.367 178.319 194.382 178.303 194.395L177.072 195.429C177.056 195.441 177.055 195.456 177.068 195.471L177.67 196.188C177.682 196.203 177.697 196.204 177.712 196.192L178.479 195.547C178.495 195.535 178.512 195.53 178.532 195.535C178.552 195.534 178.568 195.541 178.581 195.556L178.955 196.002C178.968 196.018 178.973 196.036 178.971 196.059C178.97 196.076 178.961 196.091 178.946 196.104L178.179 196.748C178.163 196.761 178.162 196.775 178.175 196.79L178.796 197.53C178.809 197.545 178.823 197.547 178.838 197.534L180.07 196.5C180.085 196.487 180.103 196.483 180.122 196.488C180.142 196.487 180.158 196.494 180.171 196.509L180.545 196.955C180.558 196.97 180.564 196.989 180.562 197.012C180.56 197.028 180.552 197.043 180.537 197.056L178.689 198.607C178.673 198.619 178.656 198.626 178.636 198.628C178.616 198.623 178.6 198.613 178.587 198.598L175.98 195.491C175.967 195.475 175.962 195.459 175.963 195.442C175.965 195.42 175.974 195.402 175.989 195.389L177.837 193.839C177.852 193.826 177.87 193.822 177.889 193.826C177.909 193.825 177.925 193.832 177.938 193.848L178.312 194.294ZM182.718 195.226C182.684 195.254 182.65 195.257 182.615 195.234L182.131 194.872C182.118 194.863 182.105 194.863 182.093 194.873L181.233 195.594C181.221 195.605 181.218 195.617 181.226 195.632L181.498 196.171C181.514 196.21 181.507 196.242 181.477 196.267L180.921 196.734C180.881 196.767 180.849 196.76 180.824 196.713L179.041 192.907C179.024 192.869 179.033 192.835 179.067 192.807L179.733 192.248C179.767 192.219 179.801 192.217 179.836 192.24L183.274 194.657L183.294 194.672C183.317 194.699 183.312 194.727 183.278 194.755L182.718 195.226ZM180.891 194.981C180.895 194.993 180.903 194.999 180.915 195C180.923 194.998 180.931 194.994 180.937 194.989L181.544 194.48C181.55 194.475 181.555 194.468 181.558 194.46C181.559 194.449 181.554 194.44 181.543 194.433L180.108 193.367C180.095 193.357 180.085 193.355 180.079 193.36C180.073 193.365 180.073 193.375 180.08 193.39L180.891 194.981ZM182.633 189.814C182.648 189.802 182.666 189.797 182.685 189.802C182.705 189.801 182.721 189.808 182.734 189.823L183.112 190.274C183.125 190.289 183.131 190.308 183.129 190.331C183.127 190.347 183.119 190.362 183.103 190.375L182.405 190.961C182.389 190.974 182.388 190.988 182.401 191.004L184.565 193.582C184.577 193.598 184.583 193.616 184.581 193.639C184.579 193.656 184.571 193.671 184.556 193.684L184.018 194.135C184.003 194.148 183.985 194.155 183.965 194.156C183.946 194.151 183.929 194.141 183.917 194.126L181.753 191.548C181.74 191.532 181.726 191.531 181.711 191.544L181.035 192.111C181.02 192.124 181.002 192.131 180.982 192.132C180.963 192.127 180.946 192.117 180.934 192.102L180.556 191.651C180.543 191.636 180.537 191.62 180.539 191.603C180.541 191.581 180.549 191.563 180.564 191.55L182.633 189.814ZM186.735 191.918C186.524 192.095 186.307 192.214 186.086 192.274C185.863 192.331 185.65 192.33 185.448 192.269C185.246 192.203 185.071 192.082 184.922 191.904L184.822 191.784C184.809 191.769 184.803 191.753 184.805 191.736C184.807 191.713 184.815 191.696 184.831 191.683L185.359 191.239C185.375 191.227 185.392 191.222 185.411 191.227C185.431 191.226 185.448 191.233 185.461 191.248L185.534 191.336C185.624 191.443 185.74 191.5 185.881 191.506C186.02 191.51 186.157 191.455 186.291 191.342C186.411 191.242 186.476 191.135 186.485 191.023C186.498 190.907 186.465 190.802 186.385 190.707C186.326 190.637 186.256 190.594 186.175 190.578C186.092 190.56 185.995 190.56 185.885 190.578C185.776 190.592 185.615 190.623 185.4 190.672C185.139 190.735 184.917 190.775 184.734 190.793C184.551 190.811 184.365 190.792 184.177 190.736C183.989 190.679 183.82 190.562 183.671 190.385C183.522 190.207 183.433 190.018 183.405 189.816C183.378 189.61 183.411 189.407 183.505 189.208C183.597 189.005 183.741 188.822 183.937 188.658C184.142 188.485 184.358 188.372 184.584 188.318C184.808 188.261 185.023 188.266 185.23 188.332C185.437 188.398 185.618 188.524 185.772 188.707L185.849 188.799C185.862 188.815 185.868 188.834 185.866 188.856C185.864 188.873 185.856 188.888 185.841 188.901L185.312 189.344C185.297 189.357 185.279 189.364 185.259 189.365C185.24 189.361 185.223 189.351 185.211 189.335L185.141 189.253C185.049 189.142 184.933 189.083 184.795 189.073C184.657 189.064 184.522 189.115 184.39 189.225C184.279 189.318 184.217 189.42 184.201 189.532C184.186 189.639 184.221 189.743 184.306 189.844C184.365 189.914 184.435 189.96 184.515 189.982C184.596 190.003 184.695 190.006 184.813 189.991C184.928 189.972 185.096 189.936 185.316 189.881L185.459 189.855C185.719 189.804 185.929 189.774 186.089 189.766C186.249 189.751 186.409 189.771 186.569 189.825C186.729 189.879 186.874 189.984 187.006 190.14C187.24 190.419 187.331 190.721 187.28 191.045C187.229 191.365 187.048 191.655 186.735 191.918Z" fill="#B1B4C5"/>
<path d="M184.761 127.505L212.921 204.873C213.173 205.565 213.938 205.922 214.63 205.67L214.631 205.67C215.322 205.418 215.679 204.653 215.427 203.961L187.267 126.593C187.016 125.901 186.251 125.544 185.559 125.796L185.558 125.796C184.866 126.048 184.509 126.813 184.761 127.505Z" fill="#B1B4C5"/>
<path fill-rule="evenodd" clip-rule="evenodd" d="M181.1 133.011L184.647 125.743C184.943 125.134 185.671 124.874 186.289 125.155C186.433 125.22 186.562 125.314 186.669 125.431C186.776 125.548 186.859 125.685 186.913 125.834C186.966 125.983 186.989 126.142 186.98 126.3C186.971 126.458 186.931 126.613 186.861 126.755L183.315 134.024C183.172 134.316 182.92 134.542 182.613 134.652C182.306 134.761 181.969 134.747 181.673 134.612C181.529 134.546 181.399 134.452 181.292 134.335C181.185 134.218 181.102 134.081 181.049 133.932C180.995 133.783 180.972 133.625 180.981 133.466C180.99 133.308 181.03 133.153 181.1 133.011V133.011Z" fill="#B1B4C5"/>
<path fill-rule="evenodd" clip-rule="evenodd" d="M192.565 130.656L185.175 127.369C185.03 127.304 184.9 127.211 184.791 127.096C184.683 126.98 184.599 126.844 184.544 126.696C184.489 126.547 184.464 126.389 184.472 126.23C184.479 126.072 184.518 125.917 184.586 125.774C184.877 125.162 185.603 124.893 186.221 125.169L193.612 128.457C193.756 128.521 193.887 128.614 193.995 128.73C194.103 128.845 194.187 128.981 194.242 129.13C194.297 129.279 194.322 129.437 194.315 129.595C194.307 129.753 194.269 129.908 194.201 130.051C194.061 130.346 193.811 130.574 193.506 130.687C193.2 130.8 192.863 130.789 192.565 130.656V130.656Z" fill="#B1B4C5"/>
<path d="M192.898 172.755C193.255 172.625 193.57 172.643 193.843 172.807C194.111 172.97 194.311 173.233 194.444 173.598L194.903 174.861C194.91 174.879 194.911 174.898 194.905 174.918C194.894 174.934 194.879 174.946 194.86 174.953L191.049 176.34C191.03 176.347 191.013 176.347 190.998 176.34C190.977 176.33 190.963 176.316 190.956 176.297L190.528 175.119C190.381 174.717 190.358 174.372 190.458 174.084C190.554 173.798 190.784 173.589 191.148 173.456C191.521 173.321 191.842 173.368 192.113 173.597C192.131 173.612 192.143 173.609 192.149 173.59C192.216 173.191 192.466 172.913 192.898 172.755ZM191.364 175.293C191.371 175.312 191.383 175.318 191.402 175.311L192.287 174.989C192.306 174.982 192.312 174.969 192.305 174.951L192.149 174.522C192.095 174.372 192.01 174.268 191.896 174.212C191.782 174.156 191.651 174.154 191.505 174.208C191.355 174.262 191.254 174.348 191.203 174.465C191.15 174.577 191.152 174.711 191.208 174.865L191.364 175.293ZM193.768 173.882C193.713 173.732 193.628 173.631 193.511 173.58C193.389 173.526 193.248 173.529 193.086 173.587C192.924 173.646 192.814 173.735 192.756 173.855C192.692 173.971 192.687 174.105 192.742 174.255L192.914 174.729C192.921 174.748 192.934 174.754 192.953 174.747L193.922 174.394C193.941 174.387 193.947 174.374 193.94 174.356L193.768 173.882ZM189.605 170.672C189.624 170.666 189.644 170.667 189.664 170.677C189.68 170.684 189.691 170.697 189.698 170.715L190.247 172.227C190.254 172.245 190.267 172.251 190.286 172.244L191.165 171.924C191.184 171.917 191.19 171.905 191.183 171.886L190.841 170.944C190.834 170.925 190.836 170.908 190.847 170.891C190.853 170.872 190.865 170.859 190.884 170.852L191.431 170.653C191.449 170.646 191.469 170.647 191.49 170.657C191.505 170.664 191.516 170.677 191.523 170.696L191.866 171.638C191.872 171.656 191.885 171.662 191.904 171.655L192.812 171.325C192.831 171.318 192.837 171.305 192.83 171.287L192.28 169.776C192.273 169.757 192.275 169.739 192.286 169.722C192.292 169.703 192.304 169.69 192.323 169.683L192.87 169.484C192.889 169.477 192.908 169.479 192.929 169.488C192.944 169.496 192.955 169.509 192.962 169.527L193.787 171.794C193.794 171.813 193.794 171.832 193.789 171.851C193.778 171.867 193.763 171.879 193.744 171.886L189.933 173.273C189.914 173.28 189.897 173.28 189.881 173.273C189.861 173.263 189.847 173.249 189.84 173.23L189.015 170.964C189.008 170.945 189.011 170.927 189.021 170.91C189.027 170.891 189.04 170.878 189.058 170.872L189.605 170.672ZM191.988 166.852C192.003 166.893 191.994 166.926 191.961 166.951L191.455 167.282C191.442 167.291 191.437 167.303 191.443 167.318L191.827 168.373C191.832 168.388 191.843 168.394 191.859 168.393L192.459 168.321C192.501 168.319 192.529 168.336 192.542 168.374L192.791 169.056C192.808 169.105 192.791 169.133 192.738 169.139L188.551 169.514C188.51 169.516 188.481 169.497 188.466 169.455L188.169 168.638C188.154 168.596 188.163 168.563 188.196 168.538L191.644 166.134L191.664 166.12C191.698 166.108 191.723 166.122 191.738 166.164L191.988 166.852ZM191.133 168.485C191.146 168.484 191.154 168.479 191.159 168.469C191.16 168.46 191.159 168.452 191.157 168.444L190.886 167.7C190.883 167.692 190.878 167.686 190.872 167.679C190.862 167.675 190.852 167.676 190.842 167.684L189.348 168.668C189.335 168.677 189.329 168.686 189.332 168.693C189.335 168.701 189.344 168.704 189.361 168.702L191.133 168.485ZM186.874 165.081C186.867 165.062 186.869 165.044 186.88 165.027C186.886 165.008 186.898 164.995 186.917 164.988L187.47 164.787C187.488 164.78 187.508 164.782 187.529 164.791C187.544 164.798 187.555 164.811 187.562 164.83L187.874 165.687C187.881 165.706 187.893 165.712 187.912 165.705L191.075 164.554C191.094 164.547 191.114 164.548 191.134 164.558C191.15 164.565 191.161 164.578 191.168 164.597L191.408 165.257C191.414 165.275 191.415 165.294 191.409 165.314C191.398 165.33 191.383 165.342 191.365 165.349L188.202 166.5C188.183 166.507 188.177 166.52 188.184 166.539L188.485 167.367C188.492 167.386 188.493 167.405 188.487 167.424C188.476 167.441 188.461 167.453 188.442 167.46L187.89 167.661C187.871 167.668 187.854 167.667 187.838 167.66C187.818 167.651 187.804 167.637 187.797 167.618L186.874 165.081ZM190.253 161.945C190.348 162.204 190.385 162.448 190.366 162.677C190.344 162.906 190.269 163.106 190.144 163.275C190.013 163.442 189.838 163.565 189.62 163.644L189.474 163.697C189.455 163.704 189.438 163.704 189.422 163.697C189.402 163.687 189.388 163.673 189.381 163.654L189.145 163.006C189.139 162.987 189.141 162.969 189.152 162.953C189.157 162.934 189.17 162.921 189.188 162.914L189.296 162.875C189.427 162.827 189.52 162.738 189.575 162.607C189.626 162.478 189.621 162.331 189.561 162.165C189.508 162.019 189.43 161.921 189.327 161.874C189.223 161.822 189.113 161.817 188.996 161.86C188.91 161.891 188.846 161.942 188.803 162.013C188.757 162.085 188.724 162.176 188.704 162.285C188.679 162.392 188.654 162.555 188.627 162.773C188.596 163.04 188.558 163.262 188.512 163.441C188.466 163.619 188.385 163.787 188.268 163.945C188.15 164.102 187.983 164.221 187.765 164.3C187.547 164.38 187.339 164.398 187.14 164.355C186.936 164.31 186.757 164.209 186.602 164.053C186.444 163.898 186.32 163.7 186.233 163.459C186.141 163.208 186.109 162.966 186.135 162.735C186.158 162.506 186.236 162.305 186.369 162.133C186.503 161.961 186.682 161.834 186.907 161.752L187.02 161.711C187.039 161.704 187.059 161.705 187.079 161.715C187.095 161.722 187.106 161.735 187.113 161.754L187.349 162.402C187.355 162.421 187.356 162.44 187.35 162.459C187.339 162.476 187.324 162.488 187.305 162.494L187.204 162.531C187.069 162.581 186.973 162.669 186.917 162.795C186.861 162.922 186.862 163.066 186.921 163.228C186.971 163.363 187.045 163.458 187.145 163.51C187.24 163.561 187.35 163.564 187.474 163.519C187.56 163.487 187.627 163.437 187.675 163.369C187.722 163.3 187.759 163.208 187.785 163.093C187.807 162.978 187.83 162.808 187.855 162.582L187.879 162.439C187.92 162.177 187.964 161.97 188.01 161.817C188.051 161.661 188.125 161.517 188.23 161.385C188.335 161.253 188.484 161.153 188.675 161.083C189.017 160.958 189.332 160.976 189.62 161.135C189.903 161.292 190.114 161.562 190.253 161.945Z" fill="#B1B4C5"/>
<path d="M123.63 203.356L151.79 125.987C152.042 125.295 151.685 124.53 150.993 124.278L150.993 124.278C150.301 124.026 149.536 124.383 149.284 125.075L121.124 202.443C120.872 203.135 121.229 203.9 121.921 204.152L121.922 204.152C122.614 204.404 123.378 204.047 123.63 203.356Z" fill="#B1B4C5"/>
<path fill-rule="evenodd" clip-rule="evenodd" d="M129.974 201.491L122.585 204.779C121.967 205.054 121.242 204.786 120.949 204.174C120.881 204.031 120.842 203.875 120.835 203.717C120.828 203.559 120.853 203.401 120.908 203.252C120.963 203.104 121.047 202.967 121.155 202.852C121.264 202.736 121.394 202.644 121.539 202.579L128.928 199.291C129.226 199.159 129.564 199.148 129.869 199.261C130.175 199.374 130.424 199.602 130.564 199.896C130.632 200.039 130.671 200.195 130.678 200.353C130.685 200.511 130.66 200.669 130.605 200.818C130.55 200.966 130.466 201.103 130.358 201.218C130.249 201.334 130.119 201.426 129.974 201.491V201.491Z" fill="#B1B4C5"/>
<path fill-rule="evenodd" clip-rule="evenodd" d="M119.678 195.925L123.226 203.193C123.295 203.336 123.336 203.491 123.344 203.649C123.353 203.807 123.33 203.965 123.276 204.115C123.223 204.264 123.14 204.401 123.033 204.517C122.926 204.634 122.796 204.728 122.652 204.794C122.036 205.075 121.307 204.815 121.01 204.206L117.462 196.937C117.393 196.794 117.352 196.64 117.344 196.481C117.335 196.323 117.358 196.165 117.412 196.016C117.465 195.867 117.548 195.73 117.655 195.613C117.762 195.496 117.892 195.402 118.036 195.337C118.332 195.201 118.67 195.187 118.977 195.297C119.283 195.406 119.535 195.632 119.678 195.925V195.925Z" fill="#B1B4C5"/>
<path d="M147.511 160.642C147.154 160.512 146.924 160.296 146.82 159.994C146.72 159.698 146.736 159.368 146.868 159.003L147.328 157.74C147.335 157.721 147.347 157.706 147.363 157.696C147.383 157.69 147.402 157.69 147.42 157.697L151.232 159.084C151.251 159.091 151.264 159.102 151.271 159.118C151.28 159.138 151.282 159.158 151.275 159.177L150.846 160.355C150.699 160.757 150.496 161.036 150.235 161.192C149.977 161.35 149.666 161.362 149.302 161.23C148.93 161.094 148.713 160.852 148.653 160.502C148.649 160.479 148.638 160.473 148.622 160.484C148.313 160.746 147.943 160.799 147.511 160.642ZM150.318 159.684C150.324 159.665 150.318 159.652 150.3 159.645L149.414 159.323C149.396 159.316 149.383 159.322 149.376 159.341L149.22 159.77C149.165 159.92 149.164 160.053 149.215 160.17C149.266 160.287 149.365 160.371 149.512 160.425C149.662 160.48 149.794 160.479 149.908 160.422C150.021 160.37 150.106 160.266 150.162 160.112L150.318 159.684ZM147.569 159.22C147.514 159.37 147.515 159.502 147.571 159.616C147.63 159.736 147.74 159.825 147.902 159.884C148.063 159.942 148.205 159.945 148.327 159.891C148.451 159.843 148.54 159.743 148.595 159.593L148.767 159.119C148.774 159.101 148.768 159.088 148.749 159.081L147.779 158.728C147.761 158.721 147.748 158.727 147.741 158.746L147.569 159.22ZM148.694 164.354C148.676 164.347 148.661 164.333 148.652 164.313C148.645 164.298 148.645 164.28 148.651 164.262L149.201 162.751C149.208 162.732 149.202 162.719 149.183 162.712L148.304 162.392C148.285 162.385 148.272 162.391 148.265 162.41L147.923 163.352C147.916 163.37 147.903 163.383 147.884 163.388C147.867 163.399 147.849 163.401 147.83 163.395L147.284 163.196C147.265 163.189 147.251 163.175 147.241 163.155C147.234 163.139 147.234 163.122 147.24 163.103L147.583 162.162C147.59 162.143 147.584 162.13 147.565 162.123L146.658 161.793C146.639 161.786 146.626 161.792 146.619 161.811L146.069 163.322C146.062 163.341 146.049 163.353 146.03 163.359C146.013 163.37 145.996 163.372 145.977 163.365L145.43 163.166C145.411 163.159 145.397 163.145 145.387 163.125C145.38 163.109 145.38 163.092 145.387 163.074L146.212 160.807C146.219 160.788 146.23 160.773 146.247 160.762C146.266 160.757 146.285 160.757 146.304 160.764L150.116 162.151C150.134 162.158 150.147 162.169 150.154 162.185C150.164 162.205 150.165 162.225 150.159 162.243L149.334 164.51C149.327 164.529 149.314 164.541 149.295 164.547C149.278 164.558 149.26 164.56 149.241 164.553L148.694 164.354ZM144.413 165.749C144.428 165.708 144.456 165.688 144.498 165.691L145.098 165.762C145.114 165.764 145.125 165.757 145.131 165.742L145.514 164.688C145.52 164.673 145.516 164.661 145.502 164.651L144.997 164.321C144.963 164.296 144.953 164.264 144.967 164.227L145.215 163.545C145.233 163.496 145.264 163.486 145.309 163.515L148.757 165.919C148.79 165.944 148.8 165.977 148.785 166.019L148.487 166.836C148.472 166.877 148.444 166.897 148.402 166.894L144.215 166.52L144.191 166.517C144.157 166.505 144.148 166.478 144.163 166.437L144.413 165.749ZM146.118 165.048C146.108 165.04 146.098 165.038 146.087 165.043C146.081 165.049 146.076 165.056 146.074 165.064L145.803 165.808C145.8 165.816 145.799 165.824 145.8 165.833C145.805 165.843 145.814 165.848 145.826 165.848L147.603 166.055C147.619 166.056 147.629 166.053 147.632 166.046C147.634 166.038 147.629 166.03 147.615 166.021L146.118 165.048ZM147.192 170.393C147.185 170.412 147.172 170.424 147.153 170.43C147.137 170.441 147.119 170.443 147.1 170.436L146.547 170.235C146.529 170.228 146.514 170.215 146.505 170.194C146.498 170.179 146.498 170.162 146.504 170.143L146.816 169.286C146.823 169.267 146.817 169.254 146.798 169.247L143.635 168.096C143.617 168.089 143.602 168.076 143.593 168.055C143.586 168.04 143.586 168.023 143.592 168.004L143.832 167.344C143.839 167.325 143.851 167.311 143.868 167.3C143.887 167.294 143.906 167.294 143.925 167.301L147.088 168.452C147.107 168.459 147.119 168.453 147.126 168.434L147.428 167.606C147.435 167.587 147.447 167.572 147.463 167.561C147.482 167.555 147.501 167.556 147.52 167.563L148.073 167.764C148.091 167.771 148.104 167.782 148.112 167.797C148.121 167.818 148.123 167.837 148.116 167.856L147.192 170.393ZM142.588 170.623C142.682 170.364 142.81 170.153 142.972 169.99C143.137 169.829 143.322 169.724 143.527 169.675C143.734 169.631 143.947 169.649 144.165 169.728L144.312 169.782C144.33 169.789 144.343 169.8 144.351 169.815C144.36 169.836 144.362 169.855 144.355 169.874L144.119 170.522C144.112 170.541 144.099 170.554 144.08 170.559C144.063 170.57 144.045 170.572 144.026 170.565L143.919 170.526C143.788 170.479 143.659 170.487 143.533 170.552C143.411 170.618 143.32 170.734 143.26 170.899C143.207 171.046 143.204 171.171 143.252 171.273C143.298 171.379 143.38 171.454 143.496 171.496C143.583 171.528 143.665 171.53 143.743 171.503C143.824 171.477 143.908 171.429 143.993 171.358C144.081 171.292 144.206 171.184 144.367 171.034C144.562 170.85 144.734 170.704 144.884 170.596C145.033 170.489 145.204 170.413 145.395 170.367C145.586 170.322 145.79 170.339 146.008 170.418C146.226 170.498 146.398 170.618 146.522 170.778C146.649 170.943 146.722 171.136 146.74 171.355C146.762 171.576 146.729 171.807 146.641 172.047C146.55 172.299 146.419 172.505 146.251 172.665C146.085 172.826 145.897 172.93 145.684 172.976C145.471 173.022 145.252 173.004 145.027 172.922L144.914 172.881C144.895 172.874 144.881 172.86 144.872 172.84C144.864 172.824 144.864 172.807 144.871 172.788L145.107 172.14C145.114 172.121 145.126 172.106 145.142 172.095C145.162 172.09 145.181 172.09 145.199 172.097L145.301 172.134C145.436 172.183 145.566 172.177 145.69 172.116C145.815 172.055 145.906 171.944 145.965 171.782C146.015 171.647 146.018 171.526 145.975 171.422C145.935 171.322 145.853 171.249 145.729 171.204C145.642 171.173 145.559 171.168 145.478 171.19C145.398 171.212 145.311 171.259 145.217 171.331C145.126 171.404 144.999 171.52 144.835 171.677L144.724 171.771C144.525 171.945 144.358 172.076 144.224 172.163C144.092 172.256 143.944 172.319 143.778 172.352C143.613 172.386 143.434 172.368 143.243 172.298C142.901 172.173 142.671 171.958 142.552 171.651C142.437 171.349 142.448 171.006 142.588 170.623Z" fill="#B1B4C5"/>
<path d="M257.599 61.866C257.599 62.5627 257.372 63.0943 256.917 63.461C256.47 63.8203 255.89 64 255.179 64H252.715C252.678 64 252.645 63.989 252.616 63.967C252.594 63.9377 252.583 63.9047 252.583 63.868V56.432C252.583 56.3953 252.594 56.366 252.616 56.344C252.645 56.3147 252.678 56.3 252.715 56.3H255.014C255.799 56.3 256.407 56.476 256.84 56.828C257.273 57.1727 257.489 57.7007 257.489 58.412C257.489 59.138 257.207 59.6623 256.642 59.985C256.605 60.007 256.602 60.029 256.631 60.051C257.276 60.4177 257.599 61.0227 257.599 61.866ZM254.189 57.631C254.152 57.631 254.134 57.6493 254.134 57.686V59.413C254.134 59.4497 254.152 59.468 254.189 59.468H255.025C255.318 59.468 255.549 59.3873 255.718 59.226C255.887 59.0647 255.971 58.841 255.971 58.555C255.971 58.2617 255.887 58.0343 255.718 57.873C255.557 57.7117 255.326 57.631 255.025 57.631H254.189ZM255.113 62.658C255.406 62.658 255.634 62.5737 255.795 62.405C255.964 62.229 256.048 61.9833 256.048 61.668C256.048 61.3527 255.964 61.107 255.795 60.931C255.634 60.7477 255.406 60.656 255.113 60.656H254.189C254.152 60.656 254.134 60.6743 254.134 60.711V62.603C254.134 62.6397 254.152 62.658 254.189 62.658H255.113ZM263.252 57.499C263.252 57.5357 263.238 57.5687 263.208 57.598C263.186 57.62 263.157 57.631 263.12 57.631H260.172C260.136 57.631 260.117 57.6493 260.117 57.686V59.402C260.117 59.4387 260.136 59.457 260.172 59.457H262.009C262.046 59.457 262.075 59.4717 262.097 59.501C262.127 59.523 262.141 59.5523 262.141 59.589V60.656C262.141 60.6927 262.127 60.7257 262.097 60.755C262.075 60.777 262.046 60.788 262.009 60.788H260.172C260.136 60.788 260.117 60.8063 260.117 60.843V62.614C260.117 62.6507 260.136 62.669 260.172 62.669H263.12C263.157 62.669 263.186 62.6837 263.208 62.713C263.238 62.735 263.252 62.7643 263.252 62.801V63.868C263.252 63.9047 263.238 63.9377 263.208 63.967C263.186 63.989 263.157 64 263.12 64H258.698C258.662 64 258.629 63.989 258.599 63.967C258.577 63.9377 258.566 63.9047 258.566 63.868V56.432C258.566 56.3953 258.577 56.366 258.599 56.344C258.629 56.3147 258.662 56.3 258.698 56.3H263.12C263.157 56.3 263.186 56.3147 263.208 56.344C263.238 56.366 263.252 56.3953 263.252 56.432V57.499ZM268.341 64C268.26 64 268.209 63.9633 268.187 63.89L267.934 62.812C267.926 62.7827 267.908 62.768 267.879 62.768H265.822C265.792 62.768 265.774 62.7827 265.767 62.812L265.514 63.89C265.492 63.9633 265.444 64 265.371 64H264.04C263.944 64 263.908 63.9523 263.93 63.857L265.91 56.41C265.932 56.3367 265.983 56.3 266.064 56.3H267.659C267.739 56.3 267.791 56.3367 267.813 56.41L269.793 63.857L269.804 63.901C269.804 63.967 269.763 64 269.683 64H268.341ZM266.064 61.503C266.056 61.525 266.06 61.5433 266.075 61.558C266.089 61.5653 266.104 61.569 266.119 61.569H267.571C267.585 61.569 267.6 61.5653 267.615 61.558C267.629 61.5433 267.633 61.525 267.626 61.503L266.867 58.313C266.859 58.2837 266.848 58.269 266.834 58.269C266.819 58.269 266.808 58.2837 266.801 58.313L266.064 61.503ZM274.598 56.3C274.635 56.3 274.664 56.3147 274.686 56.344C274.716 56.366 274.73 56.3953 274.73 56.432V57.51C274.73 57.5467 274.716 57.5797 274.686 57.609C274.664 57.631 274.635 57.642 274.598 57.642H272.926C272.89 57.642 272.871 57.6603 272.871 57.697V63.868C272.871 63.9047 272.857 63.9377 272.827 63.967C272.805 63.989 272.776 64 272.739 64H271.452C271.416 64 271.383 63.989 271.353 63.967C271.331 63.9377 271.32 63.9047 271.32 63.868V57.697C271.32 57.6603 271.302 57.642 271.265 57.642H269.648C269.612 57.642 269.579 57.631 269.549 57.609C269.527 57.5797 269.516 57.5467 269.516 57.51V56.432C269.516 56.3953 269.527 56.366 269.549 56.344C269.579 56.3147 269.612 56.3 269.648 56.3H274.598ZM277.881 64.088C277.375 64.088 276.932 64 276.55 63.824C276.169 63.6407 275.872 63.3877 275.659 63.065C275.454 62.735 275.351 62.3573 275.351 61.932V61.646C275.351 61.6093 275.362 61.58 275.384 61.558C275.414 61.5287 275.447 61.514 275.483 61.514H276.748C276.785 61.514 276.814 61.5287 276.836 61.558C276.866 61.58 276.88 61.6093 276.88 61.646V61.855C276.88 62.1117 276.976 62.328 277.166 62.504C277.357 62.6727 277.614 62.757 277.936 62.757C278.222 62.757 278.439 62.6837 278.585 62.537C278.739 62.3903 278.816 62.2033 278.816 61.976C278.816 61.8073 278.769 61.6643 278.673 61.547C278.578 61.4223 278.442 61.3087 278.266 61.206C278.098 61.096 277.834 60.9493 277.474 60.766C277.034 60.546 276.675 60.3407 276.396 60.15C276.118 59.9593 275.879 59.7137 275.681 59.413C275.483 59.1123 275.384 58.7493 275.384 58.324C275.384 57.8987 275.483 57.5283 275.681 57.213C275.887 56.8903 276.173 56.6447 276.539 56.476C276.906 56.3 277.324 56.212 277.793 56.212C278.285 56.212 278.721 56.3073 279.102 56.498C279.484 56.6813 279.781 56.9417 279.993 57.279C280.206 57.6163 280.312 58.005 280.312 58.445V58.665C280.312 58.7017 280.298 58.7347 280.268 58.764C280.246 58.786 280.217 58.797 280.18 58.797H278.915C278.879 58.797 278.846 58.786 278.816 58.764C278.794 58.7347 278.783 58.7017 278.783 58.665V58.467C278.783 58.203 278.692 57.983 278.508 57.807C278.325 57.631 278.076 57.543 277.76 57.543C277.496 57.543 277.287 57.6127 277.133 57.752C276.987 57.884 276.913 58.071 276.913 58.313C276.913 58.4817 276.957 58.6283 277.045 58.753C277.133 58.8777 277.269 58.9987 277.452 59.116C277.636 59.226 277.914 59.3727 278.288 59.556L278.519 59.688C278.945 59.9227 279.275 60.128 279.509 60.304C279.751 60.4727 279.953 60.689 280.114 60.953C280.276 61.217 280.356 61.536 280.356 61.91C280.356 62.5773 280.129 63.109 279.674 63.505C279.227 63.8937 278.629 64.088 277.881 64.088Z" fill="#B1B4C5"/>
<path d="M60.599 61.866C60.599 62.5627 60.3717 63.0943 59.917 63.461C59.4697 63.8203 58.8903 64 58.179 64H55.715C55.6783 64 55.6453 63.989 55.616 63.967C55.594 63.9377 55.583 63.9047 55.583 63.868V56.432C55.583 56.3953 55.594 56.366 55.616 56.344C55.6453 56.3147 55.6783 56.3 55.715 56.3H58.014C58.7987 56.3 59.4073 56.476 59.84 56.828C60.2727 57.1727 60.489 57.7007 60.489 58.412C60.489 59.138 60.2067 59.6623 59.642 59.985C59.6053 60.007 59.6017 60.029 59.631 60.051C60.2763 60.4177 60.599 61.0227 60.599 61.866ZM57.189 57.631C57.1523 57.631 57.134 57.6493 57.134 57.686V59.413C57.134 59.4497 57.1523 59.468 57.189 59.468H58.025C58.3183 59.468 58.5493 59.3873 58.718 59.226C58.8867 59.0647 58.971 58.841 58.971 58.555C58.971 58.2617 58.8867 58.0343 58.718 57.873C58.5567 57.7117 58.3257 57.631 58.025 57.631H57.189ZM58.113 62.658C58.4063 62.658 58.6337 62.5737 58.795 62.405C58.9637 62.229 59.048 61.9833 59.048 61.668C59.048 61.3527 58.9637 61.107 58.795 60.931C58.6337 60.7477 58.4063 60.656 58.113 60.656H57.189C57.1523 60.656 57.134 60.6743 57.134 60.711V62.603C57.134 62.6397 57.1523 62.658 57.189 62.658H58.113ZM66.2524 57.499C66.2524 57.5357 66.2377 57.5687 66.2084 57.598C66.1864 57.62 66.1571 57.631 66.1204 57.631H63.1724C63.1357 57.631 63.1174 57.6493 63.1174 57.686V59.402C63.1174 59.4387 63.1357 59.457 63.1724 59.457H65.0094C65.0461 59.457 65.0754 59.4717 65.0974 59.501C65.1267 59.523 65.1414 59.5523 65.1414 59.589V60.656C65.1414 60.6927 65.1267 60.7257 65.0974 60.755C65.0754 60.777 65.0461 60.788 65.0094 60.788H63.1724C63.1357 60.788 63.1174 60.8063 63.1174 60.843V62.614C63.1174 62.6507 63.1357 62.669 63.1724 62.669H66.1204C66.1571 62.669 66.1864 62.6837 66.2084 62.713C66.2377 62.735 66.2524 62.7643 66.2524 62.801V63.868C66.2524 63.9047 66.2377 63.9377 66.2084 63.967C66.1864 63.989 66.1571 64 66.1204 64H61.6984C61.6617 64 61.6287 63.989 61.5994 63.967C61.5774 63.9377 61.5664 63.9047 61.5664 63.868V56.432C61.5664 56.3953 61.5774 56.366 61.5994 56.344C61.6287 56.3147 61.6617 56.3 61.6984 56.3H66.1204C66.1571 56.3 66.1864 56.3147 66.2084 56.344C66.2377 56.366 66.2524 56.3953 66.2524 56.432V57.499ZM71.3405 64C71.2598 64 71.2085 63.9633 71.1865 63.89L70.9335 62.812C70.9262 62.7827 70.9078 62.768 70.8785 62.768H68.8215C68.7922 62.768 68.7738 62.7827 68.7665 62.812L68.5135 63.89C68.4915 63.9633 68.4438 64 68.3705 64H67.0395C66.9442 64 66.9075 63.9523 66.9295 63.857L68.9095 56.41C68.9315 56.3367 68.9828 56.3 69.0635 56.3H70.6585C70.7392 56.3 70.7905 56.3367 70.8125 56.41L72.7925 63.857L72.8035 63.901C72.8035 63.967 72.7632 64 72.6825 64H71.3405ZM69.0635 61.503C69.0562 61.525 69.0598 61.5433 69.0745 61.558C69.0892 61.5653 69.1038 61.569 69.1185 61.569H70.5705C70.5852 61.569 70.5998 61.5653 70.6145 61.558C70.6292 61.5433 70.6328 61.525 70.6255 61.503L69.8665 58.313C69.8592 58.2837 69.8482 58.269 69.8335 58.269C69.8188 58.269 69.8078 58.2837 69.8005 58.313L69.0635 61.503ZM77.5985 56.3C77.6351 56.3 77.6645 56.3147 77.6865 56.344C77.7158 56.366 77.7305 56.3953 77.7305 56.432V57.51C77.7305 57.5467 77.7158 57.5797 77.6865 57.609C77.6645 57.631 77.6351 57.642 77.5985 57.642H75.9265C75.8898 57.642 75.8715 57.6603 75.8715 57.697V63.868C75.8715 63.9047 75.8568 63.9377 75.8275 63.967C75.8055 63.989 75.7761 64 75.7395 64H74.4525C74.4158 64 74.3828 63.989 74.3535 63.967C74.3315 63.9377 74.3205 63.9047 74.3205 63.868V57.697C74.3205 57.6603 74.3021 57.642 74.2655 57.642H72.6485C72.6118 57.642 72.5788 57.631 72.5495 57.609C72.5275 57.5797 72.5165 57.5467 72.5165 57.51V56.432C72.5165 56.3953 72.5275 56.366 72.5495 56.344C72.5788 56.3147 72.6118 56.3 72.6485 56.3H77.5985ZM80.8813 64.088C80.3753 64.088 79.9316 64 79.5503 63.824C79.1689 63.6407 78.8719 63.3877 78.6593 63.065C78.4539 62.735 78.3513 62.3573 78.3513 61.932V61.646C78.3513 61.6093 78.3623 61.58 78.3843 61.558C78.4136 61.5287 78.4466 61.514 78.4833 61.514H79.7483C79.7849 61.514 79.8143 61.5287 79.8363 61.558C79.8656 61.58 79.8803 61.6093 79.8803 61.646V61.855C79.8803 62.1117 79.9756 62.328 80.1663 62.504C80.3569 62.6727 80.6136 62.757 80.9363 62.757C81.2223 62.757 81.4386 62.6837 81.5853 62.537C81.7393 62.3903 81.8163 62.2033 81.8163 61.976C81.8163 61.8073 81.7686 61.6643 81.6733 61.547C81.5779 61.4223 81.4423 61.3087 81.2663 61.206C81.0976 61.096 80.8336 60.9493 80.4743 60.766C80.0343 60.546 79.6749 60.3407 79.3963 60.15C79.1176 59.9593 78.8793 59.7137 78.6813 59.413C78.4833 59.1123 78.3843 58.7493 78.3843 58.324C78.3843 57.8987 78.4833 57.5283 78.6813 57.213C78.8866 56.8903 79.1726 56.6447 79.5393 56.476C79.9059 56.3 80.3239 56.212 80.7933 56.212C81.2846 56.212 81.7209 56.3073 82.1023 56.498C82.4836 56.6813 82.7806 56.9417 82.9933 57.279C83.2059 57.6163 83.3123 58.005 83.3123 58.445V58.665C83.3123 58.7017 83.2976 58.7347 83.2683 58.764C83.2463 58.786 83.2169 58.797 83.1803 58.797H81.9153C81.8786 58.797 81.8456 58.786 81.8163 58.764C81.7943 58.7347 81.7833 58.7017 81.7833 58.665V58.467C81.7833 58.203 81.6916 57.983 81.5083 57.807C81.3249 57.631 81.0756 57.543 80.7603 57.543C80.4963 57.543 80.2873 57.6127 80.1333 57.752C79.9866 57.884 79.9133 58.071 79.9133 58.313C79.9133 58.4817 79.9573 58.6283 80.0453 58.753C80.1333 58.8777 80.2689 58.9987 80.4523 59.116C80.6356 59.226 80.9143 59.3727 81.2883 59.556L81.5193 59.688C81.9446 59.9227 82.2746 60.128 82.5093 60.304C82.7513 60.4727 82.9529 60.689 83.1143 60.953C83.2756 61.217 83.3563 61.536 83.3563 61.91C83.3563 62.5773 83.1289 63.109 82.6743 63.505C82.2269 63.8937 81.6293 64.088 80.8813 64.088Z" fill="#B1B4C5"/>
<path d="M310.599 222.866C310.599 223.563 310.372 224.094 309.917 224.461C309.47 224.82 308.89 225 308.179 225H305.715C305.678 225 305.645 224.989 305.616 224.967C305.594 224.938 305.583 224.905 305.583 224.868V217.432C305.583 217.395 305.594 217.366 305.616 217.344C305.645 217.315 305.678 217.3 305.715 217.3H308.014C308.799 217.3 309.407 217.476 309.84 217.828C310.273 218.173 310.489 218.701 310.489 219.412C310.489 220.138 310.207 220.662 309.642 220.985C309.605 221.007 309.602 221.029 309.631 221.051C310.276 221.418 310.599 222.023 310.599 222.866ZM307.189 218.631C307.152 218.631 307.134 218.649 307.134 218.686V220.413C307.134 220.45 307.152 220.468 307.189 220.468H308.025C308.318 220.468 308.549 220.387 308.718 220.226C308.887 220.065 308.971 219.841 308.971 219.555C308.971 219.262 308.887 219.034 308.718 218.873C308.557 218.712 308.326 218.631 308.025 218.631H307.189ZM308.113 223.658C308.406 223.658 308.634 223.574 308.795 223.405C308.964 223.229 309.048 222.983 309.048 222.668C309.048 222.353 308.964 222.107 308.795 221.931C308.634 221.748 308.406 221.656 308.113 221.656H307.189C307.152 221.656 307.134 221.674 307.134 221.711V223.603C307.134 223.64 307.152 223.658 307.189 223.658H308.113ZM316.252 218.499C316.252 218.536 316.238 218.569 316.208 218.598C316.186 218.62 316.157 218.631 316.12 218.631H313.172C313.136 218.631 313.117 218.649 313.117 218.686V220.402C313.117 220.439 313.136 220.457 313.172 220.457H315.009C315.046 220.457 315.075 220.472 315.097 220.501C315.127 220.523 315.141 220.552 315.141 220.589V221.656C315.141 221.693 315.127 221.726 315.097 221.755C315.075 221.777 315.046 221.788 315.009 221.788H313.172C313.136 221.788 313.117 221.806 313.117 221.843V223.614C313.117 223.651 313.136 223.669 313.172 223.669H316.12C316.157 223.669 316.186 223.684 316.208 223.713C316.238 223.735 316.252 223.764 316.252 223.801V224.868C316.252 224.905 316.238 224.938 316.208 224.967C316.186 224.989 316.157 225 316.12 225H311.698C311.662 225 311.629 224.989 311.599 224.967C311.577 224.938 311.566 224.905 311.566 224.868V217.432C311.566 217.395 311.577 217.366 311.599 217.344C311.629 217.315 311.662 217.3 311.698 217.3H316.12C316.157 217.3 316.186 217.315 316.208 217.344C316.238 217.366 316.252 217.395 316.252 217.432V218.499ZM321.341 225C321.26 225 321.209 224.963 321.187 224.89L320.934 223.812C320.926 223.783 320.908 223.768 320.879 223.768H318.822C318.792 223.768 318.774 223.783 318.767 223.812L318.514 224.89C318.492 224.963 318.444 225 318.371 225H317.04C316.944 225 316.908 224.952 316.93 224.857L318.91 217.41C318.932 217.337 318.983 217.3 319.064 217.3H320.659C320.739 217.3 320.791 217.337 320.813 217.41L322.793 224.857L322.804 224.901C322.804 224.967 322.763 225 322.683 225H321.341ZM319.064 222.503C319.056 222.525 319.06 222.543 319.075 222.558C319.089 222.565 319.104 222.569 319.119 222.569H320.571C320.585 222.569 320.6 222.565 320.615 222.558C320.629 222.543 320.633 222.525 320.626 222.503L319.867 219.313C319.859 219.284 319.848 219.269 319.834 219.269C319.819 219.269 319.808 219.284 319.801 219.313L319.064 222.503ZM327.598 217.3C327.635 217.3 327.664 217.315 327.686 217.344C327.716 217.366 327.73 217.395 327.73 217.432V218.51C327.73 218.547 327.716 218.58 327.686 218.609C327.664 218.631 327.635 218.642 327.598 218.642H325.926C325.89 218.642 325.871 218.66 325.871 218.697V224.868C325.871 224.905 325.857 224.938 325.827 224.967C325.805 224.989 325.776 225 325.739 225H324.452C324.416 225 324.383 224.989 324.353 224.967C324.331 224.938 324.32 224.905 324.32 224.868V218.697C324.32 218.66 324.302 218.642 324.265 218.642H322.648C322.612 218.642 322.579 218.631 322.549 218.609C322.527 218.58 322.516 218.547 322.516 218.51V217.432C322.516 217.395 322.527 217.366 322.549 217.344C322.579 217.315 322.612 217.3 322.648 217.3H327.598ZM330.881 225.088C330.375 225.088 329.932 225 329.55 224.824C329.169 224.641 328.872 224.388 328.659 224.065C328.454 223.735 328.351 223.357 328.351 222.932V222.646C328.351 222.609 328.362 222.58 328.384 222.558C328.414 222.529 328.447 222.514 328.483 222.514H329.748C329.785 222.514 329.814 222.529 329.836 222.558C329.866 222.58 329.88 222.609 329.88 222.646V222.855C329.88 223.112 329.976 223.328 330.166 223.504C330.357 223.673 330.614 223.757 330.936 223.757C331.222 223.757 331.439 223.684 331.585 223.537C331.739 223.39 331.816 223.203 331.816 222.976C331.816 222.807 331.769 222.664 331.673 222.547C331.578 222.422 331.442 222.309 331.266 222.206C331.098 222.096 330.834 221.949 330.474 221.766C330.034 221.546 329.675 221.341 329.396 221.15C329.118 220.959 328.879 220.714 328.681 220.413C328.483 220.112 328.384 219.749 328.384 219.324C328.384 218.899 328.483 218.528 328.681 218.213C328.887 217.89 329.173 217.645 329.539 217.476C329.906 217.3 330.324 217.212 330.793 217.212C331.285 217.212 331.721 217.307 332.102 217.498C332.484 217.681 332.781 217.942 332.993 218.279C333.206 218.616 333.312 219.005 333.312 219.445V219.665C333.312 219.702 333.298 219.735 333.268 219.764C333.246 219.786 333.217 219.797 333.18 219.797H331.915C331.879 219.797 331.846 219.786 331.816 219.764C331.794 219.735 331.783 219.702 331.783 219.665V219.467C331.783 219.203 331.692 218.983 331.508 218.807C331.325 218.631 331.076 218.543 330.76 218.543C330.496 218.543 330.287 218.613 330.133 218.752C329.987 218.884 329.913 219.071 329.913 219.313C329.913 219.482 329.957 219.628 330.045 219.753C330.133 219.878 330.269 219.999 330.452 220.116C330.636 220.226 330.914 220.373 331.288 220.556L331.519 220.688C331.945 220.923 332.275 221.128 332.509 221.304C332.751 221.473 332.953 221.689 333.114 221.953C333.276 222.217 333.356 222.536 333.356 222.91C333.356 223.577 333.129 224.109 332.674 224.505C332.227 224.894 331.629 225.088 330.881 225.088Z" fill="#B1B4C5"/>
<path d="M6.599 222.866C6.599 223.563 6.37167 224.094 5.917 224.461C5.46967 224.82 4.89033 225 4.179 225H1.715C1.67833 225 1.64533 224.989 1.616 224.967C1.594 224.938 1.583 224.905 1.583 224.868V217.432C1.583 217.395 1.594 217.366 1.616 217.344C1.64533 217.315 1.67833 217.3 1.715 217.3H4.014C4.79867 217.3 5.40733 217.476 5.84 217.828C6.27267 218.173 6.489 218.701 6.489 219.412C6.489 220.138 6.20667 220.662 5.642 220.985C5.60533 221.007 5.60167 221.029 5.631 221.051C6.27633 221.418 6.599 222.023 6.599 222.866ZM3.189 218.631C3.15233 218.631 3.134 218.649 3.134 218.686V220.413C3.134 220.45 3.15233 220.468 3.189 220.468H4.025C4.31833 220.468 4.54933 220.387 4.718 220.226C4.88667 220.065 4.971 219.841 4.971 219.555C4.971 219.262 4.88667 219.034 4.718 218.873C4.55667 218.712 4.32567 218.631 4.025 218.631H3.189ZM4.113 223.658C4.40633 223.658 4.63367 223.574 4.795 223.405C4.96367 223.229 5.048 222.983 5.048 222.668C5.048 222.353 4.96367 222.107 4.795 221.931C4.63367 221.748 4.40633 221.656 4.113 221.656H3.189C3.15233 221.656 3.134 221.674 3.134 221.711V223.603C3.134 223.64 3.15233 223.658 3.189 223.658H4.113ZM12.2524 218.499C12.2524 218.536 12.2377 218.569 12.2084 218.598C12.1864 218.62 12.1571 218.631 12.1204 218.631H9.1724C9.13573 218.631 9.1174 218.649 9.1174 218.686V220.402C9.1174 220.439 9.13573 220.457 9.1724 220.457H11.0094C11.0461 220.457 11.0754 220.472 11.0974 220.501C11.1267 220.523 11.1414 220.552 11.1414 220.589V221.656C11.1414 221.693 11.1267 221.726 11.0974 221.755C11.0754 221.777 11.0461 221.788 11.0094 221.788H9.1724C9.13573 221.788 9.1174 221.806 9.1174 221.843V223.614C9.1174 223.651 9.13573 223.669 9.1724 223.669H12.1204C12.1571 223.669 12.1864 223.684 12.2084 223.713C12.2377 223.735 12.2524 223.764 12.2524 223.801V224.868C12.2524 224.905 12.2377 224.938 12.2084 224.967C12.1864 224.989 12.1571 225 12.1204 225H7.6984C7.66173 225 7.62873 224.989 7.5994 224.967C7.5774 224.938 7.5664 224.905 7.5664 224.868V217.432C7.5664 217.395 7.5774 217.366 7.5994 217.344C7.62873 217.315 7.66173 217.3 7.6984 217.3H12.1204C12.1571 217.3 12.1864 217.315 12.2084 217.344C12.2377 217.366 12.2524 217.395 12.2524 217.432V218.499ZM17.3405 225C17.2598 225 17.2085 224.963 17.1865 224.89L16.9335 223.812C16.9262 223.783 16.9078 223.768 16.8785 223.768H14.8215C14.7922 223.768 14.7738 223.783 14.7665 223.812L14.5135 224.89C14.4915 224.963 14.4438 225 14.3705 225H13.0395C12.9442 225 12.9075 224.952 12.9295 224.857L14.9095 217.41C14.9315 217.337 14.9828 217.3 15.0635 217.3H16.6585C16.7392 217.3 16.7905 217.337 16.8125 217.41L18.7925 224.857L18.8035 224.901C18.8035 224.967 18.7632 225 18.6825 225H17.3405ZM15.0635 222.503C15.0562 222.525 15.0598 222.543 15.0745 222.558C15.0892 222.565 15.1038 222.569 15.1185 222.569H16.5705C16.5852 222.569 16.5998 222.565 16.6145 222.558C16.6292 222.543 16.6328 222.525 16.6255 222.503L15.8665 219.313C15.8592 219.284 15.8482 219.269 15.8335 219.269C15.8188 219.269 15.8078 219.284 15.8005 219.313L15.0635 222.503ZM23.5985 217.3C23.6351 217.3 23.6645 217.315 23.6865 217.344C23.7158 217.366 23.7305 217.395 23.7305 217.432V218.51C23.7305 218.547 23.7158 218.58 23.6865 218.609C23.6645 218.631 23.6351 218.642 23.5985 218.642H21.9265C21.8898 218.642 21.8715 218.66 21.8715 218.697V224.868C21.8715 224.905 21.8568 224.938 21.8275 224.967C21.8055 224.989 21.7761 225 21.7395 225H20.4525C20.4158 225 20.3828 224.989 20.3535 224.967C20.3315 224.938 20.3205 224.905 20.3205 224.868V218.697C20.3205 218.66 20.3021 218.642 20.2655 218.642H18.6485C18.6118 218.642 18.5788 218.631 18.5495 218.609C18.5275 218.58 18.5165 218.547 18.5165 218.51V217.432C18.5165 217.395 18.5275 217.366 18.5495 217.344C18.5788 217.315 18.6118 217.3 18.6485 217.3H23.5985ZM26.8813 225.088C26.3753 225.088 25.9316 225 25.5503 224.824C25.1689 224.641 24.8719 224.388 24.6593 224.065C24.4539 223.735 24.3513 223.357 24.3513 222.932V222.646C24.3513 222.609 24.3623 222.58 24.3843 222.558C24.4136 222.529 24.4466 222.514 24.4833 222.514H25.7483C25.7849 222.514 25.8143 222.529 25.8363 222.558C25.8656 222.58 25.8803 222.609 25.8803 222.646V222.855C25.8803 223.112 25.9756 223.328 26.1663 223.504C26.3569 223.673 26.6136 223.757 26.9363 223.757C27.2223 223.757 27.4386 223.684 27.5853 223.537C27.7393 223.39 27.8163 223.203 27.8163 222.976C27.8163 222.807 27.7686 222.664 27.6733 222.547C27.5779 222.422 27.4423 222.309 27.2663 222.206C27.0976 222.096 26.8336 221.949 26.4743 221.766C26.0343 221.546 25.6749 221.341 25.3963 221.15C25.1176 220.959 24.8793 220.714 24.6813 220.413C24.4833 220.112 24.3843 219.749 24.3843 219.324C24.3843 218.899 24.4833 218.528 24.6813 218.213C24.8866 217.89 25.1726 217.645 25.5393 217.476C25.9059 217.3 26.3239 217.212 26.7933 217.212C27.2846 217.212 27.7209 217.307 28.1023 217.498C28.4836 217.681 28.7806 217.942 28.9933 218.279C29.2059 218.616 29.3123 219.005 29.3123 219.445V219.665C29.3123 219.702 29.2976 219.735 29.2683 219.764C29.2463 219.786 29.2169 219.797 29.1803 219.797H27.9153C27.8786 219.797 27.8456 219.786 27.8163 219.764C27.7943 219.735 27.7833 219.702 27.7833 219.665V219.467C27.7833 219.203 27.6916 218.983 27.5083 218.807C27.3249 218.631 27.0756 218.543 26.7603 218.543C26.4963 218.543 26.2873 218.613 26.1333 218.752C25.9866 218.884 25.9133 219.071 25.9133 219.313C25.9133 219.482 25.9573 219.628 26.0453 219.753C26.1333 219.878 26.2689 219.999 26.4523 220.116C26.6356 220.226 26.9143 220.373 27.2883 220.556L27.5193 220.688C27.9446 220.923 28.2746 221.128 28.5093 221.304C28.7513 221.473 28.9529 221.689 29.1143 221.953C29.2756 222.217 29.3563 222.536 29.3563 222.91C29.3563 223.577 29.1289 224.109 28.6743 224.505C28.2269 224.894 27.6293 225.088 26.8813 225.088Z" fill="#B1B4C5"/>
<path d="M159.599 325.866C159.599 326.563 159.372 327.094 158.917 327.461C158.47 327.82 157.89 328 157.179 328H154.715C154.678 328 154.645 327.989 154.616 327.967C154.594 327.938 154.583 327.905 154.583 327.868V320.432C154.583 320.395 154.594 320.366 154.616 320.344C154.645 320.315 154.678 320.3 154.715 320.3H157.014C157.799 320.3 158.407 320.476 158.84 320.828C159.273 321.173 159.489 321.701 159.489 322.412C159.489 323.138 159.207 323.662 158.642 323.985C158.605 324.007 158.602 324.029 158.631 324.051C159.276 324.418 159.599 325.023 159.599 325.866ZM156.189 321.631C156.152 321.631 156.134 321.649 156.134 321.686V323.413C156.134 323.45 156.152 323.468 156.189 323.468H157.025C157.318 323.468 157.549 323.387 157.718 323.226C157.887 323.065 157.971 322.841 157.971 322.555C157.971 322.262 157.887 322.034 157.718 321.873C157.557 321.712 157.326 321.631 157.025 321.631H156.189ZM157.113 326.658C157.406 326.658 157.634 326.574 157.795 326.405C157.964 326.229 158.048 325.983 158.048 325.668C158.048 325.353 157.964 325.107 157.795 324.931C157.634 324.748 157.406 324.656 157.113 324.656H156.189C156.152 324.656 156.134 324.674 156.134 324.711V326.603C156.134 326.64 156.152 326.658 156.189 326.658H157.113ZM165.252 321.499C165.252 321.536 165.238 321.569 165.208 321.598C165.186 321.62 165.157 321.631 165.12 321.631H162.172C162.136 321.631 162.117 321.649 162.117 321.686V323.402C162.117 323.439 162.136 323.457 162.172 323.457H164.009C164.046 323.457 164.075 323.472 164.097 323.501C164.127 323.523 164.141 323.552 164.141 323.589V324.656C164.141 324.693 164.127 324.726 164.097 324.755C164.075 324.777 164.046 324.788 164.009 324.788H162.172C162.136 324.788 162.117 324.806 162.117 324.843V326.614C162.117 326.651 162.136 326.669 162.172 326.669H165.12C165.157 326.669 165.186 326.684 165.208 326.713C165.238 326.735 165.252 326.764 165.252 326.801V327.868C165.252 327.905 165.238 327.938 165.208 327.967C165.186 327.989 165.157 328 165.12 328H160.698C160.662 328 160.629 327.989 160.599 327.967C160.577 327.938 160.566 327.905 160.566 327.868V320.432C160.566 320.395 160.577 320.366 160.599 320.344C160.629 320.315 160.662 320.3 160.698 320.3H165.12C165.157 320.3 165.186 320.315 165.208 320.344C165.238 320.366 165.252 320.395 165.252 320.432V321.499ZM170.341 328C170.26 328 170.209 327.963 170.187 327.89L169.934 326.812C169.926 326.783 169.908 326.768 169.879 326.768H167.822C167.792 326.768 167.774 326.783 167.767 326.812L167.514 327.89C167.492 327.963 167.444 328 167.371 328H166.04C165.944 328 165.908 327.952 165.93 327.857L167.91 320.41C167.932 320.337 167.983 320.3 168.064 320.3H169.659C169.739 320.3 169.791 320.337 169.813 320.41L171.793 327.857L171.804 327.901C171.804 327.967 171.763 328 171.683 328H170.341ZM168.064 325.503C168.056 325.525 168.06 325.543 168.075 325.558C168.089 325.565 168.104 325.569 168.119 325.569H169.571C169.585 325.569 169.6 325.565 169.615 325.558C169.629 325.543 169.633 325.525 169.626 325.503L168.867 322.313C168.859 322.284 168.848 322.269 168.834 322.269C168.819 322.269 168.808 322.284 168.801 322.313L168.064 325.503ZM176.598 320.3C176.635 320.3 176.664 320.315 176.686 320.344C176.716 320.366 176.73 320.395 176.73 320.432V321.51C176.73 321.547 176.716 321.58 176.686 321.609C176.664 321.631 176.635 321.642 176.598 321.642H174.926C174.89 321.642 174.871 321.66 174.871 321.697V327.868C174.871 327.905 174.857 327.938 174.827 327.967C174.805 327.989 174.776 328 174.739 328H173.452C173.416 328 173.383 327.989 173.353 327.967C173.331 327.938 173.32 327.905 173.32 327.868V321.697C173.32 321.66 173.302 321.642 173.265 321.642H171.648C171.612 321.642 171.579 321.631 171.549 321.609C171.527 321.58 171.516 321.547 171.516 321.51V320.432C171.516 320.395 171.527 320.366 171.549 320.344C171.579 320.315 171.612 320.3 171.648 320.3H176.598ZM179.881 328.088C179.375 328.088 178.932 328 178.55 327.824C178.169 327.641 177.872 327.388 177.659 327.065C177.454 326.735 177.351 326.357 177.351 325.932V325.646C177.351 325.609 177.362 325.58 177.384 325.558C177.414 325.529 177.447 325.514 177.483 325.514H178.748C178.785 325.514 178.814 325.529 178.836 325.558C178.866 325.58 178.88 325.609 178.88 325.646V325.855C178.88 326.112 178.976 326.328 179.166 326.504C179.357 326.673 179.614 326.757 179.936 326.757C180.222 326.757 180.439 326.684 180.585 326.537C180.739 326.39 180.816 326.203 180.816 325.976C180.816 325.807 180.769 325.664 180.673 325.547C180.578 325.422 180.442 325.309 180.266 325.206C180.098 325.096 179.834 324.949 179.474 324.766C179.034 324.546 178.675 324.341 178.396 324.15C178.118 323.959 177.879 323.714 177.681 323.413C177.483 323.112 177.384 322.749 177.384 322.324C177.384 321.899 177.483 321.528 177.681 321.213C177.887 320.89 178.173 320.645 178.539 320.476C178.906 320.3 179.324 320.212 179.793 320.212C180.285 320.212 180.721 320.307 181.102 320.498C181.484 320.681 181.781 320.942 181.993 321.279C182.206 321.616 182.312 322.005 182.312 322.445V322.665C182.312 322.702 182.298 322.735 182.268 322.764C182.246 322.786 182.217 322.797 182.18 322.797H180.915C180.879 322.797 180.846 322.786 180.816 322.764C180.794 322.735 180.783 322.702 180.783 322.665V322.467C180.783 322.203 180.692 321.983 180.508 321.807C180.325 321.631 180.076 321.543 179.76 321.543C179.496 321.543 179.287 321.613 179.133 321.752C178.987 321.884 178.913 322.071 178.913 322.313C178.913 322.482 178.957 322.628 179.045 322.753C179.133 322.878 179.269 322.999 179.452 323.116C179.636 323.226 179.914 323.373 180.288 323.556L180.519 323.688C180.945 323.923 181.275 324.128 181.509 324.304C181.751 324.473 181.953 324.689 182.114 324.953C182.276 325.217 182.356 325.536 182.356 325.91C182.356 326.577 182.129 327.109 181.674 327.505C181.227 327.894 180.629 328.088 179.881 328.088Z" fill="#B1B4C5"/>
<defs>
<linearGradient id="paint0_linear_798_279" x1="284.5" y1="92" x2="284.5" y2="192.344" gradientUnits="userSpaceOnUse">
<stop stop-color="white" stop-opacity="0.097"/>
<stop offset="1" stop-color="white" stop-opacity="0"/>
</linearGradient>
<linearGradient id="paint1_linear_798_279" x1="51.5" y1="92" x2="51.5" y2="192.344" gradientUnits="userSpaceOnUse">
<stop stop-color="white" stop-opacity="0.097"/>
<stop offset="1" stop-color="white" stop-opacity="0"/>
</linearGradient>
<linearGradient id="paint2_linear_798_279" x1="168.5" y1="0" x2="168.5" y2="100.344" gradientUnits="userSpaceOnUse">
<stop stop-color="white" stop-opacity="0.097"/>
<stop offset="1" stop-color="white" stop-opacity="0"/>
</linearGradient>
<linearGradient id="paint3_linear_798_279" x1="238.5" y1="225" x2="238.5" y2="325.344" gradientUnits="userSpaceOnUse">
<stop stop-color="white" stop-opacity="0.097"/>
<stop offset="1" stop-color="white" stop-opacity="0"/>
</linearGradient>
<linearGradient id="paint4_linear_798_279" x1="97.5" y1="225" x2="97.5" y2="325.344" gradientUnits="userSpaceOnUse">
<stop stop-color="white" stop-opacity="0.097"/>
<stop offset="1" stop-color="white" stop-opacity="0"/>
</linearGradient>
</defs>
</svg>
