<svg width="156" height="158" viewBox="0 0 156 158" fill="none" xmlns="http://www.w3.org/2000/svg">
<g filter="url(#filter0_d_788_202)">
<path d="M77.5714 152C118.204 152 151.143 118.421 151.143 77C151.143 35.5786 118.204 2 77.5714 2C36.9391 2 4 35.5786 4 77C4 118.421 36.9391 152 77.5714 152Z" fill="#6038AB"/>
<path d="M77.5714 145.349C118.204 145.349 151.143 113.259 151.143 73.6743C151.143 34.0897 118.204 2 77.5714 2C36.9391 2 4 34.0897 4 73.6743C4 113.259 36.9391 145.349 77.5714 145.349Z" fill="url(#paint0_linear_788_202)"/>
<g filter="url(#filter1_i_788_202)">
<path d="M77.6192 131.457C108.811 131.457 134.098 106.315 134.098 75.3C134.098 44.2852 108.811 19.1428 77.6192 19.1428C46.4269 19.1428 21.1406 44.2852 21.1406 75.3C21.1406 106.315 46.4269 131.457 77.6192 131.457Z" fill="#E7E7E7"/>
</g>
<path d="M96.3184 46.777C99.5956 44.7498 102.736 44.3113 105.161 45.5413C110.598 48.2984 109.811 58.5598 107.587 63.007C106.33 65.517 104.104 67.3498 100.963 68.4656C99.7456 72.3156 98.037 75.6241 95.8556 78.3613C97.3013 79.5678 99.1254 80.2272 101.008 80.2241H101.1L104.166 77.2013C104.539 76.8355 105.04 76.6306 105.563 76.6306C106.085 76.6306 106.587 76.8355 106.96 77.2013C107.143 77.3808 107.289 77.5952 107.388 77.8318C107.488 78.0684 107.539 78.3225 107.539 78.5791C107.539 78.8358 107.488 79.0898 107.388 79.3264C107.289 79.563 107.143 79.7774 106.96 79.957L106.688 80.2241H107.304C108.396 80.2241 109.28 81.0956 109.28 82.1727C109.28 83.2484 108.394 84.1198 107.304 84.1198H106.687L106.958 84.3884C107.142 84.568 107.287 84.7822 107.386 85.0187C107.486 85.2552 107.537 85.5091 107.537 85.7656C107.537 86.022 107.486 86.2759 107.386 86.5124C107.287 86.7489 107.142 86.9631 106.958 87.1427C106.573 87.5241 106.067 87.7141 105.561 87.7141C105.056 87.7141 104.55 87.5241 104.164 87.1427L101.098 84.1198H101.007C98.1317 84.1244 95.3502 83.0969 93.1684 81.2241C92.7475 81.6069 92.3125 81.9738 91.8642 82.3241C88.0784 85.2813 83.447 87.0027 78.0356 87.4727C78.7184 89.5227 78.8513 91.7441 78.3842 93.9113L78.3656 94.0013L80.7242 97.7127C81.0095 98.1612 81.1068 98.704 80.9951 99.2237C80.8833 99.7434 80.5715 100.198 80.127 100.49C79.9072 100.632 79.6615 100.729 79.404 100.775C79.1465 100.822 78.8823 100.817 78.6268 100.76C78.3713 100.704 78.1294 100.598 77.9151 100.448C77.7009 100.298 77.5185 100.107 77.3784 99.8856L77.1699 99.557L77.037 100.171C76.9825 100.427 76.8781 100.67 76.7297 100.886C76.5813 101.102 76.3919 101.287 76.1722 101.429C75.9526 101.572 75.7069 101.67 75.4494 101.717C75.1919 101.765 74.9275 101.761 74.6713 101.707C74.1532 101.59 73.7024 101.273 73.4173 100.825C73.1322 100.377 73.0361 99.8343 73.1499 99.3156L73.2827 98.7013L72.957 98.9127C72.0327 99.5127 70.8027 99.2427 70.2084 98.3084C69.9232 97.8597 69.8262 97.3168 69.9382 96.7971C70.0502 96.2774 70.3623 95.8226 70.807 95.5313L74.4784 93.1456L74.4984 93.0556C74.8977 91.2043 74.6417 89.2718 73.7742 87.5884C72.1457 87.541 70.521 87.4061 68.907 87.1841C64.1527 86.5413 61.457 88.6356 60.7442 89.2927C55.1442 94.4541 54.0599 103.576 54.0499 103.667C53.9951 104.156 53.7624 104.608 53.3959 104.937C53.0294 105.265 52.5549 105.447 52.0627 105.448C51.7362 105.448 51.4147 105.368 51.1264 105.215C50.838 105.062 50.5915 104.84 50.4084 104.57C50.3184 104.437 48.2113 101.291 47.287 96.8513C46.0313 90.8227 47.5284 85.2898 51.6156 80.8556C54.0409 78.2349 57.0942 76.2756 60.487 75.1627L60.0699 75.2713C58.9973 74.7724 57.8285 74.514 56.6456 74.5141H56.5542L53.477 77.537C53.0899 77.9184 52.5813 78.1084 52.0742 78.1084C51.567 78.1084 51.0599 77.9184 50.6713 77.537C50.4876 77.3577 50.3417 77.1435 50.242 76.907C50.1424 76.6705 50.091 76.4165 50.091 76.1598C50.091 75.9032 50.1424 75.6491 50.242 75.4126C50.3417 75.1761 50.4876 74.9619 50.6713 74.7827L50.9442 74.5141H50.3256C49.2299 74.5141 48.3413 73.6427 48.3413 72.567C48.3413 71.4898 49.2299 70.6184 50.3256 70.6184H50.9442L50.6727 70.3498C50.4891 70.1706 50.3431 69.9564 50.2434 69.7199C50.1438 69.4834 50.0925 69.2293 50.0925 68.9727C50.0925 68.7161 50.1438 68.462 50.2434 68.2255C50.3431 67.989 50.4891 67.7748 50.6727 67.5956C51.0478 67.2298 51.551 67.0252 52.0749 67.0252C52.5988 67.0252 53.1019 67.2298 53.477 67.5956L56.5542 70.6184H56.6456C59.9956 70.6184 63.1713 71.9898 65.4342 74.3941L65.2142 74.1684C67.0222 73.9883 68.845 74.0204 70.6456 74.2641C75.6642 74.9427 79.7684 74.2456 82.937 72.1841C81.1521 69.9754 80.1815 67.2197 80.1884 64.3798V64.287L77.1542 61.1584C76.7868 60.7749 76.5818 60.2644 76.5818 59.7334C76.5818 59.2024 76.7868 58.6919 77.1542 58.3084C77.3329 58.1217 77.5475 57.9732 77.7852 57.8717C78.0228 57.7702 78.2786 57.7178 78.537 57.7178C78.7954 57.7178 79.0512 57.7702 79.2889 57.8717C79.5265 57.9732 79.7412 58.1217 79.9199 58.3084L80.187 58.5856V57.957C80.187 56.8427 81.0627 55.9413 82.1442 55.9413C83.2227 55.9413 84.0984 56.8427 84.0984 57.9556V58.5856L84.367 58.3084C84.5457 58.1219 84.7603 57.9736 84.9978 57.8722C85.2353 57.7708 85.4909 57.7186 85.7492 57.7186C86.0074 57.7186 86.263 57.7708 86.5005 57.8722C86.7381 57.9736 86.9526 58.1219 87.1313 58.3084C88.2956 59.5084 87.4556 60.8256 87.1313 61.1598L84.0984 64.287V64.3798C84.0984 66.2827 84.7413 68.1027 85.897 69.5484C87.3284 67.837 88.4542 65.687 89.2684 63.0998C88.6727 61.4527 87.747 57.5541 90.1099 53.1313C91.347 50.8141 93.7256 48.3798 96.317 46.777H96.3184Z" fill="#3B4262"/>
</g>
<defs>
<filter id="filter0_d_788_202" x="0" y="0" width="155.143" height="158" filterUnits="userSpaceOnUse" color-interpolation-filters="sRGB">
<feFlood flood-opacity="0" result="BackgroundImageFix"/>
<feColorMatrix in="SourceAlpha" type="matrix" values="0 0 0 0 0 0 0 0 0 0 0 0 0 0 0 0 0 0 127 0" result="hardAlpha"/>
<feOffset dy="2"/>
<feGaussianBlur stdDeviation="2"/>
<feComposite in2="hardAlpha" operator="out"/>
<feColorMatrix type="matrix" values="0 0 0 0 0 0 0 0 0 0 0 0 0 0 0 0 0 0 0.25 0"/>
<feBlend mode="normal" in2="BackgroundImageFix" result="effect1_dropShadow_788_202"/>
<feBlend mode="normal" in="SourceGraphic" in2="effect1_dropShadow_788_202" result="shape"/>
</filter>
<filter id="filter1_i_788_202" x="21.1406" y="19.1428" width="112.957" height="112.314" filterUnits="userSpaceOnUse" color-interpolation-filters="sRGB">
<feFlood flood-opacity="0" result="BackgroundImageFix"/>
<feBlend mode="normal" in="SourceGraphic" in2="BackgroundImageFix" result="shape"/>
<feColorMatrix in="SourceAlpha" type="matrix" values="0 0 0 0 0 0 0 0 0 0 0 0 0 0 0 0 0 0 127 0" result="hardAlpha"/>
<feOffset dy="3.25"/>
<feComposite in2="hardAlpha" operator="arithmetic" k2="-1" k3="1"/>
<feColorMatrix type="matrix" values="0 0 0 0 0.72549 0 0 0 0 0.752941 0 0 0 0 0.854902 0 0 0 1 0"/>
<feBlend mode="normal" in2="shape" result="effect1_innerShadow_788_202"/>
</filter>
<linearGradient id="paint0_linear_788_202" x1="77.5714" y1="2" x2="77.5714" y2="145.349" gradientUnits="userSpaceOnUse">
<stop stop-color="#8C5DE5"/>
<stop offset="1" stop-color="#834FE3"/>
</linearGradient>
</defs>
</svg>
