<svg width="115" height="115" viewBox="0 0 115 115" fill="none" xmlns="http://www.w3.org/2000/svg">
<g filter="url(#filter0_d_795_261)">
<path d="M7.17205 19.824C7.21631 19.8248 7.26027 19.8165 7.3012 19.7996C7.34213 19.7828 7.37918 19.7577 7.41005 19.726C7.44178 19.6951 7.46684 19.6581 7.4837 19.6171C7.50055 19.5762 7.50884 19.5323 7.50805 19.488V11.844C7.50805 11.751 7.55505 11.704 7.64805 11.704H9.41205C9.46805 11.704 9.51505 11.741 9.55205 11.816L12.3801 19.544C12.4361 19.731 12.5671 19.824 12.7721 19.824H16.1881C16.3931 19.824 16.496 19.74 16.496 19.572C16.4977 19.5238 16.4881 19.4759 16.4681 19.432L13.2761 11.396C13.2391 11.303 13.2661 11.237 13.3601 11.2C14.2847 10.7949 15.0586 10.1092 15.5721 9.24C16.0951 8.363 16.3561 7.327 16.3561 6.132C16.3561 4.975 16.1231 3.948 15.6561 3.052C15.2104 2.17808 14.5195 1.45313 13.6681 0.966C12.8091 0.471 11.8291 0.223999 10.7281 0.223999H3.89605C3.85179 0.223208 3.80784 0.231497 3.7669 0.248352C3.72597 0.265207 3.68892 0.290271 3.65805 0.321999C3.62633 0.35287 3.60126 0.389917 3.58441 0.430851C3.56755 0.471785 3.55926 0.515738 3.56005 0.559999V19.488C3.56005 19.581 3.59305 19.661 3.65805 19.726C3.68892 19.7577 3.72597 19.7828 3.7669 19.7996C3.80784 19.8165 3.85179 19.8248 3.89605 19.824H7.17205V19.824ZM10.0841 8.68H7.64805C7.55505 8.68 7.50805 8.633 7.50805 8.54V3.752C7.50805 3.659 7.55505 3.612 7.64805 3.612H10.0841C10.7741 3.612 11.3341 3.841 11.7641 4.298C12.1941 4.755 12.4081 5.376 12.4081 6.16C12.4081 6.925 12.1931 7.537 11.7641 7.994C11.3341 8.451 10.7741 8.68 10.0841 8.68V8.68ZM24.9241 20.076C26.2121 20.076 27.3511 19.815 28.3401 19.292C29.3042 18.7936 30.1021 18.0249 30.6361 17.08C31.1771 16.128 31.4481 15.017 31.4481 13.748V6.3C31.4481 5.05 31.1781 3.948 30.6361 2.996C30.1021 2.05106 29.3042 1.28235 28.3401 0.783998C27.3501 0.260998 26.2121 0 24.9241 0C23.6361 0 22.5021 0.260998 21.5221 0.783998C20.5638 1.28558 19.7712 2.05383 19.2401 2.996C18.6991 3.948 18.4281 5.049 18.4281 6.3V13.748C18.4281 15.018 18.6981 16.128 19.2401 17.08C19.7712 18.0222 20.5638 18.7904 21.5221 19.292C22.5021 19.815 23.6361 20.076 24.9241 20.076ZM24.9241 16.688C24.1591 16.688 23.5431 16.431 23.0761 15.918C22.6091 15.405 22.3761 14.738 22.3761 13.916V6.188C22.3761 5.348 22.6091 4.671 23.0761 4.158C23.5431 3.645 24.1591 3.388 24.9241 3.388C25.7081 3.388 26.3341 3.645 26.8001 4.158C27.2671 4.671 27.5001 5.348 27.5001 6.188V13.916C27.5001 14.737 27.2671 15.405 26.8001 15.918C26.3331 16.431 25.7081 16.688 24.9241 16.688ZM40.1561 20.048C41.4261 20.048 42.5461 19.801 43.5161 19.306C44.4586 18.8378 45.2425 18.1026 45.7701 17.192C46.3021 16.277 46.5681 15.222 46.5681 14.028V13.944C46.5688 13.8997 46.5606 13.8558 46.5437 13.8149C46.5268 13.7739 46.5018 13.7369 46.4701 13.706C46.4392 13.6743 46.4021 13.6492 46.3612 13.6324C46.3203 13.6155 46.2763 13.6072 46.2321 13.608L42.9561 13.468C42.7321 13.468 42.6201 13.571 42.6201 13.776V14.14C42.6201 14.905 42.3961 15.517 41.9481 15.974C41.5001 16.431 40.9031 16.66 40.1561 16.66C39.4091 16.66 38.8121 16.431 38.3641 15.974C37.9161 15.517 37.6921 14.905 37.6921 14.14V5.936C37.6921 5.171 37.9161 4.555 38.3641 4.088C38.8121 3.621 39.4091 3.388 40.1561 3.388C40.9031 3.388 41.5001 3.621 41.9481 4.088C42.3961 4.555 42.6201 5.171 42.6201 5.936V6.3C42.6201 6.505 42.7321 6.608 42.9561 6.608L46.2321 6.468C46.2776 6.46827 46.3226 6.45835 46.3638 6.43897C46.4049 6.41959 46.4413 6.39124 46.4701 6.356C46.5331 6.28721 46.5681 6.1973 46.5681 6.104V5.964C46.5681 4.769 46.3021 3.724 45.7701 2.828C45.2381 1.932 44.4871 1.237 43.5161 0.741999C42.5461 0.246999 41.4261 0 40.1561 0C38.8861 0 37.7661 0.251999 36.7961 0.755999C35.8518 1.23482 35.0683 1.9794 34.5421 2.898C34.0101 3.822 33.7441 4.891 33.7441 6.104V13.888C33.7441 15.12 34.0101 16.203 34.5421 17.136C35.065 18.0607 35.849 18.8106 36.7961 19.292C37.7661 19.796 38.8861 20.048 40.1561 20.048ZM52.7001 19.824C52.7443 19.8248 52.7883 19.8165 52.8292 19.7996C52.8701 19.7828 52.9072 19.7577 52.9381 19.726C52.9698 19.6951 52.9948 19.6581 53.0117 19.6171C53.0286 19.5762 53.0368 19.5323 53.0361 19.488V13.888C53.0429 13.8287 53.0619 13.7715 53.0921 13.72L54.3521 11.9C54.3891 11.844 54.4271 11.816 54.4641 11.816C54.5011 11.816 54.5291 11.844 54.5481 11.9L58.5241 19.572C58.6171 19.74 58.748 19.824 58.916 19.824H62.5001C62.7051 19.824 62.8081 19.749 62.8081 19.6C62.8012 19.5407 62.7822 19.4835 62.7521 19.432L57.2641 8.848C57.2453 8.78402 57.2453 8.71598 57.2641 8.652L62.444 0.615999C62.519 0.503999 62.5331 0.410999 62.4861 0.335999C62.4391 0.260999 62.3511 0.223999 62.2201 0.223999H58.6081C58.5286 0.222333 58.4501 0.242292 58.3811 0.281744C58.312 0.321196 58.255 0.378661 58.2161 0.448L53.2041 8.064C53.1851 8.12 53.1531 8.139 53.1061 8.12C53.0591 8.101 53.0361 8.064 53.0361 8.008V0.559999C53.0368 0.515738 53.0286 0.471785 53.0117 0.430851C52.9948 0.389917 52.9698 0.35287 52.9381 0.321999C52.9072 0.290271 52.8701 0.265207 52.8292 0.248352C52.7883 0.231497 52.7443 0.223208 52.7001 0.223999H49.4241C49.3798 0.223208 49.3358 0.231497 49.2949 0.248352C49.254 0.265207 49.2169 0.290271 49.1861 0.321999C49.1543 0.35287 49.1293 0.389917 49.1124 0.430851C49.0956 0.471785 49.0873 0.515738 49.0881 0.559999V19.488C49.0881 19.581 49.1211 19.661 49.1861 19.726C49.2169 19.7577 49.254 19.7828 49.2949 19.7996C49.3358 19.8165 49.3798 19.8248 49.4241 19.824H52.7001V19.824ZM7.08805 41.824C7.13231 41.8248 7.17627 41.8165 7.2172 41.7996C7.25813 41.7828 7.29518 41.7577 7.32605 41.726C7.35778 41.6951 7.38284 41.6581 7.3997 41.6171C7.41655 41.5762 7.42484 41.5323 7.42405 41.488V34.208C7.42405 34.115 7.47105 34.068 7.56405 34.068H10.5881C11.7081 34.068 12.7021 33.825 13.5701 33.34C14.428 32.8649 15.1287 32.1496 15.5861 31.282C16.0621 30.395 16.3001 29.373 16.3001 28.216C16.3001 27.04 16.0621 25.995 15.5861 25.08C15.134 24.1906 14.4337 23.4514 13.5701 22.952C12.7021 22.448 11.7081 22.196 10.5881 22.196H3.81205C3.76779 22.1952 3.72384 22.2035 3.6829 22.2204C3.64197 22.2372 3.60492 22.2623 3.57405 22.294C3.54233 22.3249 3.51726 22.3619 3.5004 22.4028C3.48355 22.4438 3.47526 22.4877 3.47605 22.532V41.488C3.47605 41.581 3.50905 41.661 3.57405 41.726C3.60492 41.7577 3.64197 41.7828 3.6829 41.7996C3.72384 41.8165 3.76779 41.8248 3.81205 41.824H7.08805V41.824ZM9.94405 30.932H7.56405C7.47105 30.932 7.42405 30.885 7.42405 30.792V25.752C7.42405 25.659 7.47105 25.612 7.56405 25.612H9.94405C10.6721 25.612 11.2551 25.855 11.6941 26.34C12.1331 26.825 12.3521 27.479 12.3521 28.3C12.3521 29.103 12.1321 29.742 11.6941 30.218C11.2551 30.694 10.6721 30.932 9.94405 30.932ZM21.2281 41.824C21.4151 41.824 21.5361 41.731 21.5921 41.544L22.2361 38.8C22.2551 38.725 22.3011 38.688 22.3761 38.688H27.6121C27.6871 38.688 27.7331 38.725 27.7521 38.8L28.3961 41.544C28.4521 41.731 28.5831 41.824 28.7881 41.824H32.2041C32.4091 41.824 32.5121 41.74 32.5121 41.572L32.4841 41.46L27.4441 22.504C27.3881 22.317 27.2571 22.224 27.0521 22.224H22.9921C22.7871 22.224 22.656 22.317 22.6 22.504L17.5601 41.46C17.5041 41.703 17.5971 41.824 17.8401 41.824H21.2281V41.824ZM26.8281 35.636H23.1321C23.0911 35.6347 23.0517 35.62 23.0201 35.594C22.9831 35.566 22.9731 35.524 22.9921 35.468L24.8681 27.348C24.8871 27.273 24.9151 27.236 24.9521 27.236C24.9891 27.236 25.0171 27.273 25.0361 27.348L26.9681 35.468C26.9871 35.524 26.9781 35.566 26.9401 35.594C26.9084 35.62 26.869 35.6347 26.8281 35.636V35.636ZM38.1121 41.824C38.1563 41.8248 38.2003 41.8165 38.2412 41.7996C38.2821 41.7828 38.3192 41.7577 38.3501 41.726C38.3818 41.6951 38.4068 41.6581 38.4237 41.6171C38.4406 41.5762 38.4488 41.5323 38.4481 41.488V34.208C38.4481 34.115 38.4951 34.068 38.5881 34.068H41.6121C42.7321 34.068 43.7261 33.825 44.5941 33.34C45.452 32.8649 46.1527 32.1496 46.6101 31.282C47.0861 30.395 47.3241 29.373 47.3241 28.216C47.3241 27.04 47.0861 25.995 46.6101 25.08C46.158 24.1906 45.4577 23.4514 44.5941 22.952C43.7261 22.448 42.7321 22.196 41.6121 22.196H34.8361C34.7918 22.1952 34.7478 22.2035 34.7069 22.2204C34.666 22.2372 34.6289 22.2623 34.5981 22.294C34.5663 22.3249 34.5413 22.3619 34.5244 22.4028C34.5075 22.4438 34.4993 22.4877 34.5001 22.532V41.488C34.5001 41.581 34.5331 41.661 34.5981 41.726C34.6289 41.7577 34.666 41.7828 34.7069 41.7996C34.7478 41.8165 34.7918 41.8248 34.8361 41.824H38.1121V41.824ZM40.9681 30.932H38.5881C38.4951 30.932 38.4481 30.885 38.4481 30.792V25.752C38.4481 25.659 38.4951 25.612 38.5881 25.612H40.9681C41.6961 25.612 42.2791 25.855 42.7181 26.34C43.1571 26.825 43.3761 27.479 43.3761 28.3C43.3761 29.103 43.1561 29.742 42.7181 30.218C42.2791 30.694 41.6961 30.932 40.9681 30.932ZM61.0441 41.824C61.0883 41.8248 61.1323 41.8165 61.1732 41.7996C61.2141 41.7828 61.2512 41.7577 61.2821 41.726C61.3138 41.6951 61.3388 41.6581 61.3557 41.6171C61.3726 41.5762 61.3808 41.5323 61.3801 41.488V38.772C61.3808 38.7277 61.3726 38.6838 61.3557 38.6429C61.3388 38.6019 61.3138 38.5649 61.2821 38.534C61.2512 38.5023 61.2141 38.4772 61.1732 38.4604C61.1323 38.4435 61.0883 38.4352 61.0441 38.436H53.5401C53.4471 38.436 53.4001 38.389 53.4001 38.296V33.788C53.4001 33.695 53.4471 33.648 53.5401 33.648H58.2161C58.2603 33.6488 58.3043 33.6405 58.3452 33.6236C58.3861 33.6068 58.4232 33.5817 58.4541 33.55C58.4858 33.5191 58.5108 33.4821 58.5277 33.4411C58.5446 33.4002 58.5528 33.3563 58.5521 33.312V30.596C58.5528 30.5517 58.5446 30.5078 58.5277 30.4669C58.5108 30.4259 58.4858 30.3889 58.4541 30.358C58.4232 30.3263 58.3861 30.3012 58.3452 30.2844C58.3043 30.2675 58.2603 30.2592 58.2161 30.26H53.5401C53.4471 30.26 53.4001 30.213 53.4001 30.12V25.752C53.4001 25.659 53.4471 25.612 53.5401 25.612H61.0441C61.0883 25.6128 61.1323 25.6045 61.1732 25.5876C61.2141 25.5708 61.2512 25.5457 61.2821 25.514C61.3138 25.4831 61.3388 25.4461 61.3557 25.4051C61.3726 25.3642 61.3808 25.3203 61.3801 25.276V22.56C61.3808 22.5157 61.3726 22.4718 61.3557 22.4308C61.3388 22.3899 61.3138 22.3529 61.2821 22.322C61.2512 22.2903 61.2141 22.2652 61.1732 22.2484C61.1323 22.2315 61.0883 22.2232 61.0441 22.224H49.7881C49.7438 22.2232 49.6998 22.2315 49.6589 22.2484C49.618 22.2652 49.5809 22.2903 49.5501 22.322C49.5183 22.3529 49.4933 22.3899 49.4764 22.4308C49.4596 22.4718 49.4513 22.5157 49.4521 22.56V41.488C49.4521 41.581 49.4851 41.661 49.5501 41.726C49.5809 41.7577 49.618 41.7828 49.6589 41.7996C49.6998 41.8165 49.7438 41.8248 49.7881 41.824H61.0441ZM67.372 41.824C67.4163 41.8248 67.4603 41.8165 67.5012 41.7996C67.5421 41.7828 67.5792 41.7577 67.61 41.726C67.6418 41.6951 67.6668 41.6581 67.6837 41.6171C67.7006 41.5762 67.7088 41.5323 67.7081 41.488V33.844C67.7081 33.751 67.7551 33.704 67.8481 33.704H69.6121C69.6681 33.704 69.7151 33.741 69.7521 33.816L72.58 41.544C72.636 41.731 72.7671 41.824 72.9721 41.824H76.388C76.593 41.824 76.6961 41.74 76.6961 41.572C76.6977 41.5238 76.6881 41.4759 76.6681 41.432L73.4761 33.396C73.4391 33.303 73.4661 33.237 73.5601 33.2C74.4847 32.7949 75.2586 32.1092 75.772 31.24C76.295 30.363 76.5561 29.327 76.5561 28.132C76.5561 26.975 76.323 25.948 75.856 25.052C75.4104 24.1781 74.7195 23.4531 73.868 22.966C73.009 22.471 72.029 22.224 70.928 22.224H64.0961C64.0518 22.2232 64.0078 22.2315 63.9669 22.2484C63.926 22.2652 63.8889 22.2903 63.8581 22.322C63.8263 22.3529 63.8013 22.3899 63.7844 22.4308C63.7675 22.4718 63.7593 22.5157 63.7601 22.56V41.488C63.7601 41.581 63.7931 41.661 63.8581 41.726C63.8889 41.7577 63.926 41.7828 63.9669 41.7996C64.0078 41.8165 64.0518 41.8248 64.0961 41.824H67.372V41.824ZM70.284 30.68H67.8481C67.7551 30.68 67.7081 30.633 67.7081 30.54V25.752C67.7081 25.659 67.7551 25.612 67.8481 25.612H70.284C70.974 25.612 71.5341 25.841 71.9641 26.298C72.3941 26.755 72.608 27.376 72.608 28.16C72.608 28.925 72.3931 29.537 71.9641 29.994C71.5341 30.451 70.974 30.68 70.284 30.68V30.68ZM9.44005 64.048C11.3441 64.048 12.8701 63.548 14.0181 62.55C15.1661 61.551 15.7401 60.203 15.7401 58.504C15.7401 57.552 15.5351 56.74 15.1241 56.068C14.7319 55.4162 14.213 54.8497 13.5981 54.402C12.9911 53.963 12.1471 53.445 11.0641 52.848L10.4761 52.512C9.52405 52.045 8.81505 51.667 8.34805 51.378C7.88105 51.088 7.53605 50.785 7.31205 50.468C7.0846 50.1395 6.96698 49.7474 6.97605 49.348C6.97605 48.732 7.16705 48.251 7.55005 47.906C7.93305 47.561 8.46005 47.388 9.13205 47.388C9.93505 47.388 10.5691 47.612 11.0361 48.06C11.5031 48.508 11.7361 49.068 11.7361 49.74V50.244C11.7361 50.337 11.7691 50.417 11.8341 50.482C11.8649 50.5137 11.902 50.5388 11.9429 50.5556C11.9838 50.5725 12.0278 50.5808 12.0721 50.58H15.2921C15.3363 50.5808 15.3803 50.5725 15.4212 50.5556C15.4621 50.5388 15.4992 50.5137 15.5301 50.482C15.5618 50.4511 15.5868 50.4141 15.6037 50.3731C15.6206 50.3322 15.6288 50.2883 15.628 50.244V49.684C15.628 48.564 15.3581 47.574 14.8161 46.716C14.2751 45.857 13.5191 45.19 12.5481 44.714C11.5781 44.238 10.4671 44 9.21605 44C8.02105 44 6.95705 44.22 6.02405 44.658C5.09105 45.097 4.36705 45.722 3.85405 46.534C3.34105 47.346 3.08405 48.294 3.08405 49.376C3.08405 50.459 3.33605 51.383 3.84005 52.148C4.31796 52.8865 4.93635 53.5239 5.66005 54.024C6.37005 54.509 7.28405 55.032 8.40405 55.592C9.31905 56.059 9.99505 56.427 10.4341 56.698C10.8731 56.968 11.2141 57.258 11.4561 57.566C11.6991 57.874 11.8201 58.243 11.8201 58.672C11.8201 59.251 11.629 59.727 11.246 60.1C10.863 60.473 10.3081 60.66 9.58005 60.66C8.75905 60.66 8.10505 60.44 7.62005 60.002C7.38633 59.7988 7.20001 59.5468 7.07423 59.2638C6.94845 58.9808 6.88626 58.6736 6.89205 58.364V57.832C6.89284 57.7877 6.88456 57.7438 6.8677 57.7029C6.85085 57.6619 6.82578 57.6249 6.79405 57.594C6.76318 57.5623 6.72614 57.5372 6.6852 57.5203C6.64427 57.5035 6.60031 57.4952 6.55605 57.496H3.33605C3.29179 57.4952 3.24784 57.5035 3.2069 57.5203C3.16597 57.5372 3.12892 57.5623 3.09805 57.594C3.06632 57.6249 3.04126 57.6619 3.0244 57.7029C3.00755 57.7438 2.99926 57.7877 3.00005 57.832V58.56C3.00005 59.643 3.26605 60.6 3.79805 61.43C4.33005 62.26 5.08105 62.905 6.05205 63.362C7.02205 63.819 8.15205 64.048 9.44005 64.048V64.048ZM24.1961 64.048C25.4661 64.048 26.5861 63.801 27.5561 63.306C28.4986 62.8378 29.2825 62.1026 29.8101 61.192C30.3421 60.277 30.6081 59.222 30.6081 58.028V57.944C30.6088 57.8997 30.6006 57.8558 30.5837 57.8148C30.5668 57.7739 30.5418 57.7369 30.51 57.706C30.4792 57.6743 30.4421 57.6492 30.4012 57.6323C30.3603 57.6155 30.3163 57.6072 30.2721 57.608L26.996 57.468C26.772 57.468 26.6601 57.571 26.6601 57.776V58.14C26.6601 58.905 26.4361 59.517 25.9881 59.974C25.5401 60.431 24.9431 60.66 24.1961 60.66C23.4491 60.66 22.8521 60.431 22.4041 59.974C21.9561 59.517 21.732 58.905 21.732 58.14V49.936C21.732 49.171 21.9561 48.555 22.4041 48.088C22.8521 47.621 23.4491 47.388 24.1961 47.388C24.9431 47.388 25.5401 47.621 25.9881 48.088C26.4361 48.555 26.6601 49.171 26.6601 49.936V50.3C26.6601 50.505 26.772 50.608 26.996 50.608L30.2721 50.468C30.3176 50.4683 30.3626 50.4584 30.4037 50.439C30.4449 50.4196 30.4812 50.3912 30.51 50.356C30.5731 50.2872 30.6081 50.1973 30.6081 50.104V49.964C30.6081 48.769 30.3421 47.724 29.8101 46.828C29.2781 45.932 28.5271 45.237 27.5561 44.742C26.5861 44.247 25.4661 44 24.1961 44C22.9261 44 21.8061 44.252 20.8361 44.756C19.8918 45.2348 19.1083 45.9794 18.5821 46.898C18.0501 47.822 17.7841 48.891 17.7841 50.104V57.888C17.7841 59.12 18.0501 60.203 18.5821 61.136C19.105 62.0607 19.889 62.8106 20.8361 63.292C21.8061 63.796 22.9261 64.048 24.1961 64.048V64.048ZM36.7401 63.824C36.7843 63.8248 36.8283 63.8165 36.8692 63.7996C36.9101 63.7828 36.9472 63.7577 36.9781 63.726C37.0098 63.6951 37.0348 63.6581 37.0517 63.6171C37.0686 63.5762 37.0768 63.5323 37.0761 63.488V44.56C37.0768 44.5157 37.0686 44.4718 37.0517 44.4308C37.0348 44.3899 37.0098 44.3529 36.9781 44.322C36.9472 44.2903 36.9101 44.2652 36.8692 44.2484C36.8283 44.2315 36.7843 44.2232 36.7401 44.224H33.4641C33.4198 44.2232 33.3758 44.2315 33.3349 44.2484C33.294 44.2652 33.2569 44.2903 33.2261 44.322C33.1943 44.3529 33.1693 44.3899 33.1524 44.4308C33.1355 44.4718 33.1273 44.5157 33.128 44.56V63.488C33.128 63.581 33.1611 63.661 33.2261 63.726C33.2569 63.7577 33.294 63.7828 33.3349 63.7996C33.3758 63.8165 33.4198 63.8248 33.4641 63.824H36.7401ZM45.8961 64.048C47.8001 64.048 49.3261 63.548 50.4741 62.55C51.6221 61.551 52.1961 60.203 52.1961 58.504C52.1961 57.552 51.9911 56.74 51.5801 56.068C51.1879 55.4162 50.669 54.8497 50.0541 54.402C49.4471 53.963 48.6031 53.445 47.5201 52.848L46.9321 52.512C45.9801 52.045 45.2711 51.667 44.8041 51.378C44.3371 51.088 43.9921 50.785 43.7681 50.468C43.5406 50.1395 43.423 49.7474 43.4321 49.348C43.4321 48.732 43.6231 48.251 44.0061 47.906C44.3891 47.561 44.9161 47.388 45.5881 47.388C46.3911 47.388 47.0251 47.612 47.4921 48.06C47.9591 48.508 48.1921 49.068 48.1921 49.74V50.244C48.1921 50.337 48.2251 50.417 48.2901 50.482C48.3209 50.5137 48.358 50.5388 48.3989 50.5556C48.4398 50.5725 48.4838 50.5808 48.5281 50.58H51.7481C51.7923 50.5808 51.8363 50.5725 51.8772 50.5556C51.9181 50.5388 51.9552 50.5137 51.9861 50.482C52.0178 50.4511 52.0428 50.4141 52.0597 50.3731C52.0766 50.3322 52.0848 50.2883 52.0841 50.244V49.684C52.0841 48.564 51.8141 47.574 51.2721 46.716C50.7311 45.857 49.9751 45.19 49.0041 44.714C48.0341 44.238 46.9231 44 45.6721 44C44.4771 44 43.4131 44.22 42.4801 44.658C41.5471 45.097 40.8231 45.722 40.3101 46.534C39.7971 47.346 39.5401 48.294 39.5401 49.376C39.5401 50.459 39.7921 51.383 40.2961 52.148C40.774 52.8865 41.3923 53.5239 42.1161 54.024C42.8261 54.509 43.7401 55.032 44.8601 55.592C45.7751 56.059 46.4511 56.427 46.8901 56.698C47.3291 56.968 47.6701 57.258 47.9121 57.566C48.1551 57.874 48.2761 58.243 48.2761 58.672C48.2761 59.251 48.0851 59.727 47.7021 60.1C47.3191 60.473 46.7641 60.66 46.0361 60.66C45.2151 60.66 44.5611 60.44 44.0761 60.002C43.8423 59.7988 43.656 59.5468 43.5302 59.2638C43.4044 58.9808 43.3423 58.6736 43.3481 58.364V57.832C43.3488 57.7877 43.3406 57.7438 43.3237 57.7029C43.3068 57.6619 43.2818 57.6249 43.2501 57.594C43.2192 57.5623 43.1821 57.5372 43.1412 57.5203C43.1003 57.5035 43.0563 57.4952 43.0121 57.496H39.7921C39.7478 57.4952 39.7038 57.5035 39.6629 57.5203C39.622 57.5372 39.5849 57.5623 39.5541 57.594C39.5223 57.6249 39.4973 57.6619 39.4804 57.7029C39.4635 57.7438 39.4553 57.7877 39.4561 57.832V58.56C39.4561 59.643 39.7221 60.6 40.2541 61.43C40.7861 62.26 41.5371 62.905 42.5081 63.362C43.4781 63.819 44.6081 64.048 45.8961 64.048V64.048ZM60.4561 64.048C62.3601 64.048 63.8861 63.548 65.0341 62.55C66.1821 61.551 66.7561 60.203 66.7561 58.504C66.7561 57.552 66.5511 56.74 66.1401 56.068C65.7479 55.4162 65.229 54.8497 64.6141 54.402C64.0071 53.963 63.1631 53.445 62.0801 52.848L61.4921 52.512C60.5401 52.045 59.8311 51.667 59.3641 51.378C58.8971 51.088 58.5521 50.785 58.3281 50.468C58.1006 50.1395 57.983 49.7474 57.9921 49.348C57.9921 48.732 58.1831 48.251 58.5661 47.906C58.9491 47.561 59.4761 47.388 60.1481 47.388C60.9511 47.388 61.5851 47.612 62.0521 48.06C62.5191 48.508 62.7521 49.068 62.7521 49.74V50.244C62.7521 50.337 62.7851 50.417 62.8501 50.482C62.8809 50.5137 62.918 50.5388 62.9589 50.5556C62.9998 50.5725 63.0438 50.5808 63.0881 50.58H66.3081C66.3523 50.5808 66.3963 50.5725 66.4372 50.5556C66.4781 50.5388 66.5152 50.5137 66.5461 50.482C66.5778 50.4511 66.6028 50.4141 66.6197 50.3731C66.6366 50.3322 66.6448 50.2883 66.6441 50.244V49.684C66.6441 48.564 66.3741 47.574 65.8321 46.716C65.2911 45.857 64.5351 45.19 63.5641 44.714C62.5941 44.238 61.4831 44 60.2321 44C59.0371 44 57.9731 44.22 57.0401 44.658C56.1071 45.097 55.3831 45.722 54.8701 46.534C54.3571 47.346 54.1001 48.294 54.1001 49.376C54.1001 50.459 54.3521 51.383 54.8561 52.148C55.334 52.8865 55.9523 53.5239 56.6761 54.024C57.3861 54.509 58.3001 55.032 59.4201 55.592C60.3351 56.059 61.0111 56.427 61.4501 56.698C61.8891 56.968 62.2301 57.258 62.4721 57.566C62.7151 57.874 62.8361 58.243 62.8361 58.672C62.8361 59.251 62.6451 59.727 62.2621 60.1C61.8791 60.473 61.3241 60.66 60.5961 60.66C59.7751 60.66 59.1211 60.44 58.6361 60.002C58.4023 59.7988 58.216 59.5468 58.0902 59.2638C57.9644 58.9808 57.9023 58.6736 57.9081 58.364V57.832C57.9088 57.7877 57.9006 57.7438 57.8837 57.7029C57.8668 57.6619 57.8418 57.6249 57.8101 57.594C57.7792 57.5623 57.7421 57.5372 57.7012 57.5203C57.6603 57.5035 57.6163 57.4952 57.5721 57.496H54.3521C54.3078 57.4952 54.2638 57.5035 54.2229 57.5203C54.182 57.5372 54.1449 57.5623 54.1141 57.594C54.0823 57.6249 54.0573 57.6619 54.0404 57.7029C54.0236 57.7438 54.0153 57.7877 54.0161 57.832V58.56C54.0161 59.643 54.2821 60.6 54.8141 61.43C55.3461 62.26 56.0971 62.905 57.0681 63.362C58.0381 63.819 59.1681 64.048 60.4561 64.048V64.048ZM75.2961 64.076C76.5841 64.076 77.7231 63.815 78.7121 63.292C79.6762 62.7937 80.4741 62.0249 81.008 61.08C81.549 60.128 81.8201 59.017 81.8201 57.748V50.3C81.8201 49.05 81.55 47.948 81.008 46.996C80.4741 46.0511 79.6762 45.2823 78.7121 44.784C77.7221 44.261 76.5841 44 75.2961 44C74.0081 44 72.8741 44.261 71.8941 44.784C70.9358 45.2856 70.1432 46.0538 69.6121 46.996C69.0711 47.948 68.8 49.049 68.8 50.3V57.748C68.8 59.018 69.0701 60.128 69.6121 61.08C70.1432 62.0222 70.9358 62.7904 71.8941 63.292C72.8741 63.815 74.0081 64.076 75.2961 64.076ZM75.2961 60.688C74.5311 60.688 73.9151 60.431 73.4481 59.918C72.9811 59.405 72.748 58.738 72.748 57.916V50.188C72.748 49.348 72.9811 48.671 73.4481 48.158C73.9151 47.645 74.5311 47.388 75.2961 47.388C76.0801 47.388 76.7061 47.645 77.1721 48.158C77.6391 48.671 77.872 49.348 77.872 50.188V57.916C77.872 58.737 77.6391 59.405 77.1721 59.918C76.7051 60.431 76.0801 60.688 75.2961 60.688ZM88.064 63.824C88.1083 63.8248 88.1523 63.8165 88.1932 63.7996C88.2341 63.7828 88.2712 63.7577 88.302 63.726C88.3338 63.6951 88.3588 63.6581 88.3757 63.6171C88.3925 63.5762 88.4008 63.5323 88.4 63.488V55.844C88.4 55.751 88.447 55.704 88.54 55.704H90.304C90.36 55.704 90.407 55.741 90.444 55.816L93.272 63.544C93.328 63.731 93.459 63.824 93.664 63.824H97.08C97.285 63.824 97.388 63.74 97.388 63.572C97.3897 63.5238 97.3801 63.4759 97.36 63.432L94.1681 55.396C94.1311 55.303 94.1581 55.237 94.2521 55.2C95.1767 54.7949 95.9506 54.1092 96.4641 53.24C96.9871 52.363 97.248 51.327 97.248 50.132C97.248 48.975 97.015 47.948 96.548 47.052C96.1024 46.1781 95.4115 45.4531 94.5601 44.966C93.7011 44.471 92.721 44.224 91.62 44.224H84.788C84.7438 44.2232 84.6998 44.2315 84.6589 44.2484C84.618 44.2652 84.5809 44.2903 84.55 44.322C84.5183 44.3529 84.4933 44.3899 84.4764 44.4308C84.4595 44.4718 84.4513 44.5157 84.452 44.56V63.488C84.452 63.581 84.485 63.661 84.55 63.726C84.5809 63.7577 84.618 63.7828 84.6589 63.7996C84.6998 63.8165 84.7438 63.8248 84.788 63.824H88.064V63.824ZM90.9761 52.68H88.54C88.447 52.68 88.4 52.633 88.4 52.54V47.752C88.4 47.659 88.447 47.612 88.54 47.612H90.9761C91.6661 47.612 92.2261 47.841 92.6561 48.298C93.0861 48.755 93.3 49.376 93.3 50.16C93.3 50.925 93.0851 51.537 92.6561 51.994C92.2261 52.451 91.6661 52.68 90.9761 52.68V52.68ZM105.536 64.048C107.44 64.048 108.966 63.548 110.114 62.55C111.262 61.551 111.836 60.203 111.836 58.504C111.836 57.552 111.631 56.74 111.22 56.068C110.828 55.4162 110.309 54.8497 109.694 54.402C109.087 53.963 108.243 53.445 107.16 52.848L106.572 52.512C105.62 52.045 104.911 51.667 104.444 51.378C103.977 51.088 103.632 50.785 103.408 50.468C103.181 50.1395 103.063 49.7474 103.072 49.348C103.072 48.732 103.263 48.251 103.646 47.906C104.029 47.561 104.556 47.388 105.228 47.388C106.031 47.388 106.665 47.612 107.132 48.06C107.599 48.508 107.832 49.068 107.832 49.74V50.244C107.832 50.337 107.865 50.417 107.93 50.482C107.961 50.5137 107.998 50.5388 108.039 50.5556C108.08 50.5725 108.124 50.5808 108.168 50.58H111.388C111.432 50.5808 111.476 50.5725 111.517 50.5556C111.558 50.5388 111.595 50.5137 111.626 50.482C111.658 50.4511 111.683 50.4141 111.7 50.3731C111.717 50.3322 111.725 50.2883 111.724 50.244V49.684C111.724 48.564 111.454 47.574 110.912 46.716C110.371 45.857 109.615 45.19 108.644 44.714C107.674 44.238 106.563 44 105.312 44C104.117 44 103.053 44.22 102.12 44.658C101.187 45.097 100.463 45.722 99.95 46.534C99.437 47.346 99.1801 48.294 99.1801 49.376C99.1801 50.459 99.4321 51.383 99.9361 52.148C100.414 52.8865 101.032 53.5239 101.756 54.024C102.466 54.509 103.38 55.032 104.5 55.592C105.415 56.059 106.091 56.427 106.53 56.698C106.969 56.968 107.31 57.258 107.552 57.566C107.795 57.874 107.916 58.243 107.916 58.672C107.916 59.251 107.725 59.727 107.342 60.1C106.959 60.473 106.404 60.66 105.676 60.66C104.855 60.66 104.201 60.44 103.716 60.002C103.482 59.7988 103.296 59.5468 103.17 59.2638C103.044 58.9808 102.982 58.6736 102.988 58.364V57.832C102.989 57.7877 102.981 57.7438 102.964 57.7029C102.947 57.6619 102.922 57.6249 102.89 57.594C102.859 57.5623 102.822 57.5372 102.781 57.5203C102.74 57.5035 102.696 57.4952 102.652 57.496H99.4321C99.3878 57.4952 99.3438 57.5035 99.3029 57.5203C99.262 57.5372 99.2249 57.5623 99.194 57.594C99.1623 57.6249 99.1373 57.6619 99.1204 57.7029C99.1036 57.7438 99.0953 57.7877 99.0961 57.832V58.56C99.0961 59.643 99.362 60.6 99.894 61.43C100.426 62.26 101.177 62.905 102.148 63.362C103.118 63.819 104.248 64.048 105.536 64.048V64.048ZM15.1521 85.824C15.1963 85.8248 15.2403 85.8165 15.2812 85.7996C15.3221 85.7828 15.3592 85.7577 15.3901 85.726C15.4218 85.6951 15.4468 85.6581 15.4637 85.6171C15.4806 85.5762 15.4888 85.5323 15.4881 85.488V82.772C15.4888 82.7277 15.4806 82.6838 15.4637 82.6428C15.4468 82.6019 15.4218 82.5649 15.3901 82.534C15.3592 82.5023 15.3221 82.4772 15.2812 82.4604C15.2403 82.4435 15.1963 82.4352 15.1521 82.436H7.64805C7.55505 82.436 7.50805 82.389 7.50805 82.296V66.56C7.50884 66.5157 7.50055 66.4718 7.4837 66.4308C7.46684 66.3899 7.44178 66.3529 7.41005 66.322C7.37918 66.2903 7.34213 66.2652 7.3012 66.2484C7.26027 66.2315 7.21631 66.2232 7.17205 66.224H3.89605C3.85179 66.2232 3.80784 66.2315 3.7669 66.2484C3.72597 66.2652 3.68892 66.2903 3.65805 66.322C3.62633 66.3529 3.60126 66.3899 3.58441 66.4308C3.56755 66.4718 3.55926 66.5157 3.56005 66.56V85.488C3.56005 85.581 3.59305 85.661 3.65805 85.726C3.68892 85.7577 3.72597 85.7828 3.7669 85.7996C3.80784 85.8165 3.85179 85.8248 3.89605 85.824H15.1521ZM21.1441 85.824C21.1883 85.8248 21.2323 85.8165 21.2732 85.7996C21.3141 85.7828 21.3512 85.7577 21.3821 85.726C21.4138 85.6951 21.4388 85.6581 21.4557 85.6171C21.4726 85.5762 21.4808 85.5323 21.4801 85.488V66.56C21.4808 66.5157 21.4726 66.4718 21.4557 66.4308C21.4388 66.3899 21.4138 66.3529 21.3821 66.322C21.3512 66.2903 21.3141 66.2652 21.2732 66.2484C21.2323 66.2315 21.1883 66.2232 21.1441 66.224H17.8681C17.8238 66.2232 17.7798 66.2315 17.7389 66.2484C17.698 66.2652 17.6609 66.2903 17.6301 66.322C17.5983 66.3529 17.5733 66.3899 17.5564 66.4308C17.5396 66.4718 17.5313 66.5157 17.5321 66.56V85.488C17.5321 85.581 17.5651 85.661 17.6301 85.726C17.6609 85.7577 17.698 85.7828 17.7389 85.7996C17.7798 85.8165 17.8238 85.8248 17.8681 85.824H21.1441ZM35.3121 85.824C35.3563 85.8248 35.4003 85.8165 35.4412 85.7996C35.4821 85.7828 35.5192 85.7577 35.5501 85.726C35.5818 85.6951 35.6068 85.6581 35.6237 85.6171C35.6406 85.5762 35.6488 85.5323 35.6481 85.488V82.772C35.6488 82.7277 35.6406 82.6838 35.6237 82.6428C35.6068 82.6019 35.5818 82.5649 35.5501 82.534C35.5192 82.5023 35.4821 82.4772 35.4412 82.4604C35.4003 82.4435 35.3563 82.4352 35.3121 82.436H28.1161C28.0041 82.436 27.9761 82.38 28.0321 82.268L35.5361 69.92C35.6099 69.7924 35.6485 69.6474 35.6481 69.5V66.56C35.6488 66.5157 35.6406 66.4718 35.6237 66.4308C35.6068 66.3899 35.5818 66.3529 35.5501 66.322C35.5192 66.2903 35.4821 66.2652 35.4412 66.2484C35.4003 66.2315 35.3563 66.2232 35.3121 66.224H24.0001C23.9558 66.2232 23.9118 66.2315 23.8709 66.2484C23.83 66.2652 23.7929 66.2903 23.7621 66.322C23.7303 66.3529 23.7053 66.3899 23.6884 66.4308C23.6716 66.4718 23.6633 66.5157 23.6641 66.56V69.276C23.6641 69.369 23.6971 69.449 23.7621 69.514C23.7929 69.5457 23.83 69.5708 23.8709 69.5876C23.9118 69.6045 23.9558 69.6128 24.0001 69.612H31.1961C31.3081 69.612 31.3361 69.668 31.2801 69.78L23.7761 82.128C23.7022 82.2556 23.6636 82.4006 23.6641 82.548V85.488C23.6641 85.581 23.6971 85.661 23.7621 85.726C23.7929 85.7577 23.83 85.7828 23.8709 85.7996C23.9118 85.8165 23.9558 85.8248 24.0001 85.824H35.3121V85.824ZM40.8001 85.824C40.9871 85.824 41.1081 85.731 41.1641 85.544L41.8081 82.8C41.8271 82.725 41.8731 82.688 41.9481 82.688H47.1841C47.2591 82.688 47.3051 82.725 47.3241 82.8L47.9681 85.544C48.0241 85.731 48.1551 85.824 48.3601 85.824H51.7761C51.9811 85.824 52.0841 85.74 52.0841 85.572L52.0561 85.46L47.0161 66.504C46.9601 66.317 46.8291 66.224 46.6241 66.224H42.5641C42.3591 66.224 42.2281 66.317 42.1721 66.504L37.1321 85.46C37.0761 85.703 37.1691 85.824 37.4121 85.824H40.8001V85.824ZM46.4001 79.636H42.7041C42.6631 79.6347 42.6237 79.6199 42.5921 79.594C42.5551 79.566 42.5451 79.524 42.5641 79.468L44.4401 71.348C44.4591 71.273 44.4871 71.236 44.5241 71.236C44.5611 71.236 44.5891 71.273 44.6081 71.348L46.5401 79.468C46.5591 79.524 46.5501 79.566 46.5121 79.594C46.4804 79.6199 46.441 79.6347 46.4001 79.636V79.636ZM57.7681 85.824C57.8123 85.8248 57.8563 85.8165 57.8972 85.7996C57.9381 85.7828 57.9752 85.7577 58.0061 85.726C58.0378 85.6951 58.0628 85.6581 58.0797 85.6171C58.0966 85.5762 58.1048 85.5323 58.1041 85.488V77.844C58.1041 77.751 58.1511 77.704 58.2441 77.704H60.0081C60.0641 77.704 60.1111 77.741 60.1481 77.816L62.9761 85.544C63.0321 85.731 63.1631 85.824 63.3681 85.824H66.7841C66.9891 85.824 67.092 85.74 67.092 85.572C67.0937 85.5238 67.0841 85.4759 67.064 85.432L63.8721 77.396C63.8351 77.303 63.8621 77.237 63.9561 77.2C64.8807 76.7949 65.6546 76.1092 66.1681 75.24C66.6911 74.363 66.9521 73.327 66.9521 72.132C66.9521 70.975 66.7191 69.948 66.2521 69.052C65.8064 68.1781 65.1155 67.4531 64.2641 66.966C63.4051 66.471 62.4251 66.224 61.3241 66.224H54.4921C54.4478 66.2232 54.4038 66.2315 54.3629 66.2484C54.322 66.2652 54.2849 66.2903 54.2541 66.322C54.2223 66.3529 54.1973 66.3899 54.1804 66.4308C54.1636 66.4718 54.1553 66.5157 54.1561 66.56V85.488C54.1561 85.581 54.1891 85.661 54.2541 85.726C54.2849 85.7577 54.322 85.7828 54.3629 85.7996C54.4038 85.8165 54.4478 85.8248 54.4921 85.824H57.7681V85.824ZM60.68 74.68H58.2441C58.1511 74.68 58.1041 74.633 58.1041 74.54V69.752C58.1041 69.659 58.1511 69.612 58.2441 69.612H60.68C61.37 69.612 61.9301 69.841 62.3601 70.298C62.7901 70.755 63.0041 71.376 63.0041 72.16C63.0041 72.925 62.7891 73.537 62.3601 73.994C61.9301 74.451 61.37 74.68 60.68 74.68V74.68ZM75.716 85.824C76.966 85.824 78.073 85.591 79.034 85.124C79.9951 84.657 80.737 83.994 81.26 83.136C81.783 82.277 82.0441 81.279 82.0441 80.14V71.908C82.0441 70.769 81.783 69.771 81.26 68.912C80.737 68.053 79.9951 67.391 79.034 66.924C78.073 66.457 76.967 66.224 75.716 66.224H69.6961C69.6518 66.2232 69.6078 66.2315 69.5669 66.2484C69.526 66.2652 69.4889 66.2903 69.4581 66.322C69.4263 66.3529 69.4013 66.3899 69.3844 66.4308C69.3675 66.4718 69.3593 66.5157 69.36 66.56V85.488C69.36 85.581 69.3931 85.661 69.4581 85.726C69.4889 85.7577 69.526 85.7828 69.5669 85.7996C69.6078 85.8165 69.6518 85.8248 69.6961 85.824H75.716ZM73.4481 82.436C73.3551 82.436 73.3081 82.389 73.3081 82.296V69.752C73.3081 69.659 73.3551 69.612 73.4481 69.612H75.744C76.454 69.612 77.023 69.859 77.452 70.354C77.882 70.849 78.096 71.516 78.096 72.356V79.692C78.077 80.513 77.853 81.172 77.424 81.666C76.994 82.161 76.434 82.408 75.744 82.408L73.4481 82.436V82.436ZM9.44005 108.048C11.3441 108.048 12.8701 107.548 14.0181 106.55C15.1661 105.551 15.7401 104.203 15.7401 102.504C15.7401 101.552 15.5351 100.74 15.1241 100.068C14.7319 99.4162 14.213 98.8497 13.5981 98.402C12.9911 97.963 12.1471 97.445 11.0641 96.848L10.4761 96.512C9.52405 96.045 8.81505 95.667 8.34805 95.378C7.88105 95.088 7.53605 94.785 7.31205 94.468C7.0846 94.1395 6.96698 93.7474 6.97605 93.348C6.97605 92.732 7.16705 92.251 7.55005 91.906C7.93305 91.561 8.46005 91.388 9.13205 91.388C9.93505 91.388 10.5691 91.612 11.0361 92.06C11.5031 92.508 11.7361 93.068 11.7361 93.74V94.244C11.7361 94.337 11.7691 94.417 11.8341 94.482C11.8649 94.5137 11.902 94.5388 11.9429 94.5556C11.9838 94.5725 12.0278 94.5808 12.0721 94.58H15.2921C15.3363 94.5808 15.3803 94.5725 15.4212 94.5556C15.4621 94.5388 15.4992 94.5137 15.5301 94.482C15.5618 94.4511 15.5868 94.4141 15.6037 94.3731C15.6206 94.3322 15.6288 94.2883 15.628 94.244V93.684C15.628 92.564 15.3581 91.574 14.8161 90.716C14.2751 89.857 13.5191 89.19 12.5481 88.714C11.5781 88.238 10.4671 88 9.21605 88C8.02105 88 6.95705 88.22 6.02405 88.658C5.09105 89.097 4.36705 89.722 3.85405 90.534C3.34105 91.346 3.08405 92.294 3.08405 93.376C3.08405 94.459 3.33605 95.383 3.84005 96.148C4.31796 96.8865 4.93635 97.5239 5.66005 98.024C6.37005 98.509 7.28405 99.032 8.40405 99.592C9.31905 100.059 9.99505 100.427 10.4341 100.698C10.8731 100.968 11.2141 101.258 11.4561 101.566C11.6991 101.874 11.8201 102.243 11.8201 102.672C11.8201 103.251 11.629 103.727 11.246 104.1C10.863 104.473 10.3081 104.66 9.58005 104.66C8.75905 104.66 8.10505 104.44 7.62005 104.002C7.38633 103.799 7.20001 103.547 7.07423 103.264C6.94845 102.981 6.88626 102.674 6.89205 102.364V101.832C6.89284 101.788 6.88456 101.744 6.8677 101.703C6.85085 101.662 6.82578 101.625 6.79405 101.594C6.76318 101.562 6.72614 101.537 6.6852 101.52C6.64427 101.503 6.60031 101.495 6.55605 101.496H3.33605C3.29179 101.495 3.24784 101.503 3.2069 101.52C3.16597 101.537 3.12892 101.562 3.09805 101.594C3.06632 101.625 3.04126 101.662 3.0244 101.703C3.00755 101.744 2.99926 101.788 3.00005 101.832V102.56C3.00005 103.643 3.26605 104.6 3.79805 105.43C4.33005 106.26 5.08105 106.905 6.05205 107.362C7.02205 107.819 8.15205 108.048 9.44005 108.048V108.048ZM21.6481 107.824C21.6923 107.825 21.7363 107.816 21.7772 107.8C21.8181 107.783 21.8552 107.758 21.8861 107.726C21.9178 107.695 21.9428 107.658 21.9597 107.617C21.9766 107.576 21.9848 107.532 21.9841 107.488V100.208C21.9841 100.115 22.0311 100.068 22.1241 100.068H25.1481C26.2681 100.068 27.2621 99.825 28.1301 99.34C28.988 98.8649 29.6887 98.1496 30.1461 97.282C30.6221 96.395 30.8601 95.373 30.8601 94.216C30.8601 93.04 30.6221 91.995 30.1461 91.08C29.694 90.1906 28.9937 89.4514 28.1301 88.952C27.2621 88.448 26.2681 88.196 25.1481 88.196H18.3721C18.3278 88.1952 18.2838 88.2035 18.2429 88.2204C18.202 88.2372 18.1649 88.2623 18.1341 88.294C18.1023 88.3249 18.0773 88.3619 18.0604 88.4028C18.0435 88.4438 18.0353 88.4877 18.0361 88.532V107.488C18.0361 107.581 18.0691 107.661 18.1341 107.726C18.1649 107.758 18.202 107.783 18.2429 107.8C18.2838 107.816 18.3278 107.825 18.3721 107.824H21.6481ZM24.5041 96.932H22.1241C22.0311 96.932 21.9841 96.885 21.9841 96.792V91.752C21.9841 91.659 22.0311 91.612 22.1241 91.612H24.5041C25.2321 91.612 25.8151 91.855 26.2541 92.34C26.6931 92.825 26.9121 93.479 26.9121 94.3C26.9121 95.103 26.6921 95.742 26.2541 96.218C25.8151 96.694 25.2321 96.932 24.5041 96.932V96.932ZM39.1481 108.076C40.4361 108.076 41.5751 107.815 42.5641 107.292C43.5282 106.794 44.3261 106.025 44.8601 105.08C45.4011 104.128 45.6721 103.017 45.6721 101.748V94.3C45.6721 93.05 45.4021 91.948 44.8601 90.996C44.3261 90.0511 43.5282 89.2823 42.5641 88.784C41.5741 88.261 40.4361 88 39.1481 88C37.8601 88 36.7261 88.261 35.7461 88.784C34.7878 89.2856 33.9952 90.0538 33.4641 90.996C32.9231 91.948 32.6521 93.049 32.6521 94.3V101.748C32.6521 103.018 32.9221 104.128 33.4641 105.08C33.9952 106.022 34.7878 106.79 35.7461 107.292C36.7261 107.815 37.8601 108.076 39.1481 108.076ZM39.1481 104.688C38.3831 104.688 37.7671 104.431 37.3001 103.918C36.8331 103.405 36.6001 102.738 36.6001 101.916V94.188C36.6001 93.348 36.8331 92.671 37.3001 92.158C37.7671 91.645 38.3831 91.388 39.1481 91.388C39.9321 91.388 40.5581 91.645 41.0241 92.158C41.4911 92.671 41.7241 93.348 41.7241 94.188V101.916C41.7241 102.737 41.4911 103.405 41.0241 103.918C40.5571 104.431 39.9321 104.688 39.1481 104.688ZM54.3801 108.048C55.6501 108.048 56.7701 107.801 57.7401 107.306C58.6826 106.838 59.4665 106.103 59.9941 105.192C60.5261 104.277 60.7921 103.222 60.7921 102.028V101.944C60.7928 101.9 60.7846 101.856 60.7677 101.815C60.7508 101.774 60.7258 101.737 60.694 101.706C60.6632 101.674 60.6261 101.649 60.5852 101.632C60.5443 101.615 60.5003 101.607 60.4561 101.608L57.18 101.468C56.956 101.468 56.8441 101.571 56.8441 101.776V102.14C56.8441 102.905 56.6201 103.517 56.1721 103.974C55.7241 104.431 55.1271 104.66 54.3801 104.66C53.6331 104.66 53.0361 104.431 52.5881 103.974C52.1401 103.517 51.916 102.905 51.916 102.14V93.936C51.916 93.171 52.1401 92.555 52.5881 92.088C53.0361 91.621 53.6331 91.388 54.3801 91.388C55.1271 91.388 55.7241 91.621 56.1721 92.088C56.6201 92.555 56.8441 93.171 56.8441 93.936V94.3C56.8441 94.505 56.956 94.608 57.18 94.608L60.4561 94.468C60.5016 94.4683 60.5466 94.4584 60.5877 94.439C60.6289 94.4196 60.6652 94.3912 60.694 94.356C60.7571 94.2872 60.7921 94.1973 60.7921 94.104V93.964C60.7921 92.769 60.5261 91.724 59.9941 90.828C59.4621 89.932 58.7111 89.237 57.7401 88.742C56.7701 88.247 55.6501 88 54.3801 88C53.1101 88 51.9901 88.252 51.0201 88.756C50.0758 89.2348 49.2923 89.9794 48.7661 90.898C48.2341 91.822 47.9681 92.891 47.9681 94.104V101.888C47.9681 103.12 48.2341 104.203 48.7661 105.136C49.289 106.061 50.073 106.811 51.0201 107.292C51.9901 107.796 53.1101 108.048 54.3801 108.048V108.048ZM66.9241 107.824C66.9683 107.825 67.0123 107.816 67.0532 107.8C67.0941 107.783 67.1312 107.758 67.162 107.726C67.1938 107.695 67.2188 107.658 67.2357 107.617C67.2526 107.576 67.2608 107.532 67.26 107.488V101.888C67.2669 101.829 67.2859 101.772 67.316 101.72L68.576 99.9C68.613 99.844 68.651 99.816 68.688 99.816C68.725 99.816 68.753 99.844 68.772 99.9L72.748 107.572C72.841 107.74 72.9721 107.824 73.1401 107.824H76.7241C76.9291 107.824 77.0321 107.749 77.0321 107.6C77.0252 107.541 77.0062 107.484 76.9761 107.432L71.4881 96.848C71.4693 96.784 71.4693 96.716 71.4881 96.652L76.6681 88.616C76.7431 88.504 76.7571 88.411 76.7101 88.336C76.6631 88.261 76.575 88.224 76.444 88.224H72.832C72.7525 88.2223 72.6741 88.2423 72.605 88.2817C72.536 88.3212 72.479 88.3787 72.44 88.448L67.428 96.064C67.409 96.12 67.377 96.139 67.33 96.12C67.283 96.101 67.26 96.064 67.26 96.008V88.56C67.2608 88.5157 67.2526 88.4718 67.2357 88.4308C67.2188 88.3899 67.1938 88.3529 67.162 88.322C67.1312 88.2903 67.0941 88.2652 67.0532 88.2484C67.0123 88.2315 66.9683 88.2232 66.9241 88.224H63.6481C63.6038 88.2232 63.5598 88.2315 63.5189 88.2484C63.478 88.2652 63.4409 88.2903 63.4101 88.322C63.3783 88.3529 63.3533 88.3899 63.3364 88.4308C63.3196 88.4718 63.3113 88.5157 63.3121 88.56V107.488C63.3121 107.581 63.3451 107.661 63.4101 107.726C63.4409 107.758 63.478 107.783 63.5189 107.8C63.5598 107.816 63.6038 107.825 63.6481 107.824H66.9241V107.824Z" fill="black"/>
</g>
<path d="M7.17205 19.824C7.21631 19.8248 7.26027 19.8165 7.3012 19.7996C7.34213 19.7828 7.37918 19.7577 7.41005 19.726C7.44178 19.6951 7.46684 19.6581 7.4837 19.6171C7.50055 19.5762 7.50884 19.5323 7.50805 19.488V11.844C7.50805 11.751 7.55505 11.704 7.64805 11.704H9.41205C9.46805 11.704 9.51505 11.741 9.55205 11.816L12.3801 19.544C12.4361 19.731 12.5671 19.824 12.7721 19.824H16.1881C16.3931 19.824 16.496 19.74 16.496 19.572C16.4977 19.5238 16.4881 19.4759 16.4681 19.432L13.2761 11.396C13.2391 11.303 13.2661 11.237 13.3601 11.2C14.2847 10.7949 15.0586 10.1092 15.5721 9.24C16.0951 8.363 16.3561 7.327 16.3561 6.132C16.3561 4.975 16.1231 3.948 15.6561 3.052C15.2104 2.17808 14.5195 1.45313 13.6681 0.966C12.8091 0.471 11.8291 0.223999 10.7281 0.223999H3.89605C3.85179 0.223208 3.80784 0.231497 3.7669 0.248352C3.72597 0.265207 3.68892 0.290271 3.65805 0.321999C3.62633 0.35287 3.60126 0.389917 3.58441 0.430851C3.56755 0.471785 3.55926 0.515738 3.56005 0.559999V19.488C3.56005 19.581 3.59305 19.661 3.65805 19.726C3.68892 19.7577 3.72597 19.7828 3.7669 19.7996C3.80784 19.8165 3.85179 19.8248 3.89605 19.824H7.17205V19.824ZM10.0841 8.68H7.64805C7.55505 8.68 7.50805 8.633 7.50805 8.54V3.752C7.50805 3.659 7.55505 3.612 7.64805 3.612H10.0841C10.7741 3.612 11.3341 3.841 11.7641 4.298C12.1941 4.755 12.4081 5.376 12.4081 6.16C12.4081 6.925 12.1931 7.537 11.7641 7.994C11.3341 8.451 10.7741 8.68 10.0841 8.68V8.68ZM24.9241 20.076C26.2121 20.076 27.3511 19.815 28.3401 19.292C29.3042 18.7936 30.1021 18.0249 30.6361 17.08C31.1771 16.128 31.4481 15.017 31.4481 13.748V6.3C31.4481 5.05 31.1781 3.948 30.6361 2.996C30.1021 2.05106 29.3042 1.28235 28.3401 0.783998C27.3501 0.260998 26.2121 0 24.9241 0C23.6361 0 22.5021 0.260998 21.5221 0.783998C20.5638 1.28558 19.7712 2.05383 19.2401 2.996C18.6991 3.948 18.4281 5.049 18.4281 6.3V13.748C18.4281 15.018 18.6981 16.128 19.2401 17.08C19.7712 18.0222 20.5638 18.7904 21.5221 19.292C22.5021 19.815 23.6361 20.076 24.9241 20.076ZM24.9241 16.688C24.1591 16.688 23.5431 16.431 23.0761 15.918C22.6091 15.405 22.3761 14.738 22.3761 13.916V6.188C22.3761 5.348 22.6091 4.671 23.0761 4.158C23.5431 3.645 24.1591 3.388 24.9241 3.388C25.7081 3.388 26.3341 3.645 26.8001 4.158C27.2671 4.671 27.5001 5.348 27.5001 6.188V13.916C27.5001 14.737 27.2671 15.405 26.8001 15.918C26.3331 16.431 25.7081 16.688 24.9241 16.688ZM40.1561 20.048C41.4261 20.048 42.5461 19.801 43.5161 19.306C44.4586 18.8378 45.2425 18.1026 45.7701 17.192C46.3021 16.277 46.5681 15.222 46.5681 14.028V13.944C46.5688 13.8997 46.5606 13.8558 46.5437 13.8149C46.5268 13.7739 46.5018 13.7369 46.4701 13.706C46.4392 13.6743 46.4021 13.6492 46.3612 13.6324C46.3203 13.6155 46.2763 13.6072 46.2321 13.608L42.9561 13.468C42.7321 13.468 42.6201 13.571 42.6201 13.776V14.14C42.6201 14.905 42.3961 15.517 41.9481 15.974C41.5001 16.431 40.9031 16.66 40.1561 16.66C39.4091 16.66 38.8121 16.431 38.3641 15.974C37.9161 15.517 37.6921 14.905 37.6921 14.14V5.936C37.6921 5.171 37.9161 4.555 38.3641 4.088C38.8121 3.621 39.4091 3.388 40.1561 3.388C40.9031 3.388 41.5001 3.621 41.9481 4.088C42.3961 4.555 42.6201 5.171 42.6201 5.936V6.3C42.6201 6.505 42.7321 6.608 42.9561 6.608L46.2321 6.468C46.2776 6.46827 46.3226 6.45835 46.3638 6.43897C46.4049 6.41959 46.4413 6.39124 46.4701 6.356C46.5331 6.28721 46.5681 6.1973 46.5681 6.104V5.964C46.5681 4.769 46.3021 3.724 45.7701 2.828C45.2381 1.932 44.4871 1.237 43.5161 0.741999C42.5461 0.246999 41.4261 0 40.1561 0C38.8861 0 37.7661 0.251999 36.7961 0.755999C35.8518 1.23482 35.0683 1.9794 34.5421 2.898C34.0101 3.822 33.7441 4.891 33.7441 6.104V13.888C33.7441 15.12 34.0101 16.203 34.5421 17.136C35.065 18.0607 35.849 18.8106 36.7961 19.292C37.7661 19.796 38.8861 20.048 40.1561 20.048ZM52.7001 19.824C52.7443 19.8248 52.7883 19.8165 52.8292 19.7996C52.8701 19.7828 52.9072 19.7577 52.9381 19.726C52.9698 19.6951 52.9948 19.6581 53.0117 19.6171C53.0286 19.5762 53.0368 19.5323 53.0361 19.488V13.888C53.0429 13.8287 53.0619 13.7715 53.0921 13.72L54.3521 11.9C54.3891 11.844 54.4271 11.816 54.4641 11.816C54.5011 11.816 54.5291 11.844 54.5481 11.9L58.5241 19.572C58.6171 19.74 58.748 19.824 58.916 19.824H62.5001C62.7051 19.824 62.8081 19.749 62.8081 19.6C62.8012 19.5407 62.7822 19.4835 62.7521 19.432L57.2641 8.848C57.2453 8.78402 57.2453 8.71598 57.2641 8.652L62.444 0.615999C62.519 0.503999 62.5331 0.410999 62.4861 0.335999C62.4391 0.260999 62.3511 0.223999 62.2201 0.223999H58.6081C58.5286 0.222333 58.4501 0.242292 58.3811 0.281744C58.312 0.321196 58.255 0.378661 58.2161 0.448L53.2041 8.064C53.1851 8.12 53.1531 8.139 53.1061 8.12C53.0591 8.101 53.0361 8.064 53.0361 8.008V0.559999C53.0368 0.515738 53.0286 0.471785 53.0117 0.430851C52.9948 0.389917 52.9698 0.35287 52.9381 0.321999C52.9072 0.290271 52.8701 0.265207 52.8292 0.248352C52.7883 0.231497 52.7443 0.223208 52.7001 0.223999H49.4241C49.3798 0.223208 49.3358 0.231497 49.2949 0.248352C49.254 0.265207 49.2169 0.290271 49.1861 0.321999C49.1543 0.35287 49.1293 0.389917 49.1124 0.430851C49.0956 0.471785 49.0873 0.515738 49.0881 0.559999V19.488C49.0881 19.581 49.1211 19.661 49.1861 19.726C49.2169 19.7577 49.254 19.7828 49.2949 19.7996C49.3358 19.8165 49.3798 19.8248 49.4241 19.824H52.7001V19.824ZM7.08805 41.824C7.13231 41.8248 7.17627 41.8165 7.2172 41.7996C7.25813 41.7828 7.29518 41.7577 7.32605 41.726C7.35778 41.6951 7.38284 41.6581 7.3997 41.6171C7.41655 41.5762 7.42484 41.5323 7.42405 41.488V34.208C7.42405 34.115 7.47105 34.068 7.56405 34.068H10.5881C11.7081 34.068 12.7021 33.825 13.5701 33.34C14.428 32.8649 15.1287 32.1496 15.5861 31.282C16.0621 30.395 16.3001 29.373 16.3001 28.216C16.3001 27.04 16.0621 25.995 15.5861 25.08C15.134 24.1906 14.4337 23.4514 13.5701 22.952C12.7021 22.448 11.7081 22.196 10.5881 22.196H3.81205C3.76779 22.1952 3.72384 22.2035 3.6829 22.2204C3.64197 22.2372 3.60492 22.2623 3.57405 22.294C3.54233 22.3249 3.51726 22.3619 3.5004 22.4028C3.48355 22.4438 3.47526 22.4877 3.47605 22.532V41.488C3.47605 41.581 3.50905 41.661 3.57405 41.726C3.60492 41.7577 3.64197 41.7828 3.6829 41.7996C3.72384 41.8165 3.76779 41.8248 3.81205 41.824H7.08805V41.824ZM9.94405 30.932H7.56405C7.47105 30.932 7.42405 30.885 7.42405 30.792V25.752C7.42405 25.659 7.47105 25.612 7.56405 25.612H9.94405C10.6721 25.612 11.2551 25.855 11.6941 26.34C12.1331 26.825 12.3521 27.479 12.3521 28.3C12.3521 29.103 12.1321 29.742 11.6941 30.218C11.2551 30.694 10.6721 30.932 9.94405 30.932ZM21.2281 41.824C21.4151 41.824 21.5361 41.731 21.5921 41.544L22.2361 38.8C22.2551 38.725 22.3011 38.688 22.3761 38.688H27.6121C27.6871 38.688 27.7331 38.725 27.7521 38.8L28.3961 41.544C28.4521 41.731 28.5831 41.824 28.7881 41.824H32.2041C32.4091 41.824 32.5121 41.74 32.5121 41.572L32.4841 41.46L27.4441 22.504C27.3881 22.317 27.2571 22.224 27.0521 22.224H22.9921C22.7871 22.224 22.656 22.317 22.6 22.504L17.5601 41.46C17.5041 41.703 17.5971 41.824 17.8401 41.824H21.2281V41.824ZM26.8281 35.636H23.1321C23.0911 35.6347 23.0517 35.62 23.0201 35.594C22.9831 35.566 22.9731 35.524 22.9921 35.468L24.8681 27.348C24.8871 27.273 24.9151 27.236 24.9521 27.236C24.9891 27.236 25.0171 27.273 25.0361 27.348L26.9681 35.468C26.9871 35.524 26.9781 35.566 26.9401 35.594C26.9084 35.62 26.869 35.6347 26.8281 35.636V35.636ZM38.1121 41.824C38.1563 41.8248 38.2003 41.8165 38.2412 41.7996C38.2821 41.7828 38.3192 41.7577 38.3501 41.726C38.3818 41.6951 38.4068 41.6581 38.4237 41.6171C38.4406 41.5762 38.4488 41.5323 38.4481 41.488V34.208C38.4481 34.115 38.4951 34.068 38.5881 34.068H41.6121C42.7321 34.068 43.7261 33.825 44.5941 33.34C45.452 32.8649 46.1527 32.1496 46.6101 31.282C47.0861 30.395 47.3241 29.373 47.3241 28.216C47.3241 27.04 47.0861 25.995 46.6101 25.08C46.158 24.1906 45.4577 23.4514 44.5941 22.952C43.7261 22.448 42.7321 22.196 41.6121 22.196H34.8361C34.7918 22.1952 34.7478 22.2035 34.7069 22.2204C34.666 22.2372 34.6289 22.2623 34.5981 22.294C34.5663 22.3249 34.5413 22.3619 34.5244 22.4028C34.5075 22.4438 34.4993 22.4877 34.5001 22.532V41.488C34.5001 41.581 34.5331 41.661 34.5981 41.726C34.6289 41.7577 34.666 41.7828 34.7069 41.7996C34.7478 41.8165 34.7918 41.8248 34.8361 41.824H38.1121V41.824ZM40.9681 30.932H38.5881C38.4951 30.932 38.4481 30.885 38.4481 30.792V25.752C38.4481 25.659 38.4951 25.612 38.5881 25.612H40.9681C41.6961 25.612 42.2791 25.855 42.7181 26.34C43.1571 26.825 43.3761 27.479 43.3761 28.3C43.3761 29.103 43.1561 29.742 42.7181 30.218C42.2791 30.694 41.6961 30.932 40.9681 30.932ZM61.0441 41.824C61.0883 41.8248 61.1323 41.8165 61.1732 41.7996C61.2141 41.7828 61.2512 41.7577 61.2821 41.726C61.3138 41.6951 61.3388 41.6581 61.3557 41.6171C61.3726 41.5762 61.3808 41.5323 61.3801 41.488V38.772C61.3808 38.7277 61.3726 38.6838 61.3557 38.6429C61.3388 38.6019 61.3138 38.5649 61.2821 38.534C61.2512 38.5023 61.2141 38.4772 61.1732 38.4604C61.1323 38.4435 61.0883 38.4352 61.0441 38.436H53.5401C53.4471 38.436 53.4001 38.389 53.4001 38.296V33.788C53.4001 33.695 53.4471 33.648 53.5401 33.648H58.2161C58.2603 33.6488 58.3043 33.6405 58.3452 33.6236C58.3861 33.6068 58.4232 33.5817 58.4541 33.55C58.4858 33.5191 58.5108 33.4821 58.5277 33.4411C58.5446 33.4002 58.5528 33.3563 58.5521 33.312V30.596C58.5528 30.5517 58.5446 30.5078 58.5277 30.4669C58.5108 30.4259 58.4858 30.3889 58.4541 30.358C58.4232 30.3263 58.3861 30.3012 58.3452 30.2844C58.3043 30.2675 58.2603 30.2592 58.2161 30.26H53.5401C53.4471 30.26 53.4001 30.213 53.4001 30.12V25.752C53.4001 25.659 53.4471 25.612 53.5401 25.612H61.0441C61.0883 25.6128 61.1323 25.6045 61.1732 25.5876C61.2141 25.5708 61.2512 25.5457 61.2821 25.514C61.3138 25.4831 61.3388 25.4461 61.3557 25.4051C61.3726 25.3642 61.3808 25.3203 61.3801 25.276V22.56C61.3808 22.5157 61.3726 22.4718 61.3557 22.4308C61.3388 22.3899 61.3138 22.3529 61.2821 22.322C61.2512 22.2903 61.2141 22.2652 61.1732 22.2484C61.1323 22.2315 61.0883 22.2232 61.0441 22.224H49.7881C49.7438 22.2232 49.6998 22.2315 49.6589 22.2484C49.618 22.2652 49.5809 22.2903 49.5501 22.322C49.5183 22.3529 49.4933 22.3899 49.4764 22.4308C49.4596 22.4718 49.4513 22.5157 49.4521 22.56V41.488C49.4521 41.581 49.4851 41.661 49.5501 41.726C49.5809 41.7577 49.618 41.7828 49.6589 41.7996C49.6998 41.8165 49.7438 41.8248 49.7881 41.824H61.0441ZM67.372 41.824C67.4163 41.8248 67.4603 41.8165 67.5012 41.7996C67.5421 41.7828 67.5792 41.7577 67.61 41.726C67.6418 41.6951 67.6668 41.6581 67.6837 41.6171C67.7006 41.5762 67.7088 41.5323 67.7081 41.488V33.844C67.7081 33.751 67.7551 33.704 67.8481 33.704H69.6121C69.6681 33.704 69.7151 33.741 69.7521 33.816L72.58 41.544C72.636 41.731 72.7671 41.824 72.9721 41.824H76.388C76.593 41.824 76.6961 41.74 76.6961 41.572C76.6977 41.5238 76.6881 41.4759 76.6681 41.432L73.4761 33.396C73.4391 33.303 73.4661 33.237 73.5601 33.2C74.4847 32.7949 75.2586 32.1092 75.772 31.24C76.295 30.363 76.5561 29.327 76.5561 28.132C76.5561 26.975 76.323 25.948 75.856 25.052C75.4104 24.1781 74.7195 23.4531 73.868 22.966C73.009 22.471 72.029 22.224 70.928 22.224H64.0961C64.0518 22.2232 64.0078 22.2315 63.9669 22.2484C63.926 22.2652 63.8889 22.2903 63.8581 22.322C63.8263 22.3529 63.8013 22.3899 63.7844 22.4308C63.7675 22.4718 63.7593 22.5157 63.7601 22.56V41.488C63.7601 41.581 63.7931 41.661 63.8581 41.726C63.8889 41.7577 63.926 41.7828 63.9669 41.7996C64.0078 41.8165 64.0518 41.8248 64.0961 41.824H67.372V41.824ZM70.284 30.68H67.8481C67.7551 30.68 67.7081 30.633 67.7081 30.54V25.752C67.7081 25.659 67.7551 25.612 67.8481 25.612H70.284C70.974 25.612 71.5341 25.841 71.9641 26.298C72.3941 26.755 72.608 27.376 72.608 28.16C72.608 28.925 72.3931 29.537 71.9641 29.994C71.5341 30.451 70.974 30.68 70.284 30.68V30.68ZM9.44005 64.048C11.3441 64.048 12.8701 63.548 14.0181 62.55C15.1661 61.551 15.7401 60.203 15.7401 58.504C15.7401 57.552 15.5351 56.74 15.1241 56.068C14.7319 55.4162 14.213 54.8497 13.5981 54.402C12.9911 53.963 12.1471 53.445 11.0641 52.848L10.4761 52.512C9.52405 52.045 8.81505 51.667 8.34805 51.378C7.88105 51.088 7.53605 50.785 7.31205 50.468C7.0846 50.1395 6.96698 49.7474 6.97605 49.348C6.97605 48.732 7.16705 48.251 7.55005 47.906C7.93305 47.561 8.46005 47.388 9.13205 47.388C9.93505 47.388 10.5691 47.612 11.0361 48.06C11.5031 48.508 11.7361 49.068 11.7361 49.74V50.244C11.7361 50.337 11.7691 50.417 11.8341 50.482C11.8649 50.5137 11.902 50.5388 11.9429 50.5556C11.9838 50.5725 12.0278 50.5808 12.0721 50.58H15.2921C15.3363 50.5808 15.3803 50.5725 15.4212 50.5556C15.4621 50.5388 15.4992 50.5137 15.5301 50.482C15.5618 50.4511 15.5868 50.4141 15.6037 50.3731C15.6206 50.3322 15.6288 50.2883 15.628 50.244V49.684C15.628 48.564 15.3581 47.574 14.8161 46.716C14.2751 45.857 13.5191 45.19 12.5481 44.714C11.5781 44.238 10.4671 44 9.21605 44C8.02105 44 6.95705 44.22 6.02405 44.658C5.09105 45.097 4.36705 45.722 3.85405 46.534C3.34105 47.346 3.08405 48.294 3.08405 49.376C3.08405 50.459 3.33605 51.383 3.84005 52.148C4.31796 52.8865 4.93635 53.5239 5.66005 54.024C6.37005 54.509 7.28405 55.032 8.40405 55.592C9.31905 56.059 9.99505 56.427 10.4341 56.698C10.8731 56.968 11.2141 57.258 11.4561 57.566C11.6991 57.874 11.8201 58.243 11.8201 58.672C11.8201 59.251 11.629 59.727 11.246 60.1C10.863 60.473 10.3081 60.66 9.58005 60.66C8.75905 60.66 8.10505 60.44 7.62005 60.002C7.38633 59.7988 7.20001 59.5468 7.07423 59.2638C6.94845 58.9808 6.88626 58.6736 6.89205 58.364V57.832C6.89284 57.7877 6.88456 57.7438 6.8677 57.7029C6.85085 57.6619 6.82578 57.6249 6.79405 57.594C6.76318 57.5623 6.72614 57.5372 6.6852 57.5203C6.64427 57.5035 6.60031 57.4952 6.55605 57.496H3.33605C3.29179 57.4952 3.24784 57.5035 3.2069 57.5203C3.16597 57.5372 3.12892 57.5623 3.09805 57.594C3.06632 57.6249 3.04126 57.6619 3.0244 57.7029C3.00755 57.7438 2.99926 57.7877 3.00005 57.832V58.56C3.00005 59.643 3.26605 60.6 3.79805 61.43C4.33005 62.26 5.08105 62.905 6.05205 63.362C7.02205 63.819 8.15205 64.048 9.44005 64.048V64.048ZM24.1961 64.048C25.4661 64.048 26.5861 63.801 27.5561 63.306C28.4986 62.8378 29.2825 62.1026 29.8101 61.192C30.3421 60.277 30.6081 59.222 30.6081 58.028V57.944C30.6088 57.8997 30.6006 57.8558 30.5837 57.8148C30.5668 57.7739 30.5418 57.7369 30.51 57.706C30.4792 57.6743 30.4421 57.6492 30.4012 57.6323C30.3603 57.6155 30.3163 57.6072 30.2721 57.608L26.996 57.468C26.772 57.468 26.6601 57.571 26.6601 57.776V58.14C26.6601 58.905 26.4361 59.517 25.9881 59.974C25.5401 60.431 24.9431 60.66 24.1961 60.66C23.4491 60.66 22.8521 60.431 22.4041 59.974C21.9561 59.517 21.732 58.905 21.732 58.14V49.936C21.732 49.171 21.9561 48.555 22.4041 48.088C22.8521 47.621 23.4491 47.388 24.1961 47.388C24.9431 47.388 25.5401 47.621 25.9881 48.088C26.4361 48.555 26.6601 49.171 26.6601 49.936V50.3C26.6601 50.505 26.772 50.608 26.996 50.608L30.2721 50.468C30.3176 50.4683 30.3626 50.4584 30.4037 50.439C30.4449 50.4196 30.4812 50.3912 30.51 50.356C30.5731 50.2872 30.6081 50.1973 30.6081 50.104V49.964C30.6081 48.769 30.3421 47.724 29.8101 46.828C29.2781 45.932 28.5271 45.237 27.5561 44.742C26.5861 44.247 25.4661 44 24.1961 44C22.9261 44 21.8061 44.252 20.8361 44.756C19.8918 45.2348 19.1083 45.9794 18.5821 46.898C18.0501 47.822 17.7841 48.891 17.7841 50.104V57.888C17.7841 59.12 18.0501 60.203 18.5821 61.136C19.105 62.0607 19.889 62.8106 20.8361 63.292C21.8061 63.796 22.9261 64.048 24.1961 64.048V64.048ZM36.7401 63.824C36.7843 63.8248 36.8283 63.8165 36.8692 63.7996C36.9101 63.7828 36.9472 63.7577 36.9781 63.726C37.0098 63.6951 37.0348 63.6581 37.0517 63.6171C37.0686 63.5762 37.0768 63.5323 37.0761 63.488V44.56C37.0768 44.5157 37.0686 44.4718 37.0517 44.4308C37.0348 44.3899 37.0098 44.3529 36.9781 44.322C36.9472 44.2903 36.9101 44.2652 36.8692 44.2484C36.8283 44.2315 36.7843 44.2232 36.7401 44.224H33.4641C33.4198 44.2232 33.3758 44.2315 33.3349 44.2484C33.294 44.2652 33.2569 44.2903 33.2261 44.322C33.1943 44.3529 33.1693 44.3899 33.1524 44.4308C33.1355 44.4718 33.1273 44.5157 33.128 44.56V63.488C33.128 63.581 33.1611 63.661 33.2261 63.726C33.2569 63.7577 33.294 63.7828 33.3349 63.7996C33.3758 63.8165 33.4198 63.8248 33.4641 63.824H36.7401ZM45.8961 64.048C47.8001 64.048 49.3261 63.548 50.4741 62.55C51.6221 61.551 52.1961 60.203 52.1961 58.504C52.1961 57.552 51.9911 56.74 51.5801 56.068C51.1879 55.4162 50.669 54.8497 50.0541 54.402C49.4471 53.963 48.6031 53.445 47.5201 52.848L46.9321 52.512C45.9801 52.045 45.2711 51.667 44.8041 51.378C44.3371 51.088 43.9921 50.785 43.7681 50.468C43.5406 50.1395 43.423 49.7474 43.4321 49.348C43.4321 48.732 43.6231 48.251 44.0061 47.906C44.3891 47.561 44.9161 47.388 45.5881 47.388C46.3911 47.388 47.0251 47.612 47.4921 48.06C47.9591 48.508 48.1921 49.068 48.1921 49.74V50.244C48.1921 50.337 48.2251 50.417 48.2901 50.482C48.3209 50.5137 48.358 50.5388 48.3989 50.5556C48.4398 50.5725 48.4838 50.5808 48.5281 50.58H51.7481C51.7923 50.5808 51.8363 50.5725 51.8772 50.5556C51.9181 50.5388 51.9552 50.5137 51.9861 50.482C52.0178 50.4511 52.0428 50.4141 52.0597 50.3731C52.0766 50.3322 52.0848 50.2883 52.0841 50.244V49.684C52.0841 48.564 51.8141 47.574 51.2721 46.716C50.7311 45.857 49.9751 45.19 49.0041 44.714C48.0341 44.238 46.9231 44 45.6721 44C44.4771 44 43.4131 44.22 42.4801 44.658C41.5471 45.097 40.8231 45.722 40.3101 46.534C39.7971 47.346 39.5401 48.294 39.5401 49.376C39.5401 50.459 39.7921 51.383 40.2961 52.148C40.774 52.8865 41.3923 53.5239 42.1161 54.024C42.8261 54.509 43.7401 55.032 44.8601 55.592C45.7751 56.059 46.4511 56.427 46.8901 56.698C47.3291 56.968 47.6701 57.258 47.9121 57.566C48.1551 57.874 48.2761 58.243 48.2761 58.672C48.2761 59.251 48.0851 59.727 47.7021 60.1C47.3191 60.473 46.7641 60.66 46.0361 60.66C45.2151 60.66 44.5611 60.44 44.0761 60.002C43.8423 59.7988 43.656 59.5468 43.5302 59.2638C43.4044 58.9808 43.3423 58.6736 43.3481 58.364V57.832C43.3488 57.7877 43.3406 57.7438 43.3237 57.7029C43.3068 57.6619 43.2818 57.6249 43.2501 57.594C43.2192 57.5623 43.1821 57.5372 43.1412 57.5203C43.1003 57.5035 43.0563 57.4952 43.0121 57.496H39.7921C39.7478 57.4952 39.7038 57.5035 39.6629 57.5203C39.622 57.5372 39.5849 57.5623 39.5541 57.594C39.5223 57.6249 39.4973 57.6619 39.4804 57.7029C39.4635 57.7438 39.4553 57.7877 39.4561 57.832V58.56C39.4561 59.643 39.7221 60.6 40.2541 61.43C40.7861 62.26 41.5371 62.905 42.5081 63.362C43.4781 63.819 44.6081 64.048 45.8961 64.048V64.048ZM60.4561 64.048C62.3601 64.048 63.8861 63.548 65.0341 62.55C66.1821 61.551 66.7561 60.203 66.7561 58.504C66.7561 57.552 66.5511 56.74 66.1401 56.068C65.7479 55.4162 65.229 54.8497 64.6141 54.402C64.0071 53.963 63.1631 53.445 62.0801 52.848L61.4921 52.512C60.5401 52.045 59.8311 51.667 59.3641 51.378C58.8971 51.088 58.5521 50.785 58.3281 50.468C58.1006 50.1395 57.983 49.7474 57.9921 49.348C57.9921 48.732 58.1831 48.251 58.5661 47.906C58.9491 47.561 59.4761 47.388 60.1481 47.388C60.9511 47.388 61.5851 47.612 62.0521 48.06C62.5191 48.508 62.7521 49.068 62.7521 49.74V50.244C62.7521 50.337 62.7851 50.417 62.8501 50.482C62.8809 50.5137 62.918 50.5388 62.9589 50.5556C62.9998 50.5725 63.0438 50.5808 63.0881 50.58H66.3081C66.3523 50.5808 66.3963 50.5725 66.4372 50.5556C66.4781 50.5388 66.5152 50.5137 66.5461 50.482C66.5778 50.4511 66.6028 50.4141 66.6197 50.3731C66.6366 50.3322 66.6448 50.2883 66.6441 50.244V49.684C66.6441 48.564 66.3741 47.574 65.8321 46.716C65.2911 45.857 64.5351 45.19 63.5641 44.714C62.5941 44.238 61.4831 44 60.2321 44C59.0371 44 57.9731 44.22 57.0401 44.658C56.1071 45.097 55.3831 45.722 54.8701 46.534C54.3571 47.346 54.1001 48.294 54.1001 49.376C54.1001 50.459 54.3521 51.383 54.8561 52.148C55.334 52.8865 55.9523 53.5239 56.6761 54.024C57.3861 54.509 58.3001 55.032 59.4201 55.592C60.3351 56.059 61.0111 56.427 61.4501 56.698C61.8891 56.968 62.2301 57.258 62.4721 57.566C62.7151 57.874 62.8361 58.243 62.8361 58.672C62.8361 59.251 62.6451 59.727 62.2621 60.1C61.8791 60.473 61.3241 60.66 60.5961 60.66C59.7751 60.66 59.1211 60.44 58.6361 60.002C58.4023 59.7988 58.216 59.5468 58.0902 59.2638C57.9644 58.9808 57.9023 58.6736 57.9081 58.364V57.832C57.9088 57.7877 57.9006 57.7438 57.8837 57.7029C57.8668 57.6619 57.8418 57.6249 57.8101 57.594C57.7792 57.5623 57.7421 57.5372 57.7012 57.5203C57.6603 57.5035 57.6163 57.4952 57.5721 57.496H54.3521C54.3078 57.4952 54.2638 57.5035 54.2229 57.5203C54.182 57.5372 54.1449 57.5623 54.1141 57.594C54.0823 57.6249 54.0573 57.6619 54.0404 57.7029C54.0236 57.7438 54.0153 57.7877 54.0161 57.832V58.56C54.0161 59.643 54.2821 60.6 54.8141 61.43C55.3461 62.26 56.0971 62.905 57.0681 63.362C58.0381 63.819 59.1681 64.048 60.4561 64.048V64.048ZM75.2961 64.076C76.5841 64.076 77.7231 63.815 78.7121 63.292C79.6762 62.7937 80.4741 62.0249 81.008 61.08C81.549 60.128 81.8201 59.017 81.8201 57.748V50.3C81.8201 49.05 81.55 47.948 81.008 46.996C80.4741 46.0511 79.6762 45.2823 78.7121 44.784C77.7221 44.261 76.5841 44 75.2961 44C74.0081 44 72.8741 44.261 71.8941 44.784C70.9358 45.2856 70.1432 46.0538 69.6121 46.996C69.0711 47.948 68.8 49.049 68.8 50.3V57.748C68.8 59.018 69.0701 60.128 69.6121 61.08C70.1432 62.0222 70.9358 62.7904 71.8941 63.292C72.8741 63.815 74.0081 64.076 75.2961 64.076ZM75.2961 60.688C74.5311 60.688 73.9151 60.431 73.4481 59.918C72.9811 59.405 72.748 58.738 72.748 57.916V50.188C72.748 49.348 72.9811 48.671 73.4481 48.158C73.9151 47.645 74.5311 47.388 75.2961 47.388C76.0801 47.388 76.7061 47.645 77.1721 48.158C77.6391 48.671 77.872 49.348 77.872 50.188V57.916C77.872 58.737 77.6391 59.405 77.1721 59.918C76.7051 60.431 76.0801 60.688 75.2961 60.688ZM88.064 63.824C88.1083 63.8248 88.1523 63.8165 88.1932 63.7996C88.2341 63.7828 88.2712 63.7577 88.302 63.726C88.3338 63.6951 88.3588 63.6581 88.3757 63.6171C88.3925 63.5762 88.4008 63.5323 88.4 63.488V55.844C88.4 55.751 88.447 55.704 88.54 55.704H90.304C90.36 55.704 90.407 55.741 90.444 55.816L93.272 63.544C93.328 63.731 93.459 63.824 93.664 63.824H97.08C97.285 63.824 97.388 63.74 97.388 63.572C97.3897 63.5238 97.3801 63.4759 97.36 63.432L94.1681 55.396C94.1311 55.303 94.1581 55.237 94.2521 55.2C95.1767 54.7949 95.9506 54.1092 96.4641 53.24C96.9871 52.363 97.248 51.327 97.248 50.132C97.248 48.975 97.015 47.948 96.548 47.052C96.1024 46.1781 95.4115 45.4531 94.5601 44.966C93.7011 44.471 92.721 44.224 91.62 44.224H84.788C84.7438 44.2232 84.6998 44.2315 84.6589 44.2484C84.618 44.2652 84.5809 44.2903 84.55 44.322C84.5183 44.3529 84.4933 44.3899 84.4764 44.4308C84.4595 44.4718 84.4513 44.5157 84.452 44.56V63.488C84.452 63.581 84.485 63.661 84.55 63.726C84.5809 63.7577 84.618 63.7828 84.6589 63.7996C84.6998 63.8165 84.7438 63.8248 84.788 63.824H88.064V63.824ZM90.9761 52.68H88.54C88.447 52.68 88.4 52.633 88.4 52.54V47.752C88.4 47.659 88.447 47.612 88.54 47.612H90.9761C91.6661 47.612 92.2261 47.841 92.6561 48.298C93.0861 48.755 93.3 49.376 93.3 50.16C93.3 50.925 93.0851 51.537 92.6561 51.994C92.2261 52.451 91.6661 52.68 90.9761 52.68V52.68ZM105.536 64.048C107.44 64.048 108.966 63.548 110.114 62.55C111.262 61.551 111.836 60.203 111.836 58.504C111.836 57.552 111.631 56.74 111.22 56.068C110.828 55.4162 110.309 54.8497 109.694 54.402C109.087 53.963 108.243 53.445 107.16 52.848L106.572 52.512C105.62 52.045 104.911 51.667 104.444 51.378C103.977 51.088 103.632 50.785 103.408 50.468C103.181 50.1395 103.063 49.7474 103.072 49.348C103.072 48.732 103.263 48.251 103.646 47.906C104.029 47.561 104.556 47.388 105.228 47.388C106.031 47.388 106.665 47.612 107.132 48.06C107.599 48.508 107.832 49.068 107.832 49.74V50.244C107.832 50.337 107.865 50.417 107.93 50.482C107.961 50.5137 107.998 50.5388 108.039 50.5556C108.08 50.5725 108.124 50.5808 108.168 50.58H111.388C111.432 50.5808 111.476 50.5725 111.517 50.5556C111.558 50.5388 111.595 50.5137 111.626 50.482C111.658 50.4511 111.683 50.4141 111.7 50.3731C111.717 50.3322 111.725 50.2883 111.724 50.244V49.684C111.724 48.564 111.454 47.574 110.912 46.716C110.371 45.857 109.615 45.19 108.644 44.714C107.674 44.238 106.563 44 105.312 44C104.117 44 103.053 44.22 102.12 44.658C101.187 45.097 100.463 45.722 99.95 46.534C99.437 47.346 99.1801 48.294 99.1801 49.376C99.1801 50.459 99.4321 51.383 99.9361 52.148C100.414 52.8865 101.032 53.5239 101.756 54.024C102.466 54.509 103.38 55.032 104.5 55.592C105.415 56.059 106.091 56.427 106.53 56.698C106.969 56.968 107.31 57.258 107.552 57.566C107.795 57.874 107.916 58.243 107.916 58.672C107.916 59.251 107.725 59.727 107.342 60.1C106.959 60.473 106.404 60.66 105.676 60.66C104.855 60.66 104.201 60.44 103.716 60.002C103.482 59.7988 103.296 59.5468 103.17 59.2638C103.044 58.9808 102.982 58.6736 102.988 58.364V57.832C102.989 57.7877 102.981 57.7438 102.964 57.7029C102.947 57.6619 102.922 57.6249 102.89 57.594C102.859 57.5623 102.822 57.5372 102.781 57.5203C102.74 57.5035 102.696 57.4952 102.652 57.496H99.4321C99.3878 57.4952 99.3438 57.5035 99.3029 57.5203C99.262 57.5372 99.2249 57.5623 99.194 57.594C99.1623 57.6249 99.1373 57.6619 99.1204 57.7029C99.1036 57.7438 99.0953 57.7877 99.0961 57.832V58.56C99.0961 59.643 99.362 60.6 99.894 61.43C100.426 62.26 101.177 62.905 102.148 63.362C103.118 63.819 104.248 64.048 105.536 64.048V64.048ZM15.1521 85.824C15.1963 85.8248 15.2403 85.8165 15.2812 85.7996C15.3221 85.7828 15.3592 85.7577 15.3901 85.726C15.4218 85.6951 15.4468 85.6581 15.4637 85.6171C15.4806 85.5762 15.4888 85.5323 15.4881 85.488V82.772C15.4888 82.7277 15.4806 82.6838 15.4637 82.6428C15.4468 82.6019 15.4218 82.5649 15.3901 82.534C15.3592 82.5023 15.3221 82.4772 15.2812 82.4604C15.2403 82.4435 15.1963 82.4352 15.1521 82.436H7.64805C7.55505 82.436 7.50805 82.389 7.50805 82.296V66.56C7.50884 66.5157 7.50055 66.4718 7.4837 66.4308C7.46684 66.3899 7.44178 66.3529 7.41005 66.322C7.37918 66.2903 7.34213 66.2652 7.3012 66.2484C7.26027 66.2315 7.21631 66.2232 7.17205 66.224H3.89605C3.85179 66.2232 3.80784 66.2315 3.7669 66.2484C3.72597 66.2652 3.68892 66.2903 3.65805 66.322C3.62633 66.3529 3.60126 66.3899 3.58441 66.4308C3.56755 66.4718 3.55926 66.5157 3.56005 66.56V85.488C3.56005 85.581 3.59305 85.661 3.65805 85.726C3.68892 85.7577 3.72597 85.7828 3.7669 85.7996C3.80784 85.8165 3.85179 85.8248 3.89605 85.824H15.1521ZM21.1441 85.824C21.1883 85.8248 21.2323 85.8165 21.2732 85.7996C21.3141 85.7828 21.3512 85.7577 21.3821 85.726C21.4138 85.6951 21.4388 85.6581 21.4557 85.6171C21.4726 85.5762 21.4808 85.5323 21.4801 85.488V66.56C21.4808 66.5157 21.4726 66.4718 21.4557 66.4308C21.4388 66.3899 21.4138 66.3529 21.3821 66.322C21.3512 66.2903 21.3141 66.2652 21.2732 66.2484C21.2323 66.2315 21.1883 66.2232 21.1441 66.224H17.8681C17.8238 66.2232 17.7798 66.2315 17.7389 66.2484C17.698 66.2652 17.6609 66.2903 17.6301 66.322C17.5983 66.3529 17.5733 66.3899 17.5564 66.4308C17.5396 66.4718 17.5313 66.5157 17.5321 66.56V85.488C17.5321 85.581 17.5651 85.661 17.6301 85.726C17.6609 85.7577 17.698 85.7828 17.7389 85.7996C17.7798 85.8165 17.8238 85.8248 17.8681 85.824H21.1441ZM35.3121 85.824C35.3563 85.8248 35.4003 85.8165 35.4412 85.7996C35.4821 85.7828 35.5192 85.7577 35.5501 85.726C35.5818 85.6951 35.6068 85.6581 35.6237 85.6171C35.6406 85.5762 35.6488 85.5323 35.6481 85.488V82.772C35.6488 82.7277 35.6406 82.6838 35.6237 82.6428C35.6068 82.6019 35.5818 82.5649 35.5501 82.534C35.5192 82.5023 35.4821 82.4772 35.4412 82.4604C35.4003 82.4435 35.3563 82.4352 35.3121 82.436H28.1161C28.0041 82.436 27.9761 82.38 28.0321 82.268L35.5361 69.92C35.6099 69.7924 35.6485 69.6474 35.6481 69.5V66.56C35.6488 66.5157 35.6406 66.4718 35.6237 66.4308C35.6068 66.3899 35.5818 66.3529 35.5501 66.322C35.5192 66.2903 35.4821 66.2652 35.4412 66.2484C35.4003 66.2315 35.3563 66.2232 35.3121 66.224H24.0001C23.9558 66.2232 23.9118 66.2315 23.8709 66.2484C23.83 66.2652 23.7929 66.2903 23.7621 66.322C23.7303 66.3529 23.7053 66.3899 23.6884 66.4308C23.6716 66.4718 23.6633 66.5157 23.6641 66.56V69.276C23.6641 69.369 23.6971 69.449 23.7621 69.514C23.7929 69.5457 23.83 69.5708 23.8709 69.5876C23.9118 69.6045 23.9558 69.6128 24.0001 69.612H31.1961C31.3081 69.612 31.3361 69.668 31.2801 69.78L23.7761 82.128C23.7022 82.2556 23.6636 82.4006 23.6641 82.548V85.488C23.6641 85.581 23.6971 85.661 23.7621 85.726C23.7929 85.7577 23.83 85.7828 23.8709 85.7996C23.9118 85.8165 23.9558 85.8248 24.0001 85.824H35.3121V85.824ZM40.8001 85.824C40.9871 85.824 41.1081 85.731 41.1641 85.544L41.8081 82.8C41.8271 82.725 41.8731 82.688 41.9481 82.688H47.1841C47.2591 82.688 47.3051 82.725 47.3241 82.8L47.9681 85.544C48.0241 85.731 48.1551 85.824 48.3601 85.824H51.7761C51.9811 85.824 52.0841 85.74 52.0841 85.572L52.0561 85.46L47.0161 66.504C46.9601 66.317 46.8291 66.224 46.6241 66.224H42.5641C42.3591 66.224 42.2281 66.317 42.1721 66.504L37.1321 85.46C37.0761 85.703 37.1691 85.824 37.4121 85.824H40.8001V85.824ZM46.4001 79.636H42.7041C42.6631 79.6347 42.6237 79.6199 42.5921 79.594C42.5551 79.566 42.5451 79.524 42.5641 79.468L44.4401 71.348C44.4591 71.273 44.4871 71.236 44.5241 71.236C44.5611 71.236 44.5891 71.273 44.6081 71.348L46.5401 79.468C46.5591 79.524 46.5501 79.566 46.5121 79.594C46.4804 79.6199 46.441 79.6347 46.4001 79.636V79.636ZM57.7681 85.824C57.8123 85.8248 57.8563 85.8165 57.8972 85.7996C57.9381 85.7828 57.9752 85.7577 58.0061 85.726C58.0378 85.6951 58.0628 85.6581 58.0797 85.6171C58.0966 85.5762 58.1048 85.5323 58.1041 85.488V77.844C58.1041 77.751 58.1511 77.704 58.2441 77.704H60.0081C60.0641 77.704 60.1111 77.741 60.1481 77.816L62.9761 85.544C63.0321 85.731 63.1631 85.824 63.3681 85.824H66.7841C66.9891 85.824 67.092 85.74 67.092 85.572C67.0937 85.5238 67.0841 85.4759 67.064 85.432L63.8721 77.396C63.8351 77.303 63.8621 77.237 63.9561 77.2C64.8807 76.7949 65.6546 76.1092 66.1681 75.24C66.6911 74.363 66.9521 73.327 66.9521 72.132C66.9521 70.975 66.7191 69.948 66.2521 69.052C65.8064 68.1781 65.1155 67.4531 64.2641 66.966C63.4051 66.471 62.4251 66.224 61.3241 66.224H54.4921C54.4478 66.2232 54.4038 66.2315 54.3629 66.2484C54.322 66.2652 54.2849 66.2903 54.2541 66.322C54.2223 66.3529 54.1973 66.3899 54.1804 66.4308C54.1636 66.4718 54.1553 66.5157 54.1561 66.56V85.488C54.1561 85.581 54.1891 85.661 54.2541 85.726C54.2849 85.7577 54.322 85.7828 54.3629 85.7996C54.4038 85.8165 54.4478 85.8248 54.4921 85.824H57.7681V85.824ZM60.68 74.68H58.2441C58.1511 74.68 58.1041 74.633 58.1041 74.54V69.752C58.1041 69.659 58.1511 69.612 58.2441 69.612H60.68C61.37 69.612 61.9301 69.841 62.3601 70.298C62.7901 70.755 63.0041 71.376 63.0041 72.16C63.0041 72.925 62.7891 73.537 62.3601 73.994C61.9301 74.451 61.37 74.68 60.68 74.68V74.68ZM75.716 85.824C76.966 85.824 78.073 85.591 79.034 85.124C79.9951 84.657 80.737 83.994 81.26 83.136C81.783 82.277 82.0441 81.279 82.0441 80.14V71.908C82.0441 70.769 81.783 69.771 81.26 68.912C80.737 68.053 79.9951 67.391 79.034 66.924C78.073 66.457 76.967 66.224 75.716 66.224H69.6961C69.6518 66.2232 69.6078 66.2315 69.5669 66.2484C69.526 66.2652 69.4889 66.2903 69.4581 66.322C69.4263 66.3529 69.4013 66.3899 69.3844 66.4308C69.3675 66.4718 69.3593 66.5157 69.36 66.56V85.488C69.36 85.581 69.3931 85.661 69.4581 85.726C69.4889 85.7577 69.526 85.7828 69.5669 85.7996C69.6078 85.8165 69.6518 85.8248 69.6961 85.824H75.716ZM73.4481 82.436C73.3551 82.436 73.3081 82.389 73.3081 82.296V69.752C73.3081 69.659 73.3551 69.612 73.4481 69.612H75.744C76.454 69.612 77.023 69.859 77.452 70.354C77.882 70.849 78.096 71.516 78.096 72.356V79.692C78.077 80.513 77.853 81.172 77.424 81.666C76.994 82.161 76.434 82.408 75.744 82.408L73.4481 82.436V82.436ZM9.44005 108.048C11.3441 108.048 12.8701 107.548 14.0181 106.55C15.1661 105.551 15.7401 104.203 15.7401 102.504C15.7401 101.552 15.5351 100.74 15.1241 100.068C14.7319 99.4162 14.213 98.8497 13.5981 98.402C12.9911 97.963 12.1471 97.445 11.0641 96.848L10.4761 96.512C9.52405 96.045 8.81505 95.667 8.34805 95.378C7.88105 95.088 7.53605 94.785 7.31205 94.468C7.0846 94.1395 6.96698 93.7474 6.97605 93.348C6.97605 92.732 7.16705 92.251 7.55005 91.906C7.93305 91.561 8.46005 91.388 9.13205 91.388C9.93505 91.388 10.5691 91.612 11.0361 92.06C11.5031 92.508 11.7361 93.068 11.7361 93.74V94.244C11.7361 94.337 11.7691 94.417 11.8341 94.482C11.8649 94.5137 11.902 94.5388 11.9429 94.5556C11.9838 94.5725 12.0278 94.5808 12.0721 94.58H15.2921C15.3363 94.5808 15.3803 94.5725 15.4212 94.5556C15.4621 94.5388 15.4992 94.5137 15.5301 94.482C15.5618 94.4511 15.5868 94.4141 15.6037 94.3731C15.6206 94.3322 15.6288 94.2883 15.628 94.244V93.684C15.628 92.564 15.3581 91.574 14.8161 90.716C14.2751 89.857 13.5191 89.19 12.5481 88.714C11.5781 88.238 10.4671 88 9.21605 88C8.02105 88 6.95705 88.22 6.02405 88.658C5.09105 89.097 4.36705 89.722 3.85405 90.534C3.34105 91.346 3.08405 92.294 3.08405 93.376C3.08405 94.459 3.33605 95.383 3.84005 96.148C4.31796 96.8865 4.93635 97.5239 5.66005 98.024C6.37005 98.509 7.28405 99.032 8.40405 99.592C9.31905 100.059 9.99505 100.427 10.4341 100.698C10.8731 100.968 11.2141 101.258 11.4561 101.566C11.6991 101.874 11.8201 102.243 11.8201 102.672C11.8201 103.251 11.629 103.727 11.246 104.1C10.863 104.473 10.3081 104.66 9.58005 104.66C8.75905 104.66 8.10505 104.44 7.62005 104.002C7.38633 103.799 7.20001 103.547 7.07423 103.264C6.94845 102.981 6.88626 102.674 6.89205 102.364V101.832C6.89284 101.788 6.88456 101.744 6.8677 101.703C6.85085 101.662 6.82578 101.625 6.79405 101.594C6.76318 101.562 6.72614 101.537 6.6852 101.52C6.64427 101.503 6.60031 101.495 6.55605 101.496H3.33605C3.29179 101.495 3.24784 101.503 3.2069 101.52C3.16597 101.537 3.12892 101.562 3.09805 101.594C3.06632 101.625 3.04126 101.662 3.0244 101.703C3.00755 101.744 2.99926 101.788 3.00005 101.832V102.56C3.00005 103.643 3.26605 104.6 3.79805 105.43C4.33005 106.26 5.08105 106.905 6.05205 107.362C7.02205 107.819 8.15205 108.048 9.44005 108.048V108.048ZM21.6481 107.824C21.6923 107.825 21.7363 107.816 21.7772 107.8C21.8181 107.783 21.8552 107.758 21.8861 107.726C21.9178 107.695 21.9428 107.658 21.9597 107.617C21.9766 107.576 21.9848 107.532 21.9841 107.488V100.208C21.9841 100.115 22.0311 100.068 22.1241 100.068H25.1481C26.2681 100.068 27.2621 99.825 28.1301 99.34C28.988 98.8649 29.6887 98.1496 30.1461 97.282C30.6221 96.395 30.8601 95.373 30.8601 94.216C30.8601 93.04 30.6221 91.995 30.1461 91.08C29.694 90.1906 28.9937 89.4514 28.1301 88.952C27.2621 88.448 26.2681 88.196 25.1481 88.196H18.3721C18.3278 88.1952 18.2838 88.2035 18.2429 88.2204C18.202 88.2372 18.1649 88.2623 18.1341 88.294C18.1023 88.3249 18.0773 88.3619 18.0604 88.4028C18.0435 88.4438 18.0353 88.4877 18.0361 88.532V107.488C18.0361 107.581 18.0691 107.661 18.1341 107.726C18.1649 107.758 18.202 107.783 18.2429 107.8C18.2838 107.816 18.3278 107.825 18.3721 107.824H21.6481ZM24.5041 96.932H22.1241C22.0311 96.932 21.9841 96.885 21.9841 96.792V91.752C21.9841 91.659 22.0311 91.612 22.1241 91.612H24.5041C25.2321 91.612 25.8151 91.855 26.2541 92.34C26.6931 92.825 26.9121 93.479 26.9121 94.3C26.9121 95.103 26.6921 95.742 26.2541 96.218C25.8151 96.694 25.2321 96.932 24.5041 96.932V96.932ZM39.1481 108.076C40.4361 108.076 41.5751 107.815 42.5641 107.292C43.5282 106.794 44.3261 106.025 44.8601 105.08C45.4011 104.128 45.6721 103.017 45.6721 101.748V94.3C45.6721 93.05 45.4021 91.948 44.8601 90.996C44.3261 90.0511 43.5282 89.2823 42.5641 88.784C41.5741 88.261 40.4361 88 39.1481 88C37.8601 88 36.7261 88.261 35.7461 88.784C34.7878 89.2856 33.9952 90.0538 33.4641 90.996C32.9231 91.948 32.6521 93.049 32.6521 94.3V101.748C32.6521 103.018 32.9221 104.128 33.4641 105.08C33.9952 106.022 34.7878 106.79 35.7461 107.292C36.7261 107.815 37.8601 108.076 39.1481 108.076ZM39.1481 104.688C38.3831 104.688 37.7671 104.431 37.3001 103.918C36.8331 103.405 36.6001 102.738 36.6001 101.916V94.188C36.6001 93.348 36.8331 92.671 37.3001 92.158C37.7671 91.645 38.3831 91.388 39.1481 91.388C39.9321 91.388 40.5581 91.645 41.0241 92.158C41.4911 92.671 41.7241 93.348 41.7241 94.188V101.916C41.7241 102.737 41.4911 103.405 41.0241 103.918C40.5571 104.431 39.9321 104.688 39.1481 104.688ZM54.3801 108.048C55.6501 108.048 56.7701 107.801 57.7401 107.306C58.6826 106.838 59.4665 106.103 59.9941 105.192C60.5261 104.277 60.7921 103.222 60.7921 102.028V101.944C60.7928 101.9 60.7846 101.856 60.7677 101.815C60.7508 101.774 60.7258 101.737 60.694 101.706C60.6632 101.674 60.6261 101.649 60.5852 101.632C60.5443 101.615 60.5003 101.607 60.4561 101.608L57.18 101.468C56.956 101.468 56.8441 101.571 56.8441 101.776V102.14C56.8441 102.905 56.6201 103.517 56.1721 103.974C55.7241 104.431 55.1271 104.66 54.3801 104.66C53.6331 104.66 53.0361 104.431 52.5881 103.974C52.1401 103.517 51.916 102.905 51.916 102.14V93.936C51.916 93.171 52.1401 92.555 52.5881 92.088C53.0361 91.621 53.6331 91.388 54.3801 91.388C55.1271 91.388 55.7241 91.621 56.1721 92.088C56.6201 92.555 56.8441 93.171 56.8441 93.936V94.3C56.8441 94.505 56.956 94.608 57.18 94.608L60.4561 94.468C60.5016 94.4683 60.5466 94.4584 60.5877 94.439C60.6289 94.4196 60.6652 94.3912 60.694 94.356C60.7571 94.2872 60.7921 94.1973 60.7921 94.104V93.964C60.7921 92.769 60.5261 91.724 59.9941 90.828C59.4621 89.932 58.7111 89.237 57.7401 88.742C56.7701 88.247 55.6501 88 54.3801 88C53.1101 88 51.9901 88.252 51.0201 88.756C50.0758 89.2348 49.2923 89.9794 48.7661 90.898C48.2341 91.822 47.9681 92.891 47.9681 94.104V101.888C47.9681 103.12 48.2341 104.203 48.7661 105.136C49.289 106.061 50.073 106.811 51.0201 107.292C51.9901 107.796 53.1101 108.048 54.3801 108.048V108.048ZM66.9241 107.824C66.9683 107.825 67.0123 107.816 67.0532 107.8C67.0941 107.783 67.1312 107.758 67.162 107.726C67.1938 107.695 67.2188 107.658 67.2357 107.617C67.2526 107.576 67.2608 107.532 67.26 107.488V101.888C67.2669 101.829 67.2859 101.772 67.316 101.72L68.576 99.9C68.613 99.844 68.651 99.816 68.688 99.816C68.725 99.816 68.753 99.844 68.772 99.9L72.748 107.572C72.841 107.74 72.9721 107.824 73.1401 107.824H76.7241C76.9291 107.824 77.0321 107.749 77.0321 107.6C77.0252 107.541 77.0062 107.484 76.9761 107.432L71.4881 96.848C71.4693 96.784 71.4693 96.716 71.4881 96.652L76.6681 88.616C76.7431 88.504 76.7571 88.411 76.7101 88.336C76.6631 88.261 76.575 88.224 76.444 88.224H72.832C72.7525 88.2223 72.6741 88.2423 72.605 88.2817C72.536 88.3212 72.479 88.3787 72.44 88.448L67.428 96.064C67.409 96.12 67.377 96.139 67.33 96.12C67.283 96.101 67.26 96.064 67.26 96.008V88.56C67.2608 88.5157 67.2526 88.4718 67.2357 88.4308C67.2188 88.3899 67.1938 88.3529 67.162 88.322C67.1312 88.2903 67.0941 88.2652 67.0532 88.2484C67.0123 88.2315 66.9683 88.2232 66.9241 88.224H63.6481C63.6038 88.2232 63.5598 88.2315 63.5189 88.2484C63.478 88.2652 63.4409 88.2903 63.4101 88.322C63.3783 88.3529 63.3533 88.3899 63.3364 88.4308C63.3196 88.4718 63.3113 88.5157 63.3121 88.56V107.488C63.3121 107.581 63.3451 107.661 63.4101 107.726C63.4409 107.758 63.478 107.783 63.5189 107.8C63.5598 107.816 63.6038 107.825 63.6481 107.824H66.9241V107.824Z" fill="white"/>
<defs>
<filter id="filter0_d_795_261" x="0" y="0" width="114.836" height="114.076" filterUnits="userSpaceOnUse" color-interpolation-filters="sRGB">
<feFlood flood-opacity="0" result="BackgroundImageFix"/>
<feColorMatrix in="SourceAlpha" type="matrix" values="0 0 0 0 0 0 0 0 0 0 0 0 0 0 0 0 0 0 127 0" result="hardAlpha"/>
<feOffset dy="3"/>
<feGaussianBlur stdDeviation="1.5"/>
<feColorMatrix type="matrix" values="0 0 0 0 0 0 0 0 0 0 0 0 0 0 0 0 0 0 0.196706 0"/>
<feBlend mode="normal" in2="BackgroundImageFix" result="effect1_dropShadow_795_261"/>
<feBlend mode="normal" in="SourceGraphic" in2="effect1_dropShadow_795_261" result="shape"/>
</filter>
</defs>
</svg>
