<svg width="156" height="158" viewBox="0 0 156 158" fill="none" xmlns="http://www.w3.org/2000/svg">
<g filter="url(#filter0_d_788_186)">
<path d="M77.5714 152C118.204 152 151.143 118.421 151.143 77C151.143 35.5786 118.204 2 77.5714 2C36.9391 2 4 35.5786 4 77C4 118.421 36.9391 152 77.5714 152Z" fill="#2946BE"/>
<path d="M77.5714 145.349C118.204 145.349 151.143 113.259 151.143 73.6743C151.143 34.0897 118.204 2 77.5714 2C36.9391 2 4 34.0897 4 73.6743C4 113.259 36.9391 145.349 77.5714 145.349Z" fill="url(#paint0_linear_788_186)"/>
<g filter="url(#filter1_i_788_186)">
<path d="M77.6192 131.457C108.811 131.457 134.098 106.315 134.098 75.3C134.098 44.2852 108.811 19.1428 77.6192 19.1428C46.4269 19.1428 21.1406 44.2852 21.1406 75.3C21.1406 106.315 46.4269 131.457 77.6192 131.457Z" fill="#E7E7E7"/>
</g>
<path d="M99.7863 58.2769C99.3893 58.1213 98.9634 58.0531 98.5377 58.0769C97.9591 58.1169 97.492 58.3512 97.2163 58.734C95.5877 61.0126 94.2534 65.3155 93.1777 68.774C92.6848 70.3726 92.0205 72.5112 91.542 73.5269C91.042 70.6826 91.6063 60.2598 91.8263 56.2469L91.8291 56.1812C91.982 53.3926 92.002 52.9041 91.9691 52.6898C91.7263 51.1612 91.1134 50.1555 90.1434 49.7069C89.1634 49.2498 87.8906 49.4526 86.5191 50.2769C85.832 50.6912 85.642 52.1169 85.0506 58.5769L85.0491 58.6055C84.7234 62.1555 83.9763 70.3283 83.0563 71.6898C82.0177 69.7855 80.5877 58.9655 79.9706 54.2826C79.5406 51.0026 79.2891 49.1198 79.1191 48.5512C78.7634 47.3598 77.262 46.3455 75.7763 46.2898C74.5377 46.2283 73.522 46.8569 73.0377 47.9498C72.1306 48.9569 72.452 52.2998 73.452 60.2155C73.9306 63.9826 74.9148 71.7641 74.2948 72.6369C73.0591 72.5026 70.9377 67.6283 67.9891 58.1455C67.1606 55.4883 66.9048 54.6912 66.6506 54.3412C66.1506 53.1226 64.4477 52.1841 62.922 52.2898C62.7905 52.2983 62.6648 52.3155 62.5391 52.3398C61.7391 52.4969 59.9163 53.2326 60.3048 56.6226C61.382 61.3226 62.552 64.7726 63.6863 68.1226L63.7091 68.1883C64.3891 70.1941 65.0306 72.0898 65.6277 74.1941C67.0334 79.1598 66.4863 82.2412 66.4791 82.2769C66.4334 82.5941 66.3363 82.7869 66.1877 82.8555C66.1247 82.8821 66.0574 82.8971 65.9891 82.8998C65.5448 82.9312 64.8748 82.6355 64.532 82.4441C63.7448 80.9426 59.8277 73.7841 56.2777 72.7912L56.1491 72.7541L56.0205 72.7655C54.7191 72.8883 53.762 73.3798 53.1763 74.2269C52.2491 75.5655 52.6334 77.2698 52.7263 77.6112L52.7777 77.7341C52.8063 77.7855 55.6534 82.9683 56.0948 85.3798C56.4748 87.4469 58.4405 89.6869 60.0205 91.4869L60.0863 91.5598C60.6006 92.1498 61.0463 92.6583 61.3963 93.1298C65.982 97.9055 73.2348 101.924 73.2934 101.957C74.1977 102.623 74.7006 103.267 74.7548 103.823C74.7788 104.032 74.7204 104.242 74.592 104.408L74.4348 104.574L75.4377 105.547L94.5691 104.204L95.3848 100.471C97.9077 89.9283 97.3806 80.9398 97.372 80.8798C97.382 80.5483 98.0891 77.3512 98.6577 74.7655L98.6734 74.6998C99.8077 69.5526 101.216 63.1469 101.488 60.7098C101.605 59.6669 100.936 58.7112 99.7877 58.2769H99.7863Z" fill="#3B4262"/>
</g>
<defs>
<filter id="filter0_d_788_186" x="0" y="0" width="155.143" height="158" filterUnits="userSpaceOnUse" color-interpolation-filters="sRGB">
<feFlood flood-opacity="0" result="BackgroundImageFix"/>
<feColorMatrix in="SourceAlpha" type="matrix" values="0 0 0 0 0 0 0 0 0 0 0 0 0 0 0 0 0 0 127 0" result="hardAlpha"/>
<feOffset dy="2"/>
<feGaussianBlur stdDeviation="2"/>
<feComposite in2="hardAlpha" operator="out"/>
<feColorMatrix type="matrix" values="0 0 0 0 0 0 0 0 0 0 0 0 0 0 0 0 0 0 0.25 0"/>
<feBlend mode="normal" in2="BackgroundImageFix" result="effect1_dropShadow_788_186"/>
<feBlend mode="normal" in="SourceGraphic" in2="effect1_dropShadow_788_186" result="shape"/>
</filter>
<filter id="filter1_i_788_186" x="21.1406" y="19.1428" width="112.957" height="112.314" filterUnits="userSpaceOnUse" color-interpolation-filters="sRGB">
<feFlood flood-opacity="0" result="BackgroundImageFix"/>
<feBlend mode="normal" in="SourceGraphic" in2="BackgroundImageFix" result="shape"/>
<feColorMatrix in="SourceAlpha" type="matrix" values="0 0 0 0 0 0 0 0 0 0 0 0 0 0 0 0 0 0 127 0" result="hardAlpha"/>
<feOffset dy="3.25"/>
<feComposite in2="hardAlpha" operator="arithmetic" k2="-1" k3="1"/>
<feColorMatrix type="matrix" values="0 0 0 0 0.72549 0 0 0 0 0.752941 0 0 0 0 0.854902 0 0 0 1 0"/>
<feBlend mode="normal" in2="shape" result="effect1_innerShadow_788_186"/>
</filter>
<linearGradient id="paint0_linear_788_186" x1="77.5714" y1="2" x2="77.5714" y2="145.349" gradientUnits="userSpaceOnUse">
<stop offset="0.0001" stop-color="#5671F5"/>
<stop offset="1" stop-color="#4865F4"/>
</linearGradient>
</defs>
</svg>
