<svg width="156" height="158" viewBox="0 0 156 158" fill="none" xmlns="http://www.w3.org/2000/svg">
<g filter="url(#filter0_d_788_195)">
<path d="M77.5714 152C118.204 152 151.143 118.421 151.143 77C151.143 35.5786 118.204 2 77.5714 2C36.9391 2 4 35.5786 4 77C4 118.421 36.9391 152 77.5714 152Z" fill="#A01733"/>
<path d="M77.5714 145.349C118.204 145.349 151.143 113.259 151.143 73.6743C151.143 34.0897 118.204 2 77.5714 2C36.9391 2 4 34.0897 4 73.6743C4 113.259 36.9391 145.349 77.5714 145.349Z" fill="url(#paint0_linear_788_195)"/>
<g filter="url(#filter1_i_788_195)">
<path d="M77.6192 131.457C108.811 131.457 134.098 106.315 134.098 75.3C134.098 44.2852 108.811 19.1428 77.6192 19.1428C46.4269 19.1428 21.1406 44.2852 21.1406 75.3C21.1406 106.315 46.4269 131.457 77.6192 131.457Z" fill="#E7E7E7"/>
</g>
<path d="M99.4988 64.3772C98.8488 56.1715 89.6217 57.01 89.6217 57.01C85.7274 50.1529 79.6445 55.12 79.6445 55.12C74.9702 48.4 69.1102 54.6272 69.1102 54.6272C59.0074 53.5386 59.3988 61.7886 59.3988 61.7886C59.1602 64.4115 60.8217 72.5243 60.8217 72.5243C59.3231 67.8486 56.0717 71.73 56.0717 71.73C52.076 77.89 55.0845 81.2629 55.0845 81.2629C60.4917 87.5929 72.0188 95.1915 72.0188 95.1915C76.1902 97.5786 74.426 99.7072 74.426 99.7072L99.6688 95.5415L100.25 90.7615C104.087 79.17 99.5002 64.3757 99.5002 64.3757L99.4988 64.3772Z" fill="#3B4262"/>
</g>
<defs>
<filter id="filter0_d_788_195" x="0" y="0" width="155.143" height="158" filterUnits="userSpaceOnUse" color-interpolation-filters="sRGB">
<feFlood flood-opacity="0" result="BackgroundImageFix"/>
<feColorMatrix in="SourceAlpha" type="matrix" values="0 0 0 0 0 0 0 0 0 0 0 0 0 0 0 0 0 0 127 0" result="hardAlpha"/>
<feOffset dy="2"/>
<feGaussianBlur stdDeviation="2"/>
<feComposite in2="hardAlpha" operator="out"/>
<feColorMatrix type="matrix" values="0 0 0 0 0 0 0 0 0 0 0 0 0 0 0 0 0 0 0.25 0"/>
<feBlend mode="normal" in2="BackgroundImageFix" result="effect1_dropShadow_788_195"/>
<feBlend mode="normal" in="SourceGraphic" in2="effect1_dropShadow_788_195" result="shape"/>
</filter>
<filter id="filter1_i_788_195" x="21.1406" y="19.1428" width="112.957" height="112.314" filterUnits="userSpaceOnUse" color-interpolation-filters="sRGB">
<feFlood flood-opacity="0" result="BackgroundImageFix"/>
<feBlend mode="normal" in="SourceGraphic" in2="BackgroundImageFix" result="shape"/>
<feColorMatrix in="SourceAlpha" type="matrix" values="0 0 0 0 0 0 0 0 0 0 0 0 0 0 0 0 0 0 127 0" result="hardAlpha"/>
<feOffset dy="3.25"/>
<feComposite in2="hardAlpha" operator="arithmetic" k2="-1" k3="1"/>
<feColorMatrix type="matrix" values="0 0 0 0 0.72549 0 0 0 0 0.752941 0 0 0 0 0.854902 0 0 0 1 0"/>
<feBlend mode="normal" in2="shape" result="effect1_innerShadow_788_195"/>
</filter>
<linearGradient id="paint0_linear_788_195" x1="77.5714" y1="2" x2="77.5714" y2="145.349" gradientUnits="userSpaceOnUse">
<stop stop-color="#DD405D"/>
<stop offset="1" stop-color="#DC2E4E"/>
</linearGradient>
</defs>
</svg>
