<svg width="156" height="158" viewBox="0 0 156 158" fill="none" xmlns="http://www.w3.org/2000/svg">
<g filter="url(#filter0_d_787_96)">
<path d="M77.5714 152C118.204 152 151.143 118.421 151.143 77C151.143 35.5786 118.204 2 77.5714 2C36.9391 2 4 35.5786 4 77C4 118.421 36.9391 152 77.5714 152Z" fill="#C56E1F"/>
<path d="M77.5714 145.349C118.204 145.349 151.143 113.259 151.143 73.6743C151.143 34.0897 118.204 2 77.5714 2C36.9391 2 4 34.0897 4 73.6743C4 113.259 36.9391 145.349 77.5714 145.349Z" fill="url(#paint0_linear_787_96)"/>
<g filter="url(#filter1_i_787_96)">
<path d="M77.6192 131.457C108.811 131.457 134.098 106.315 134.098 75.3C134.098 44.2852 108.811 19.1428 77.6192 19.1428C46.4269 19.1428 21.1406 44.2852 21.1406 75.3C21.1406 106.315 46.4269 131.457 77.6192 131.457Z" fill="#E7E7E7"/>
</g>
<path d="M66.4284 72.1397L72.5298 63.6111C69.9941 63.1897 65.3369 63.0969 61.5226 66.8897C55.5112 72.8669 53.0755 85.7826 52.5684 88.9083L67.8484 104.103C70.5998 103.868 82.7798 102.251 94.5155 90.5826C94.6398 90.3297 97.4984 88.2297 95.1612 85.9054C94.0469 84.7969 92.1998 84.8169 91.0598 85.9511C90.9269 86.0881 90.7682 86.1973 90.5929 86.2725C90.4176 86.3477 90.229 86.3874 90.0382 86.3893C89.8475 86.3911 89.6582 86.3551 89.4814 86.2834C89.3046 86.2116 89.1439 86.1055 89.0084 85.9711C88.8733 85.8372 88.7665 85.6776 88.6942 85.5016C88.6219 85.3257 88.5856 85.1371 88.5875 84.9469C88.5894 84.7567 88.6293 84.5689 88.7051 84.3944C88.7808 84.2199 88.8907 84.0624 89.0284 83.9311L93.1755 79.8083C95.2841 77.7126 93.2969 74.1783 90.3555 75.0269L86.9598 77.9169C86.6684 78.1682 86.2896 78.2943 85.9057 78.2678C85.5218 78.2414 85.1639 78.0644 84.9098 77.7754C84.3826 77.1697 84.4955 76.2511 85.0955 75.734C96.9541 65.3883 95.2241 66.634 102.853 59.524C105.704 57.164 102.117 52.9883 99.3084 55.3797L80.8512 71.8826C80.5866 72.1068 80.25 72.2282 79.9032 72.2245C79.5564 72.2208 79.2225 72.0923 78.9626 71.8626C78.3526 71.3383 78.3384 70.584 78.7369 69.9883L91.6112 50.0869C93.4941 47.5526 89.7898 44.7383 87.8069 47.2926L68.7712 73.764C68.6624 73.9198 68.5239 74.0526 68.3636 74.1546C68.2033 74.2567 68.0244 74.326 67.8372 74.3587C67.65 74.3914 67.4582 74.3867 67.2728 74.3449C67.0874 74.3032 66.9121 74.2252 66.7569 74.1154C66.6032 74.0092 66.4725 73.8732 66.3724 73.7154C66.2723 73.5577 66.2049 73.3814 66.1743 73.1972C66.1436 73.0129 66.1503 72.8243 66.194 72.6426C66.2376 72.461 66.3173 72.29 66.4284 72.1397V72.1397Z" fill="#3B4262"/>
</g>
<defs>
<filter id="filter0_d_787_96" x="0" y="0" width="155.143" height="158" filterUnits="userSpaceOnUse" color-interpolation-filters="sRGB">
<feFlood flood-opacity="0" result="BackgroundImageFix"/>
<feColorMatrix in="SourceAlpha" type="matrix" values="0 0 0 0 0 0 0 0 0 0 0 0 0 0 0 0 0 0 127 0" result="hardAlpha"/>
<feOffset dy="2"/>
<feGaussianBlur stdDeviation="2"/>
<feComposite in2="hardAlpha" operator="out"/>
<feColorMatrix type="matrix" values="0 0 0 0 0 0 0 0 0 0 0 0 0 0 0 0 0 0 0.25 0"/>
<feBlend mode="normal" in2="BackgroundImageFix" result="effect1_dropShadow_787_96"/>
<feBlend mode="normal" in="SourceGraphic" in2="effect1_dropShadow_787_96" result="shape"/>
</filter>
<filter id="filter1_i_787_96" x="21.1406" y="19.1428" width="112.957" height="112.314" filterUnits="userSpaceOnUse" color-interpolation-filters="sRGB">
<feFlood flood-opacity="0" result="BackgroundImageFix"/>
<feBlend mode="normal" in="SourceGraphic" in2="BackgroundImageFix" result="shape"/>
<feColorMatrix in="SourceAlpha" type="matrix" values="0 0 0 0 0 0 0 0 0 0 0 0 0 0 0 0 0 0 127 0" result="hardAlpha"/>
<feOffset dy="3.25"/>
<feComposite in2="hardAlpha" operator="arithmetic" k2="-1" k3="1"/>
<feColorMatrix type="matrix" values="0 0 0 0 0.72549 0 0 0 0 0.752941 0 0 0 0 0.854902 0 0 0 1 0"/>
<feBlend mode="normal" in2="shape" result="effect1_innerShadow_787_96"/>
</filter>
<linearGradient id="paint0_linear_787_96" x1="77.5714" y1="2" x2="77.5714" y2="145.349" gradientUnits="userSpaceOnUse">
<stop stop-color="#ECA922"/>
<stop offset="1" stop-color="#EC9E0E"/>
</linearGradient>
</defs>
</svg>
