<svg width="156" height="158" viewBox="0 0 156 158" fill="none" xmlns="http://www.w3.org/2000/svg">
<g filter="url(#filter0_d_788_209)">
<path d="M77.5714 152C118.204 152 151.143 118.421 151.143 77C151.143 35.5786 118.204 2 77.5714 2C36.9391 2 4 35.5786 4 77C4 118.421 36.9391 152 77.5714 152Z" fill="#2D8FAC"/>
<path d="M77.5714 145.349C118.204 145.349 151.143 113.259 151.143 73.6743C151.143 34.0897 118.204 2 77.5714 2C36.9391 2 4 34.0897 4 73.6743C4 113.259 36.9391 145.349 77.5714 145.349Z" fill="url(#paint0_linear_788_209)"/>
<g filter="url(#filter1_i_788_209)">
<path d="M77.6192 131.457C108.811 131.457 134.098 106.315 134.098 75.3C134.098 44.2852 108.811 19.1428 77.6192 19.1428C46.4269 19.1428 21.1406 44.2852 21.1406 75.3C21.1406 106.315 46.4269 131.457 77.6192 131.457Z" fill="#E7E7E7"/>
</g>
<path d="M102.51 78.6656L101.634 77.7942C99.5411 75.7142 96.1196 75.2599 93.5668 76.7199L88.1096 79.8199L89.2482 54.9885C89.2444 53.9842 88.8423 53.0224 88.1301 52.3143C87.418 51.6061 86.4539 51.2095 85.4496 51.2114C84.9968 51.2114 84.5625 51.2914 84.1582 51.4371L84.2939 50.1042C84.2939 47.9985 82.5639 46.2856 80.4396 46.2856C78.4753 46.2856 76.8282 47.7499 76.6196 49.6285L73.1196 70.6585C73.0739 70.9442 72.5753 70.9156 72.5225 70.7356L68.3868 53.8756C68.161 53.1079 67.6931 52.4336 67.0528 51.9535C66.4125 51.4734 65.6342 51.213 64.8339 51.2114C63.6996 51.2114 62.6439 51.7199 61.9382 52.6042C61.5911 53.0369 61.3476 53.5432 61.2263 54.0845C61.1049 54.6258 61.109 55.1876 61.2382 55.7271L62.0425 59.1214C61.5836 59.086 61.1224 59.1443 60.6868 59.2928C59.8977 59.5518 59.2268 60.0834 58.7943 60.7924C58.3618 61.5014 58.196 62.3412 58.3268 63.1614L60.7596 77.0742C60.7596 82.5628 61.7282 86.6242 62.5396 89.0628C63.0025 90.4542 63.2368 91.9185 63.2368 93.4128C63.2368 94.7142 63.0553 96.0099 62.6939 97.2599L60.8082 103.83C60.7562 104.014 60.7476 104.207 60.783 104.394C60.8184 104.582 60.8969 104.759 61.0123 104.911C61.1276 105.063 61.2767 105.186 61.4478 105.271C61.6189 105.355 61.8073 105.399 61.9982 105.398H84.2939C84.4893 105.398 84.6819 105.352 84.856 105.263C85.03 105.175 85.1805 105.046 85.2952 104.888C85.4099 104.729 85.4855 104.546 85.5158 104.353C85.5462 104.16 85.5303 103.963 85.4696 103.777C85.4568 103.746 84.4211 100.566 85.4011 96.2399C86.6439 95.2356 90.9968 91.7171 92.5596 90.2971C95.1439 87.9514 102.222 80.7028 102.522 80.3942C102.749 80.1629 102.875 79.8512 102.873 79.5273C102.87 79.2034 102.74 78.8936 102.51 78.6656V78.6656Z" fill="#3B4262"/>
</g>
<defs>
<filter id="filter0_d_788_209" x="0" y="0" width="155.143" height="158" filterUnits="userSpaceOnUse" color-interpolation-filters="sRGB">
<feFlood flood-opacity="0" result="BackgroundImageFix"/>
<feColorMatrix in="SourceAlpha" type="matrix" values="0 0 0 0 0 0 0 0 0 0 0 0 0 0 0 0 0 0 127 0" result="hardAlpha"/>
<feOffset dy="2"/>
<feGaussianBlur stdDeviation="2"/>
<feComposite in2="hardAlpha" operator="out"/>
<feColorMatrix type="matrix" values="0 0 0 0 0 0 0 0 0 0 0 0 0 0 0 0 0 0 0.25 0"/>
<feBlend mode="normal" in2="BackgroundImageFix" result="effect1_dropShadow_788_209"/>
<feBlend mode="normal" in="SourceGraphic" in2="effect1_dropShadow_788_209" result="shape"/>
</filter>
<filter id="filter1_i_788_209" x="21.1406" y="19.1428" width="112.957" height="112.314" filterUnits="userSpaceOnUse" color-interpolation-filters="sRGB">
<feFlood flood-opacity="0" result="BackgroundImageFix"/>
<feBlend mode="normal" in="SourceGraphic" in2="BackgroundImageFix" result="shape"/>
<feColorMatrix in="SourceAlpha" type="matrix" values="0 0 0 0 0 0 0 0 0 0 0 0 0 0 0 0 0 0 127 0" result="hardAlpha"/>
<feOffset dy="3.25"/>
<feComposite in2="hardAlpha" operator="arithmetic" k2="-1" k3="1"/>
<feColorMatrix type="matrix" values="0 0 0 0 0.72549 0 0 0 0 0.752941 0 0 0 0 0.854902 0 0 0 1 0"/>
<feBlend mode="normal" in2="shape" result="effect1_innerShadow_788_209"/>
</filter>
<linearGradient id="paint0_linear_788_209" x1="77.5714" y1="2" x2="77.5714" y2="145.349" gradientUnits="userSpaceOnUse">
<stop stop-color="#52BED1"/>
<stop offset="1" stop-color="#40B9CE"/>
</linearGradient>
</defs>
</svg>
